{
.appVersion = "3148";
classes = (
{
code = "A Aacute Abreve Abrevedotbelow Acircumflex Acircumflexdotbelow Adieresis Adotbelow Agrave Amacron Aogonek Aring Atilde AE AEacute B C Cacute Ccaron Ccedilla Ccedillaacute Cdotaccent D Eth Dcaron Dcroat Ddotbelow Dlinebelow E Eacute Ecaron Ecedillabreve Ecircumflex Ecircumflexdotbelow Edieresis Edotaccent Edotbelow Egrave Emacron Emacronacute Emacrongrave Eogonek Etilde F G Gbreve Gcommaaccent Gdotaccent Gmacron H Hbar Hbrevebelow Hdotbelow I Iacute Icircumflex Idieresis Idieresisacute Idotaccent Idotbelow Igrave Imacron Iogonek Itilde J K Kcommaaccent L Lacute Lcaron Lcommaaccent Ldotbelow Llinebelow Lslash M Mdotbelow N Nacute Ncaron Ncommaaccent Ndotaccent Ndotbelow Eng Nlinebelow Ntilde O Oacute Ocircumflex Ocircumflexdotbelow Odieresis Odotbelow Ograve Ohungarumlaut Omacron Omacronacute Omacrongrave Oslash Otilde Otildeacute Otildedieresis OE P Thorn Q R Racute Rcaron Rcommaaccent Rdotbelow Rlinebelow S Sacute Sacutedotaccent Scaron Scarondotaccent Scedilla Scommaaccent Sdotaccent Sdotbelow Sdotbelowdotaccent Germandbls T Tbar Tcaron Tcedilla Tcommaaccent Tdotbelow Tlinebelow U Uacute Ucircumflex Udieresis Udotbelow Ugrave Uhungarumlaut Umacron Umacrondieresis Uogonek Uring Utilde Utildeacute V W Wacute Wcircumflex Wdieresis Wgrave X Y Yacute Ycircumflex Ydieresis Ydotaccent Ydotbelow Ygrave Ytilde Z Zacute Zcaron Zdotaccent Zdotbelow G.ss01 Gbreve.ss01 Gcommaaccent.ss01 Gdotaccent.ss01 Gmacron.ss01 Delta Omega";
name = Uppercase;
},
{
code = "aacute abreve acircumflex adieresis agrave amacron aring atilde";
name = a_diac;
},
{
code = "b h hbar k kcommaaccent l lacute lcaron lcommaaccent lslash thorn";
name = ascenders;
},
{
code = "dcaron lcaron tcaron";
name = withcaron;
}
);
copyright = "Copyright 2019 The Pathway Extreme Project Authors (https://github.com/etunni/Pathway-Variable-Font)";
customParameters = (
{
name = "Axis Mappings";
value = {
opsz = {
8 = 8;
144 = 144;
};
wdth = {
75 = 0;
100 = 100;
};
wght = {

glyphs = (
{
glyphname = A;
layers = (
{
anchors = (
{
name = bottom;
position = "{323, 0}";
},
{
name = ogonek;
position = "{680, 0}";
},
{
name = top;
position = "{421, 700}";
}
);
layerId = "3C3B4AE3-80BB-44A4-A3CD-A752C08638B1";
paths = (
{
closed = 1;
nodes = (
"-34 0 LINE",
"266 0 LINE",
"394 522 LINE",
"398 522 LINE",
"380 0 LINE",
"680 0 LINE",
"685 700 LINE",
"157 700 LINE"
);
},
{
closed = 1;
nodes = (
"230 113 LINE",
"448 113 LINE",
"476 313 LINE",
"258 313 LINE"
);
}
);
width = 722;
},
{
anchors = (
{
name = bottom;
position = "{298, 0}";
},
{
name = ogonek;
position = "{629, 0}";
},
{
name = top;
position = "{396, 700}";
}
);
layerId = "463395A0-2DFC-45D4-87AF-EBCF54FF53ED";
paths = (
{
closed = 1;
nodes = (
"-33 0 LINE",
"187 0 LINE",
"376 569 LINE",
"379 569 LINE",
"408 0 LINE",
"629 0 LINE",
"584 700 LINE",
"208 700 LINE"
);
},
{
closed = 1;
nodes = (
"188 140 LINE",
"445 140 LINE",
"466 287 LINE",
"209 287 LINE"
);
}
);
width = 672;
},
{
anchors = (
{
name = bottom;
position = "{418, 0}";
},
{
name = ogonek;
position = "{870, 0}";
},
{
name = top;
position = "{516, 700}";
}
);
layerId = "B66266A1-0CD1-42BF-9957-E58294B85305";
paths = (
{
closed = 1;
nodes = (
"-34 0 LINE",
"269 0 LINE",
"489 522 LINE",
"493 522 LINE",
"567 0 LINE",
"870 0 LINE",
"756 700 LINE",
"276 700 LINE"
);
},
{
closed = 1;
nodes = (
"259 113 LINE",
"609 113 LINE",
"637 313 LINE",
"287 313 LINE"
);
}
);
width = 912;
},
{
anchors = (
{
name = bottom;
position = "{388, 0}";
},
{
name = ogonek;
position = "{809, 0}";
},
{
name = top;
position = "{486, 700}";
}
);
layerId = "3B401755-81E4-40F3-BD5E-9424281583CA";
paths = (
{
closed = 1;
nodes = (
"-33 0 LINE",
"220 0 LINE",
"463 552 LINE",
"467 552 LINE",
"556 0 LINE",
"809 0 LINE",
"686 700 LINE",
"286 700 LINE"
);
},
{
closed = 1;
nodes = (
"229 130 LINE",
"583 130 LINE",
"607 297 LINE",
"253 297 LINE"
);
}
);
width = 852;
},
{
anchors = (
{
name = bottom;
position = "{89, 0}";
},
{
name = ogonek;
position = "{200, 0}";
},
{
name = top;
position = "{186, 700}";
}
);
layerId = "3D671699-C126-4AA5-A66F-47C26817AED2";
paths = (
{
closed = 1;
nodes = (
"-23 0 LINE",
"-19 0 LINE",
"186 696 LINE",
"187 696 LINE",
"196 0 LINE",
"200 0 LINE",
"190 700 LINE",
"183 700 LINE"
);
},
{
closed = 1;
nodes = (
"41 211 LINE",
"194 211 LINE",
"195 215 LINE",
"42 215 LINE"
);
}
);
width = 253;
},
{
anchors = (
{
name = bottom;
position = "{178, 0}";
},
{
name = ogonek;
position = "{386, 0}";
},
{
name = top;
position = "{276, 700}";
}
);
layerId = "46E74328-601B-43A9-9281-7B741E5F83E4";
paths = (
{
closed = 1;
nodes = (
"-30 0 LINE",
"31 0 LINE",
"268 653 LINE",
"272 653 LINE",
"325 0 LINE",
"386 0 LINE",
"326 700 LINE",
"226 700 LINE"
);
},
{
closed = 1;
nodes = (
"87 189 LINE",
"322 189 LINE",
"329 239 LINE",
"94 239 LINE"
);
}
);
width = 432;
},
{
anchors = (
{
name = bottom;
position = "{242, 0}";
},
{
name = ogonek;
position = "{508, 0}";
},
{
name = top;
position = "{339, 700}";
}
);
layerId = "ECB9DAFA-B085-4474-A032-AB3BEA4F5B4C";
paths = (
{
closed = 1;
nodes = (
"-27 0 LINE",
"-23 0 LINE",
"338 697 LINE",
"339 697 LINE",
"504 0 LINE",
"508 0 LINE",
"342 700 LINE",
"335 700 LINE"
);
},
{
closed = 1;
nodes = (
"86 212 LINE",
"455 212 LINE",
"455 216 LINE",
"86 216 LINE"
);
}
);
width = 557;
},
{
anchors = (
{
name = bottom;
position = "{263, 0}";
},
{
name = ogonek;
position = "{555, 0}";
},
{
name = top;
position = "{361, 700}";
}
);
layerId = "287B816B-C6D9-4D62-948A-F2FEA8E41A5A";
paths = (
{
closed = 1;
nodes = (
"-29 0 LINE",
"33 0 LINE",
"352 650 LINE",
"356 650 LINE",
"493 0 LINE",
"555 0 LINE",
"405 700 LINE",
"317 700 LINE"
);
},
{
closed = 1;
nodes = (
"114 192 LINE",
"465 192 LINE",
"472 242 LINE",
"121 242 LINE"
);
}
);
width = 602;
}
);
leftKerningGroup = public.kern2.A;
rightKerningGroup = public.kern1.A;
unicode = 0041;
},
{
glyphname = AE;
layers = (
{
anchors = (
{
name = bottom;
position = "{530, 0}";
},
{
name = top;
position = "{628, 700}";
}
);
guideLines = (
{
angle = 160.056;
position = "{112, 555}";
}
);
layerId = "3C3B4AE3-80BB-44A4-A3CD-A752C08638B1";
paths = (
{
closed = 1;
nodes = (
"-34 0 LINE",
"266 0 LINE",
"528 700 LINE",
"231 700 LINE"
);
},
{
closed = 1;
nodes = (
"228 190 LINE",
"938 257 LINE",
"966 458 LINE",
"256 391 LINE"
);
},
{
closed = 1;
nodes = (
"420 0 LINE",
"928 0 LINE",
"956 200 LINE",
"683 200 LINE",
"726 46 LINE",
"812 654 LINE",
"725 500 LINE",
"993 500 LINE",
"1021 700 LINE",
"518 700 LINE"
);
},
{
closed = 1;
nodes = (
"389 700 LINE",
"361 501 LINE",
"725 500 LINE",
"753 700 LINE"
);
}
);
width = 988;
},
{
anchors = (
{
name = bottom;
position = "{493, 0}";
},
{
name = top;
position = "{615, 700}";
}
);
layerId = "463395A0-2DFC-45D4-87AF-EBCF54FF53ED";
paths = (
{
closed = 1;
nodes = (
"-33 0 LINE",
"191 0 LINE",
"484 700 LINE",
"262 700 LINE"
);
},
{
closed = 1;
nodes = (
"203 215 LINE",
"882 281 LINE",
"903 429 LINE",
"224 362 LINE"
);
},
{
closed = 1;
nodes = (
"406 0 LINE",
"869 0 LINE",
"889 147 LINE",
"598 147 LINE",
"631 34 LINE",
"719 666 LINE",
"656 553 LINE",
"942 553 LINE",
"962 700 LINE",
"504 700 LINE"
);
},
{
closed = 1;
nodes = (
"374 700 LINE",
"354 554 LINE",
"656 553 LINE",
"676 700 LINE"
);
}
);
width = 935;
},
{
anchors = (
{
name = bottom;
position = "{650, 0}";
},
{
name = top;
position = "{748, 700}";
}
);
guideLines = (
{
angle = 160.056;
position = "{522, 555}";
}
);
layerId = "B66266A1-0CD1-42BF-9957-E58294B85305";
paths = (
{
closed = 1;
nodes = (
"-34 0 LINE",
"272 0 LINE",
"584 700 LINE",
"281 700 LINE"
);
},
{
closed = 1;
nodes = (
"308 190 LINE",
"1138 257 LINE",
"1166 458 LINE",
"336 391 LINE"
);
},
{
closed = 1;
nodes = (
"500 0 LINE",
"1128 0 LINE",
"1156 200 LINE",
"763 200 LINE",
"806 46 LINE",
"892 654 LINE",
"805 500 LINE",
"1193 500 LINE",
"1221 700 LINE",
"598 700 LINE"
);
},
{
closed = 1;
nodes = (
"469 700 LINE",
"441 501 LINE",
"805 500 LINE",
"833 700 LINE"
);
}
);
width = 1188;
},
{
anchors = (
{
name = bottom;
position = "{601, 0}";
},
{
name = top;
position = "{716, 700}";
}
);
layerId = "3B401755-81E4-40F3-BD5E-9424281583CA";
paths = (
{
closed = 1;
nodes = (
"-33 0 LINE",
"220 0 LINE",
"539 700 LINE",
"288 700 LINE"
);
},
{
closed = 1;
nodes = (
"276 207 LINE",
"1073 272 LINE",
"1097 440 LINE",
"300 375 LINE"
);
},
{
closed = 1;
nodes = (
"478 0 LINE",
"1061 0 LINE",
"1084 167 LINE",
"697 167 LINE",
"733 39 LINE",
"821 661 LINE",
"749 533 LINE",
"1131 533 LINE",
"1154 700 LINE",
"576 700 LINE"
);
},
{
closed = 1;
nodes = (
"445 700 LINE",
"422 534 LINE",
"749 533 LINE",
"772 700 LINE"
);
}
);
width = 1128;
},
{
anchors = (
{
name = bottom;
position = "{162, 0}";
},
{
name = top;
position = "{331, 700}";
}
);
guideLines = (
{
angle = 158.836;
position = "{-120, 127}";
},
{
angle = 158.836;
position = "{21, 627}";
}
);
layerId = "3D671699-C126-4AA5-A66F-47C26817AED2";
paths = (
{
closed = 1;
nodes = (
"-33 0 LINE",
"-29 0 LINE",
"251 700 LINE",
"247 700 LINE"
);
},
{
closed = 1;
nodes = (
"86 290 LINE",
"343 346 LINE",
"344 350 LINE",
"86 294 LINE"
);
},
{
closed = 1;
nodes = (
"174 0 LINE",
"315 0 LINE",
"315 4 LINE",
"176 4 LINE",
"178 2 LINE",
"276 698 LINE",
"274 696 LINE",
"409 696 LINE",
"409 700 LINE",
"272 700 LINE"
);
},
{
closed = 1;
nodes = (
"249 700 LINE",
"248 696 LINE",
"274 696 LINE",
"274 700 LINE"
);
}
);
width = 376;
},
{
anchors = (
{
name = bottom;
position = "{324, 0}";
},
{
name = top;
position = "{492, 700}";
}
);
layerId = "46E74328-601B-43A9-9281-7B741E5F83E4";
paths = (
{
closed = 1;
nodes = (
"-30 0 LINE",
"31 0 LINE",
"353 700 LINE",
"293 700 LINE"
);
},
{
closed = 1;
nodes = (
"137 264 LINE",
"630 321 LINE",
"637 371 LINE",
"144 314 LINE"
);
},
{
closed = 1;
nodes = (
"308 0 LINE",
"603 0 LINE",
"610 54 LINE",
"365 54 LINE",
"370 13 LINE",
"464 687 LINE",
"449 646 LINE",
"691 646 LINE",
"698 700 LINE",
"406 700 LINE"
);
},
{
closed = 1;
nodes = (
"327 700 LINE",
"319 646 LINE",
"449 646 LINE",
"456 700 LINE"
);
}
);
width = 683;
},
{
anchors = (
{
name = bottom;
position = "{383, 0}";
},
{
name = top;
position = "{580, 700}";
}
);
guideLines = (
{
angle = 158.836;
position = "{66, 127}";
},
{
angle = 158.836;
position = "{207, 627}";
}
);
layerId = "ECB9DAFA-B085-4474-A032-AB3BEA4F5B4C";
paths = (
{
closed = 1;
nodes = (
"-27 0 LINE",
"-23 0 LINE",
"349 700 LINE",
"345 700 LINE"
);
},
{
closed = 1;
nodes = (
"130 290 LINE",
"755 347 LINE",
"755 351 LINE",
"130 294 LINE"
);
},
{
closed = 1;
nodes = (
"390 0 LINE",
"732 0 LINE",
"732 4 LINE",
"392 4 LINE",
"394 2 LINE",
"492 698 LINE",
"490 696 LINE",
"825 696 LINE",
"825 700 LINE",
"488 700 LINE"
);
},
{
closed = 1;
nodes = (
"346 700 LINE",
"346 696 LINE",
"490 696 LINE",
"490 700 LINE"
);
}
);
width = 832;
},
{
anchors = (
{
name = bottom;
position = "{429, 0}";
},
{
name = top;
position = "{603, 700}";
}
);
layerId = "287B816B-C6D9-4D62-948A-F2FEA8E41A5A";
paths = (
{
closed = 1;
nodes = (
"-29 0 LINE",
"33 0 LINE",
"380 700 LINE",
"319 700 LINE"
);
},
{
closed = 1;
nodes = (
"156 260 LINE",
"814 321 LINE",
"821 371 LINE",
"163 310 LINE"
);
},
{
closed = 1;
nodes = (
"400 0 LINE",
"794 0 LINE",
"801 54 LINE",
"454 54 LINE",
"462 14 LINE",
"556 686 LINE",
"538 646 LINE",
"880 646 LINE",
"887 700 LINE",
"498 700 LINE"
);
},
{
closed = 1;
nodes = (
"362 700 LINE",
"354 646 LINE",
"538 646 LINE",
"545 700 LINE"
);
}
);
width = 882;
}
);
leftKerningGroup = public.kern2.A;
rightKerningGroup = public.kern1.E;
unicode = 00C6;
},
{
glyphname = B;
layers = (
{
layerId = "3C3B4AE3-80BB-44A4-A3CD-A752C08638B1";
paths = (
{
closed = 1;
nodes = (
"2 0 LINE",
"441 0 LINE SMOOTH",
"574 0 OFFCURVE",
"671 71 OFFCURVE",
"686 180 CURVE",
"686 182 LINE",
"704 309 OFFCURVE",
"621 375 OFFCURVE",
"442 375 CURVE",
"440 343 LINE",
"600 343 OFFCURVE",
"698 410 OFFCURVE",
"715 530 CURVE",
"716 532 LINE",
"731 645 OFFCURVE",
"667 700 OFFCURVE",
"520 700 CURVE SMOOTH",
"100 700 LINE"
);
},
{
closed = 1;
nodes = (
"329 190 LINE",
"340 270 LINE",
"373 270 LINE SMOOTH",
"397 270 OFFCURVE",
"407 258 OFFCURVE",
"404 234 CURVE SMOOTH",
"403 226 LINE SMOOTH",
"399 202 OFFCURVE",
"386 190 OFFCURVE",
"362 190 CURVE SMOOTH"
);
},
{
closed = 1;
nodes = (
"362 430 LINE",
"373 510 LINE",
"399 510 LINE SMOOTH",
"424 510 OFFCURVE",
"433 499 OFFCURVE",
"429 474 CURVE SMOOTH",
"428 466 LINE SMOOTH",
"425 441 OFFCURVE",
"413 430 OFFCURVE",
"388 430 CURVE SMOOTH"
);
}
);
width = 721;
},
{
layerId = "463395A0-2DFC-45D4-87AF-EBCF54FF53ED";
paths = (
{
closed = 1;
nodes = (
"12 0 LINE",
"383 0 LINE SMOOTH",
"509 0 OFFCURVE",
"593 64 OFFCURVE",
"610 182 CURVE SMOOTH",
"611 185 LINE",
"627 307 OFFCURVE",
"560 369 OFFCURVE",
"407 371 CURVE",
"406 348 LINE",
"539 351 OFFCURVE",
"625 419 OFFCURVE",
"641 530 CURVE SMOOTH",
"642 533 LINE",
"657 647 OFFCURVE",
"596 700 OFFCURVE",
"462 700 CURVE SMOOTH",
"110 700 LINE"
);
},
{
closed = 1;
nodes = (
"251 140 LINE",
"273 294 LINE",
"352 294 LINE SMOOTH",
"391 294 OFFCURVE",
"408 269 OFFCURVE",
"401 222 CURVE SMOOTH",
"400 214 LINE SMOOTH",
"392 161 OFFCURVE",
"367 140 OFFCURVE",
"325 140 CURVE SMOOTH"
);
},
{
closed = 1;
nodes = (
"290 412 LINE",
"311 560 LINE",
"374 560 LINE SMOOTH",
"420 560 OFFCURVE",
"435 536 OFFCURVE",
"429 490 CURVE SMOOTH",
"428 482 LINE SMOOTH",
"421 438 OFFCURVE",
"399 412 OFFCURVE",
"364 412 CURVE SMOOTH"
);
}
);
width = 651;
},
{
guideLines = (
{
angle = 8.246;
position = "{607, 487}";
}
);
layerId = "B66266A1-0CD1-42BF-9957-E58294B85305";
paths = (
{
closed = 1;
nodes = (
"2 0 LINE",
"498 0 LINE SMOOTH",
"647 0 OFFCURVE",
"740 66 OFFCURVE",
"757 183 CURVE",
"757 185 LINE",
"775 316 OFFCURVE",
"694 375 OFFCURVE",
"495 375 CURVE",
"494 343 LINE",
"659 343 OFFCURVE",
"767 413 OFFCURVE",
"785 533 CURVE",
"785 535 LINE",
"800 645 OFFCURVE",
"730 700 OFFCURVE",
"575 700 CURVE SMOOTH",
"100 700 LINE"
);
},
{
closed = 1;
nodes = (
"329 190 LINE",
"340 270 LINE",
"432 270 LINE SMOOTH",
"457 270 OFFCURVE",
"467 258 OFFCURVE",
"464 234 CURVE SMOOTH",
"463 226 LINE SMOOTH",
"459 202 OFFCURVE",
"446 190 OFFCURVE",
"421 190 CURVE SMOOTH"
);
},
{
closed = 1;
nodes = (
"362 430 LINE",
"373 510 LINE",
"454 510 LINE SMOOTH",
"480 510 OFFCURVE",
"490 499 OFFCURVE",
"486 474 CURVE SMOOTH",
"485 466 LINE SMOOTH",
"482 441 OFFCURVE",
"469 430 OFFCURVE",
"443 430 CURVE SMOOTH"
);
}
);
width = 791;
},
{
layerId = "3B401755-81E4-40F3-BD5E-9424281583CA";
paths = (
{
closed = 1;
nodes = (
"14 0 LINE",
"462 0 LINE SMOOTH",
"611 0 OFFCURVE",
"701 64 OFFCURVE",
"718 183 CURVE",
"718 186 LINE",
"735 313 OFFCURVE",
"660 371 OFFCURVE",
"478 372 CURVE",
"477 346 LINE",
"629 347 OFFCURVE",
"729 416 OFFCURVE",
"746 531 CURVE SMOOTH",
"747 534 LINE",
"761 645 OFFCURVE",
"693 700 OFFCURVE",
"539 700 CURVE SMOOTH",
"112 700 LINE"
);
},
{
closed = 1;
nodes = (
"286 159 LINE",
"304 285 LINE",
"421 285 LINE SMOOTH",
"461 285 OFFCURVE",
"479 265 OFFCURVE",
"474 227 CURVE SMOOTH",
"473 219 LINE SMOOTH",
"467 178 OFFCURVE",
"443 159 OFFCURVE",
"398 159 CURVE SMOOTH"
);
},
{
closed = 1;
nodes = (
"323 419 LINE",
"340 541 LINE",
"439 541 LINE SMOOTH",
"485 541 OFFCURVE",
"503 523 OFFCURVE",
"498 483 CURVE SMOOTH",
"497 476 LINE SMOOTH",
"492 439 OFFCURVE",
"469 419 OFFCURVE",
"432 419 CURVE SMOOTH"
);
}
);
width = 759;
},
{
layerId = "3D671699-C126-4AA5-A66F-47C26817AED2";
paths = (
{
closed = 1;
nodes = (
"12 0 LINE",
"88 0 LINE SMOOTH",
"141 0 OFFCURVE",
"180 45 OFFCURVE",
"200 182 CURVE SMOOTH",
"201 188 LINE SMOOTH",
"216 293 OFFCURVE",
"203 353 OFFCURVE",
"164 360 CURVE",
"165 362 LINE",
"202 375 OFFCURVE",
"229 444 OFFCURVE",
"241 527 CURVE SMOOTH",
"242 533 LINE SMOOTH",
"259 661 OFFCURVE",
"227 700 OFFCURVE",
"176 700 CURVE SMOOTH",
"110 700 LINE"
);
},
{
closed = 1;
nodes = (
"16 4 LINE",
"66 359 LINE",
"152 359 LINE SMOOTH",
"198 359 OFFCURVE",
"213 300 OFFCURVE",
"197 188 CURVE SMOOTH",
"196 182 LINE SMOOTH",
"177 45 OFFCURVE",
"137 4 OFFCURVE",
"88 4 CURVE SMOOTH"
);
},
{
closed = 1;
nodes = (
"67 363 LINE",
"114 696 LINE",
"175 696 LINE SMOOTH",
"240 696 OFFCURVE",
"251 630 OFFCURVE",
"238 533 CURVE SMOOTH",
"237 527 LINE SMOOTH",
"224 433 OFFCURVE",
"190 363 OFFCURVE",
"156 363 CURVE SMOOTH"
);
}
);
width = 241;
},
{
layerId = "46E74328-601B-43A9-9281-7B741E5F83E4";
paths = (
{
closed = 1;
nodes = (
"37 0 LINE",
"204 0 LINE SMOOTH",
"321 0 OFFCURVE",
"380 56 OFFCURVE",
"399 186 CURVE SMOOTH",
"401 198 LINE SMOOTH",
"414 303 OFFCURVE",
"379 358 OFFCURVE",
"295 363 CURVE",
"295 359 LINE",
"366 367 OFFCURVE",
"419 428 OFFCURVE",
"432 518 CURVE SMOOTH",
"433 526 LINE SMOOTH",
"448 643 OFFCURVE",
"401 700 OFFCURVE",
"289 700 CURVE SMOOTH",
"135 700 LINE"
);
},
{
closed = 1;
nodes = (
"104 50 LINE",
"144 334 LINE",
"251 334 LINE SMOOTH",
"325 334 OFFCURVE",
"354 291 OFFCURVE",
"341 198 CURVE SMOOTH",
"339 186 LINE SMOOTH",
"325 88 OFFCURVE",
"289 50 OFFCURVE",
"211 50 CURVE SMOOTH"
);
},
{
closed = 1;
nodes = (
"151 384 LINE",
"188 650 LINE",
"282 650 LINE SMOOTH",
"354 650 OFFCURVE",
"384 609 OFFCURVE",
"373 526 CURVE SMOOTH",
"372 518 LINE SMOOTH",
"360 432 OFFCURVE",
"314 384 OFFCURVE",
"245 384 CURVE SMOOTH"
);
}
);
width = 452;
},
{
guideLines = (
{
angle = 8.246;
position = "{489, 504}";
}
);
layerId = "ECB9DAFA-B085-4474-A032-AB3BEA4F5B4C";
paths = (
{
closed = 1;
nodes = (
"72 0 LINE",
"286 0 LINE SMOOTH",
"433 0 OFFCURVE",
"507 57 OFFCURVE",
"525 185 CURVE SMOOTH",
"526 191 LINE SMOOTH",
"539 297 OFFCURVE",
"495 353 OFFCURVE",
"395 360 CURVE",
"396 362 LINE",
"480 369 OFFCURVE",
"544 433 OFFCURVE",
"556 524 CURVE SMOOTH",
"557 530 LINE SMOOTH",
"572 646 OFFCURVE",
"509 700 OFFCURVE",
"362 700 CURVE SMOOTH",
"170 700 LINE"
);
},
{
closed = 1;
nodes = (
"76 4 LINE",
"126 359 LINE",
"366 359 LINE SMOOTH",
"483 359 OFFCURVE",
"537 301 OFFCURVE",
"522 191 CURVE SMOOTH",
"521 185 LINE SMOOTH",
"503 60 OFFCURVE",
"430 4 OFFCURVE",
"286 4 CURVE SMOOTH"
);
},
{
closed = 1;
nodes = (
"127 363 LINE",
"174 696 LINE",
"362 696 LINE SMOOTH",
"509 696 OFFCURVE",
"569 643 OFFCURVE",
"553 530 CURVE SMOOTH",
"552 524 LINE SMOOTH",
"539 430 OFFCURVE",
"464 363 OFFCURVE",
"373 363 CURVE SMOOTH"
);
}
);
width = 598;
},
{
layerId = "287B816B-C6D9-4D62-948A-F2FEA8E41A5A";
paths = (
{
closed = 1;
nodes = (
"52 0 LINE",
"295 0 LINE SMOOTH",
"436 0 OFFCURVE",
"507 57 OFFCURVE",
"525 186 CURVE SMOOTH",
"527 199 LINE SMOOTH",
"540 305 OFFCURVE",
"495 357 OFFCURVE",
"386 363 CURVE",
"386 358 LINE",
"477 365 OFFCURVE",
"544 428 OFFCURVE",
"557 520 CURVE SMOOTH",
"558 529 LINE SMOOTH",
"573 644 OFFCURVE",
"512 700 OFFCURVE",
"374 700 CURVE SMOOTH",
"150 700 LINE"
);
},
{
closed = 1;
nodes = (
"119 50 LINE",
"159 334 LINE",
"347 334 LINE SMOOTH",
"439 334 OFFCURVE",
"479 289 OFFCURVE",
"467 199 CURVE SMOOTH",
"465 186 LINE SMOOTH",
"451 87 OFFCURVE",
"404 50 OFFCURVE",
"292 50 CURVE SMOOTH"
);
},
{
closed = 1;
nodes = (
"166 384 LINE",
"203 650 LINE",
"358 650 LINE SMOOTH",
"467 650 OFFCURVE",
"510 613 OFFCURVE",
"498 529 CURVE SMOOTH",
"497 520 LINE SMOOTH",
"485 437 OFFCURVE",
"428 384 OFFCURVE",
"348 384 CURVE SMOOTH"
);
}
);
width = 587;
}
);
leftKerningGroup = public.kern2.H;
rightKerningGroup = public.kern1.B;
unicode = 0042;
},
{
glyphname = C;
layers = (
{
anchors = (
{
name = bottom;
position = "{317, 0}";
},
{
name = top;
position = "{415, 700}";
}
);
guideLines = (
{
angle = 266.121;
position = "{668, 246}";
}
);
layerId = "3C3B4AE3-80BB-44A4-A3CD-A752C08638B1";
paths = (
{
closed = 1;
nodes = (
"506 -15 OFFCURVE",
"636 71 OFFCURVE",
"670 236 CURVE",
"384 265 LINE",
"373 211 OFFCURVE",
"361 185 OFFCURVE",
"339 185 CURVE SMOOTH",
"322 185 OFFCURVE",
"314 196 OFFCURVE",
"318 220 CURVE",
"354 480 LINE",
"358 504 OFFCURVE",
"368 515 OFFCURVE",
"385 515 CURVE SMOOTH",
"407 515 OFFCURVE",
"413 491 OFFCURVE",
"408 435 CURVE",
"702 464 LINE",
"714 629 OFFCURVE",
"608 715 OFFCURVE",
"417 715 CURVE SMOOTH",
"213 715 OFFCURVE",
"73 611 OFFCURVE",
"49 444 CURVE SMOOTH",
"23 256 LINE SMOOTH",
"-1 89 OFFCURVE",
"111 -15 OFFCURVE",
"315 -15 CURVE SMOOTH"
);
}
);
width = 694;
},
{
anchors = (
{
name = bottom;
position = "{295, -1}";
},
{
name = top;
position = "{392, 700}";
}
);
layerId = "463395A0-2DFC-45D4-87AF-EBCF54FF53ED";
paths = (
{
closed = 1;
nodes = (
"462 -12 OFFCURVE",
"575 70 OFFCURVE",
"610 223 CURVE",
"400 244 LINE",
"384 170 OFFCURVE",
"357 135 OFFCURVE",
"311 135 CURVE SMOOTH",
"264 135 OFFCURVE",
"242 170 OFFCURVE",
"252 243 CURVE SMOOTH",
"282 458 LINE SMOOTH",
"292 529 OFFCURVE",
"325 565 OFFCURVE",
"371 565 CURVE SMOOTH",
"416 565 OFFCURVE",
"433 533 OFFCURVE",
"430 460 CURVE",
"646 481 LINE",
"652 631 OFFCURVE",
"563 712 OFFCURVE",
"388 712 CURVE SMOOTH",
"207 712 OFFCURVE",
"84 615 OFFCURVE",
"62 454 CURVE SMOOTH",
"33 248 LINE SMOOTH",
"10 84 OFFCURVE",
"105 -12 OFFCURVE",
"286 -12 CURVE SMOOTH"
);
}
);
width = 645;
},
{
anchors = (
{
name = bottom;
position = "{383, 0}";
},
{
name = top;
position = "{473, 700}";
}
);
guideLines = (
{
angle = 99.7;
position = "{594, 502}";
},
{
angle = 83.946;
position = "{511, 204}";
},
{
angle = 355.101;
position = "{237, 223}";
},
{
angle = 4.899;
position = "{309, 477}";
},
{
angle = 262.161;
position = "{499, 285}";
},
{
angle = 262.161;
position = "{781, 256}";
},
{
angle = 278.13;
position = "{845, 528}";
}
);
layerId = "B66266A1-0CD1-42BF-9957-E58294B85305";
paths = (
{
closed = 1;
nodes = (
"597 -15 OFFCURVE",
"735 88 OFFCURVE",
"783 256 CURVE",
"497 285 LINE",
"478 217 OFFCURVE",
"453 185 OFFCURVE",
"401 185 CURVE SMOOTH",
"351 185 OFFCURVE",
"322 218 OFFCURVE",
"332 286 CURVE SMOOTH",
"350 414 LINE SMOOTH",
"360 482 OFFCURVE",
"397 515 OFFCURVE",
"447 515 CURVE SMOOTH",
"499 515 OFFCURVE",
"516 485 OFFCURVE",
"515 415 CURVE",
"809 444 LINE",
"809 612 OFFCURVE",
"699 715 OFFCURVE",
"457 715 CURVE SMOOTH",
"231 715 OFFCURVE",
"76 600 OFFCURVE",
"50 414 CURVE SMOOTH",
"32 286 LINE SMOOTH",
"6 100 OFFCURVE",
"129 -15 OFFCURVE",
"355 -15 CURVE SMOOTH"
);
}
);
width = 808;
},
{
anchors = (
{
name = bottom;
position = "{368, 0}";
},
{
name = top;
position = "{461, 700}";
}
);
layerId = "3B401755-81E4-40F3-BD5E-9424281583CA";
paths = (
{
closed = 1;
nodes = (
"568 -13 OFFCURVE",
"699 85 OFFCURVE",
"745 248 CURVE",
"507 272 LINE",
"485 192 OFFCURVE",
"448 154 OFFCURVE",
"382 154 CURVE SMOOTH",
"314 154 OFFCURVE",
"280 200 OFFCURVE",
"293 295 CURVE SMOOTH",
"309 407 LINE SMOOTH",
"322 500 OFFCURVE",
"371 546 OFFCURVE",
"438 546 CURVE SMOOTH",
"503 546 OFFCURVE",
"528 511 OFFCURVE",
"529 432 CURVE",
"774 456 LINE",
"772 617 OFFCURVE",
"669 713 OFFCURVE",
"447 713 CURVE SMOOTH",
"232 713 OFFCURVE",
"86 601 OFFCURVE",
"60 414 CURVE SMOOTH",
"42 288 LINE SMOOTH",
"16 99 OFFCURVE",
"129 -13 OFFCURVE",
"344 -13 CURVE SMOOTH"
);
}
);
width = 778;
},
{
anchors = (
{
name = bottom;
position = "{89, -2}";
},
{
name = top;
position = "{188, 700}";
}
);
guideLines = (
{
angle = 4.086;
position = "{263, 98}";
},
{
angle = 4.086;
position = "{338, 565}";
},
{
angle = 355.914;
position = "{218, 136}";
},
{
angle = 266.121;
position = "{259, 113}";
}
);
layerId = "3D671699-C126-4AA5-A66F-47C26817AED2";
paths = (
{
closed = 1;
nodes = (
"142 -5 OFFCURVE",
"177 41 OFFCURVE",
"195 138 CURVE",
"191 138 LINE",
"173 42 OFFCURVE",
"141 -1 OFFCURVE",
"89 -1 CURVE SMOOTH",
"37 -1 OFFCURVE",
"16 40 OFFCURVE",
"28 122 CURVE SMOOTH",
"92 578 LINE SMOOTH",
"103 659 OFFCURVE",
"136 701 OFFCURVE",
"187 701 CURVE SMOOTH",
"238 701 OFFCURVE",
"259 658 OFFCURVE",
"252 568 CURVE",
"256 568 LINE",
"264 661 OFFCURVE",
"242 705 OFFCURVE",
"188 705 CURVE SMOOTH",
"134 705 OFFCURVE",
"100 661 OFFCURVE",
"88 578 CURVE SMOOTH",
"24 122 LINE SMOOTH",
"12 38 OFFCURVE",
"34 -5 OFFCURVE",
"88 -5 CURVE SMOOTH"
);
}
);
width = 232;
},
{
anchors = (
{
name = bottom;
position = "{201, -2}";
},
{
name = top;
position = "{300, 700}";
}
);
layerId = "46E74328-601B-43A9-9281-7B741E5F83E4";
paths = (
{
closed = 1;
nodes = (
"304 -7 OFFCURVE",
"372 56 OFFCURVE",
"399 178 CURVE",
"342 183 LINE",
"321 92 OFFCURVE",
"275 47 OFFCURVE",
"204 47 CURVE SMOOTH",
"127 47 OFFCURVE",
"95 97 OFFCURVE",
"109 196 CURVE SMOOTH",
"153 506 LINE SMOOTH",
"166 602 OFFCURVE",
"215 653 OFFCURVE",
"291 653 CURVE SMOOTH",
"359 653 OFFCURVE",
"390 612 OFFCURVE",
"389 526 CURVE",
"448 532 LINE",
"451 648 OFFCURVE",
"401 707 OFFCURVE",
"298 707 CURVE SMOOTH",
"183 707 OFFCURVE",
"111 635 OFFCURVE",
"93 506 CURVE SMOOTH",
"49 197 LINE",
"31 64 OFFCURVE",
"84 -7 OFFCURVE",
"197 -7 CURVE SMOOTH"
);
}
);
width = 457;
},
{
anchors = (
{
name = bottom;
position = "{294, -2}";
},
{
name = top;
position = "{403, 700}";
}
);
guideLines = (
{
position = "{0, 194}";
},
{
angle = 4.899;
position = "{167, 515}";
},
{
angle = 262.161;
position = "{547, 209}";
}
);
layerId = "ECB9DAFA-B085-4474-A032-AB3BEA4F5B4C";
paths = (
{
closed = 1;
nodes = (
"430 -5 OFFCURVE",
"521 68 OFFCURVE",
"560 208 CURVE",
"556 209 LINE",
"518 71 OFFCURVE",
"429 -1 OFFCURVE",
"294 -1 CURVE SMOOTH",
"135 -1 OFFCURVE",
"70 97 OFFCURVE",
"98 296 CURVE SMOOTH",
"115 414 LINE SMOOTH",
"141 602 OFFCURVE",
"238 701 OFFCURVE",
"394 701 CURVE SMOOTH",
"520 701 OFFCURVE",
"586 640 OFFCURVE",
"594 514 CURVE",
"598 515 LINE",
"590 642 OFFCURVE",
"523 705 OFFCURVE",
"395 705 CURVE SMOOTH",
"236 705 OFFCURVE",
"138 604 OFFCURVE",
"111 414 CURVE SMOOTH",
"94 296 LINE SMOOTH",
"66 94 OFFCURVE",
"132 -5 OFFCURVE",
"293 -5 CURVE SMOOTH"
);
}
);
width = 637;
},
{
anchors = (
{
name = bottom;
position = "{291, -1}";
},
{
name = top;
position = "{392, 700}";
}
);
layerId = "287B816B-C6D9-4D62-948A-F2FEA8E41A5A";
paths = (
{
closed = 1;
nodes = (
"427 -7 OFFCURVE",
"520 66 OFFCURVE",
"560 208 CURVE",
"504 213 LINE",
"472 102 OFFCURVE",
"401 47 OFFCURVE",
"293 47 CURVE SMOOTH",
"164 47 OFFCURVE",
"114 117 OFFCURVE",
"135 268 CURVE SMOOTH",
"159 438 LINE SMOOTH",
"180 583 OFFCURVE",
"253 653 OFFCURVE",
"380 653 CURVE SMOOTH",
"484 653 OFFCURVE",
"536 605 OFFCURVE",
"540 502 CURVE",
"600 508 LINE",
"594 641 OFFCURVE",
"524 707 OFFCURVE",
"387 707 CURVE SMOOTH",
"226 707 OFFCURVE",
"124 612 OFFCURVE",
"99 438 CURVE SMOOTH",
"75 268 LINE SMOOTH",
"50 87 OFFCURVE",
"123 -7 OFFCURVE",
"286 -7 CURVE SMOOTH"
);
}
);
width = 625;
}
);
leftKerningGroup = public.kern2.O;
rightKerningGroup = public.kern1.C;
unicode = 0043;
},
{
glyphname = D;
layers = (
{
anchors = (
{
name = bottom;
position = "{316, 0}";
},
{
name = center;
position = "{201, 350}";
},
{
name = top;
position = "{404, 700}";
}
);
layerId = "3C3B4AE3-80BB-44A4-A3CD-A752C08638B1";
paths = (
{
closed = 1;
nodes = (
"2 0 LINE",
"306 0 LINE SMOOTH",
"556 0 OFFCURVE",
"679 90 OFFCURVE",
"708 293 CURVE SMOOTH",
"724 406 LINE SMOOTH",
"752 609 OFFCURVE",
"653 700 OFFCURVE",
"404 700 CURVE SMOOTH",
"100 700 LINE"
);
},
{
closed = 1;
nodes = (
"308 47 LINE",
"393 651 LINE",
"310 510 LINE",
"389 510 LINE SMOOTH",
"420 510 OFFCURVE",
"432 497 OFFCURVE",
"427 463 CURVE SMOOTH",
"395 237 LINE SMOOTH",
"390 203 OFFCURVE",
"376 190 OFFCURVE",
"345 190 CURVE SMOOTH",
"266 190 LINE"
);
}
);
width = 730;
},
{
anchors = (
{
name = bottom;
position = "{294, 0}";
},
{
name = center;
position = "{171, 350}";
},
{
name = top;
position = "{381, 700}";
}
);
layerId = "463395A0-2DFC-45D4-87AF-EBCF54FF53ED";
paths = (
{
closed = 1;
nodes = (
"12 0 LINE",
"291 0 LINE SMOOTH",
"505 0 OFFCURVE",
"611 81 OFFCURVE",
"637 262 CURVE",
"661 437 LINE",
"687 618 OFFCURVE",
"602 700 OFFCURVE",
"389 700 CURVE SMOOTH",
"110 700 LINE"
);
},
{
closed = 1;
nodes = (
"237 35 LINE",
"325 664 LINE",
"264 560 LINE",
"366 560 LINE SMOOTH",
"430 560 OFFCURVE",
"453 533 OFFCURVE",
"443 467 CURVE",
"411 233 LINE",
"401 167 OFFCURVE",
"370 140 OFFCURVE",
"306 140 CURVE SMOOTH",
"204 140 LINE"
);
}
);
width = 675;
},
{
anchors = (
{
name = bottom;
position = "{383, 0}";
},
{
name = center;
position = "{201, 350}";
},
{
name = top;
position = "{466, 700}";
}
);
layerId = "B66266A1-0CD1-42BF-9957-E58294B85305";
paths = (
{
closed = 1;
nodes = (
"2 0 LINE",
"406 0 LINE SMOOTH",
"656 0 OFFCURVE",
"779 90 OFFCURVE",
"808 293 CURVE SMOOTH",
"824 406 LINE SMOOTH",
"852 609 OFFCURVE",
"753 700 OFFCURVE",
"504 700 CURVE SMOOTH",
"100 700 LINE"
);
},
{
closed = 1;
nodes = (
"308 47 LINE",
"393 651 LINE",
"310 510 LINE",
"434 510 LINE SMOOTH",
"509 510 OFFCURVE",
"535 483 OFFCURVE",
"525 413 CURVE SMOOTH",
"507 287 LINE SMOOTH",
"497 217 OFFCURVE",
"465 190 OFFCURVE",
"390 190 CURVE SMOOTH",
"266 190 LINE"
);
}
);
width = 835;
},
{
anchors = (
{
name = bottom;
position = "{367, 0}";
},
{
name = center;
position = "{188, 350}";
},
{
name = top;
position = "{450, 700}";
}
);
layerId = "3B401755-81E4-40F3-BD5E-9424281583CA";
paths = (
{
closed = 1;
nodes = (
"14 0 LINE",
"381 0 LINE SMOOTH",
"620 0 OFFCURVE",
"739 87 OFFCURVE",
"767 285 CURVE SMOOTH",
"785 414 LINE SMOOTH",
"813 612 OFFCURVE",
"718 700 OFFCURVE",
"479 700 CURVE SMOOTH",
"112 700 LINE"
);
},
{
closed = 1;
nodes = (
"269 39 LINE",
"356 659 LINE",
"287 541 LINE",
"421 541 LINE SMOOTH",
"515 541 OFFCURVE",
"548 507 OFFCURVE",
"536 420 CURVE SMOOTH",
"516 280 LINE SMOOTH",
"504 193 OFFCURVE",
"461 159 OFFCURVE",
"367 159 CURVE SMOOTH",
"233 159 LINE"
);
}
);
width = 805;
},
{
anchors = (
{
name = bottom;
position = "{90, 0}";
},
{
name = center;
position = "{63, 350}";
},
{
name = top;
position = "{183, 700}";
}
);
layerId = "3D671699-C126-4AA5-A66F-47C26817AED2";
paths = (
{
closed = 1;
nodes = (
"12 0 LINE",
"93 0 LINE SMOOTH",
"152 0 OFFCURVE",
"188 42 OFFCURVE",
"200 127 CURVE SMOOTH",
"262 573 LINE SMOOTH",
"274 659 OFFCURVE",
"250 700 OFFCURVE",
"191 700 CURVE SMOOTH",
"110 700 LINE"
);
},
{
closed = 1;
nodes = (
"16 3 LINE",
"114 697 LINE",
"113 696 LINE",
"191 696 LINE SMOOTH",
"248 696 OFFCURVE",
"270 656 OFFCURVE",
"258 573 CURVE SMOOTH",
"196 127 LINE SMOOTH",
"184 45 OFFCURVE",
"150 4 OFFCURVE",
"93 4 CURVE SMOOTH",
"15 4 LINE"
);
}
);
width = 265;
},
{
anchors = (
{
name = bottom;
position = "{203, 0}";
},
{
name = center;
position = "{116, 350}";
},
{
name = top;
position = "{293, 700}";
}
);
layerId = "46E74328-601B-43A9-9281-7B741E5F83E4";
paths = (
{
closed = 1;
nodes = (
"37 0 LINE",
"198 0 LINE SMOOTH",
"328 0 OFFCURVE",
"395 60 OFFCURVE",
"414 190 CURVE",
"458 510 LINE",
"477 640 OFFCURVE",
"426 700 OFFCURVE",
"296 700 CURVE SMOOTH",
"135 700 LINE"
);
},
{
closed = 1;
nodes = (
"98 11 LINE",
"194 689 LINE",
"175 650 LINE",
"286 650 LINE SMOOTH",
"377 650 OFFCURVE",
"412 607 OFFCURVE",
"398 510 CURVE SMOOTH",
"354 190 LINE",
"340 94 OFFCURVE",
"293 50 OFFCURVE",
"202 50 CURVE SMOOTH",
"91 50 LINE"
);
}
);
width = 485;
},
{
anchors = (
{
name = bottom;
position = "{288, 0}";
},
{
name = center;
position = "{123, 350}";
},
{
name = top;
position = "{372, 700}";
}
);
layerId = "ECB9DAFA-B085-4474-A032-AB3BEA4F5B4C";
paths = (
{
closed = 1;
nodes = (
"72 0 LINE",
"258 0 LINE SMOOTH",
"445 0 OFFCURVE",
"538 75 OFFCURVE",
"562 244 CURVE SMOOTH",
"592 456 LINE SMOOTH",
"616 625 OFFCURVE",
"543 700 OFFCURVE",
"356 700 CURVE SMOOTH",
"170 700 LINE"
);
},
{
closed = 1;
nodes = (
"76 2 LINE",
"174 698 LINE",
"172 696 LINE",
"356 696 LINE SMOOTH",
"541 696 OFFCURVE",
"611 623 OFFCURVE",
"588 456 CURVE SMOOTH",
"558 244 LINE SMOOTH",
"535 77 OFFCURVE",
"443 4 OFFCURVE",
"258 4 CURVE SMOOTH",
"74 4 LINE"
);
}
);
width = 656;
},
{
anchors = (
{
name = bottom;
position = "{286, 0}";
},
{
name = center;
position = "{131, 350}";
},
{
name = top;
position = "{371, 700}";
}
);
layerId = "287B816B-C6D9-4D62-948A-F2FEA8E41A5A";
paths = (
{
closed = 1;
nodes = (
"52 0 LINE",
"278 0 LINE SMOOTH",
"454 0 OFFCURVE",
"543 71 OFFCURVE",
"565 232 CURVE",
"599 468 LINE",
"621 629 OFFCURVE",
"553 700 OFFCURVE",
"376 700 CURVE SMOOTH",
"150 700 LINE"
);
},
{
closed = 1;
nodes = (
"113 10 LINE",
"209 689 LINE",
"190 650 LINE",
"351 650 LINE SMOOTH",
"506 650 OFFCURVE",
"558 600 OFFCURVE",
"540 468 CURVE",
"506 232 LINE SMOOTH",
"488 101 OFFCURVE",
"422 50 OFFCURVE",
"267 50 CURVE SMOOTH",
"106 50 LINE"
);
}
);
width = 646;
}
);
leftKerningGroup = public.kern2.H;
rightKerningGroup = public.kern1.O;
unicode = 0044;
},
{
glyphname = E;
layers = (
{
anchors = (
{
name = "#entry";
position = "{400, 700}";
},
{
name = bottom;
position = "{263, 0}";
},
{
name = ogonek;
position = "{509, 0}";
},
{
name = top;
position = "{359, 700}";
},
{
name = topleft;
position = "{89, 700}";
}
);
layerId = "3C3B4AE3-80BB-44A4-A3CD-A752C08638B1";
paths = (
{
closed = 1;
nodes = (
"308 43 LINE",
"353 367 LINE",
"270 249 LINE",
"524 249 LINE",
"552 449 LINE",
"298 449 LINE",
"348 331 LINE",
"394 657 LINE",
"305 500 LINE",
"575 500 LINE",
"603 700 LINE",
"100 700 LINE",
"2 0 LINE",
"509 0 LINE",
"537 200 LINE",
"263 200 LINE"
);
}
);
width = 569;
},
{
anchors = (
{
name = "#entry";
position = "{330, 700}";
},
{
name = bottom;
position = "{248, 0}";
},
{
name = ogonek;
position = "{475, 0}";
},
{
name = top;
position = "{345, 700}";
},
{
name = topleft;
position = "{95, 700}";
}
);
layerId = "463395A0-2DFC-45D4-87AF-EBCF54FF53ED";
paths = (
{
closed = 1;
nodes = (
"236 33 LINE",
"282 360 LINE",
"221 275 LINE",
"492 275 LINE",
"513 423 LINE",
"242 423 LINE",
"279 338 LINE",
"326 667 LINE",
"261 553 LINE",
"549 553 LINE",
"569 700 LINE",
"110 700 LINE",
"12 0 LINE",
"475 0 LINE",
"495 147 LINE",
"203 147 LINE"
);
}
);
width = 541;
},
{
anchors = (
{
name = "#entry";
position = "{400, 700}";
},
{
name = bottom;
position = "{316, 0}";
},
{
name = ogonek;
position = "{630, 0}";
},
{
name = top;
position = "{414, 700}";
},
{
name = topleft;
position = "{100, 700}";
}
);
layerId = "B66266A1-0CD1-42BF-9957-E58294B85305";
paths = (
{
closed = 1;
nodes = (
"308 46 LINE",
"352 358 LINE",
"272 249 LINE",
"639 249 LINE",
"667 449 LINE",
"300 449 LINE",
"350 340 LINE",
"394 654 LINE",
"307 500 LINE",
"695 500 LINE",
"723 700 LINE",
"100 700 LINE",
"2 0 LINE",
"630 0 LINE",
"658 200 LINE",
"265 200 LINE"
);
}
);
width = 690;
},
{
anchors = (
{
name = "#entry";
position = "{362, 700}";
},
{
name = bottom;
position = "{307, 0}";
},
{
name = ogonek;
position = "{597, 0}";
},
{
name = top;
position = "{405, 700}";
},
{
name = topleft;
position = "{102, 700}";
}
);
layerId = "3B401755-81E4-40F3-BD5E-9424281583CA";
paths = (
{
closed = 1;
nodes = (
"269 39 LINE",
"314 356 LINE",
"246 266 LINE",
"608 266 LINE",
"632 432 LINE",
"270 432 LINE",
"312 342 LINE",
"357 661 LINE",
"284 533 LINE",
"667 533 LINE",
"690 700 LINE",
"112 700 LINE",
"14 0 LINE",
"597 0 LINE",
"620 167 LINE",
"232 167 LINE"
);
}
);
width = 664;
},
{
anchors = (
{
name = "#entry";
position = "{114, 700}";
},
{
name = bottom;
position = "{86, 0}";
},
{
name = ogonek;
position = "{155, 0}";
},
{
name = top;
position = "{184, 700}";
},
{
name = topleft;
position = "{91, 700}";
}
);
layerId = "3D671699-C126-4AA5-A66F-47C26817AED2";
paths = (
{
closed = 1;
nodes = (
"16 2 LINE",
"65 349 LINE",
"63 347 LINE",
"194 347 LINE",
"194 351 LINE",
"63 351 LINE",
"65 349 LINE",
"114 698 LINE",
"112 696 LINE",
"251 696 LINE",
"251 700 LINE",
"110 700 LINE",
"12 0 LINE",
"155 0 LINE",
"155 4 LINE",
"14 4 LINE"
);
}
);
width = 216;
},
{
anchors = (
{
name = "#entry";
position = "{195, 700}";
},
{
name = bottom;
position = "{182, 0}";
},
{
name = ogonek;
position = "{319, 0}";
},
{
name = top;
position = "{280, 700}";
},
{
name = topleft;
position = "{108, 700}";
}
);
layerId = "46E74328-601B-43A9-9281-7B741E5F83E4";
paths = (
{
closed = 1;
nodes = (
"98 10 LINE",
"146 351 LINE",
"128 324 LINE",
"348 324 LINE",
"355 374 LINE",
"135 374 LINE",
"146 347 LINE",
"194 690 LINE",
"174 646 LINE",
"407 646 LINE",
"414 700 LINE",
"135 700 LINE",
"37 0 LINE",
"319 0 LINE",
"326 54 LINE",
"90 54 LINE"
);
}
);
width = 399;
},
{
anchors = (
{
name = "#entry";
position = "{174, 700}";
},
{
name = bottom;
position = "{261, 0}";
},
{
name = ogonek;
position = "{434, 0}";
},
{
name = top;
position = "{359, 700}";
},
{
name = topleft;
position = "{112, 700}";
}
);
layerId = "ECB9DAFA-B085-4474-A032-AB3BEA4F5B4C";
paths = (
{
closed = 1;
nodes = (
"76 2 LINE",
"125 349 LINE",
"123 347 LINE",
"457 347 LINE",
"457 351 LINE",
"123 351 LINE",
"125 349 LINE",
"174 698 LINE",
"172 696 LINE",
"527 696 LINE",
"527 700 LINE",
"170 700 LINE",
"72 0 LINE",
"434 0 LINE",
"434 4 LINE",
"74 4 LINE"
);
}
);
width = 534;
},
{
anchors = (
{
name = "#entry";
position = "{210, 700}";
},
{
name = bottom;
position = "{254, 0}";
},
{
name = ogonek;
position = "{446, 0}";
},
{
name = top;
position = "{352, 700}";
},
{
name = topleft;
position = "{112, 700}";
}
);
layerId = "287B816B-C6D9-4D62-948A-F2FEA8E41A5A";
paths = (
{
closed = 1;
nodes = (
"113 11 LINE",
"161 348 LINE",
"143 324 LINE",
"468 324 LINE",
"475 374 LINE",
"150 374 LINE",
"161 350 LINE",
"209 689 LINE",
"189 646 LINE",
"533 646 LINE",
"540 700 LINE",
"150 700 LINE",
"52 0 LINE",
"446 0 LINE",
"453 54 LINE",
"105 54 LINE"
);
}
);
width = 534;
}
);
leftKerningGroup = public.kern2.H;
rightKerningGroup = public.kern1.E;
unicode = 0045;
},
{
glyphname = F;
layers = (
{
layerId = "3C3B4AE3-80BB-44A4-A3CD-A752C08638B1";
paths = (
{
closed = 1;
nodes = (
"563 500 LINE",
"591 700 LINE",
"100 700 LINE",
"2 0 LINE",
"302 0 LINE",
"351 347 LINE",
"269 229 LINE",
"504 229 LINE",
"532 429 LINE",
"297 429 LINE",
"346 313 LINE",
"393 652 LINE",
"307 500 LINE"
);
}
);
width = 543;
},
{
layerId = "463395A0-2DFC-45D4-87AF-EBCF54FF53ED";
paths = (
{
closed = 1;
nodes = (
"522 553 LINE",
"542 700 LINE",
"110 700 LINE",
"12 0 LINE",
"232 0 LINE",
"281 348 LINE",
"220 261 LINE",
"462 261 LINE",
"483 408 LINE",
"241 408 LINE",
"277 323 LINE",
"325 664 LINE",
"262 553 LINE"
);
}
);
width = 497;
},
{
layerId = "B66266A1-0CD1-42BF-9957-E58294B85305";
paths = (
{
closed = 1;
nodes = (
"643 500 LINE",
"671 700 LINE",
"100 700 LINE",
"2 0 LINE",
"302 0 LINE",
"351 347 LINE",
"269 229 LINE",
"584 229 LINE",
"612 429 LINE",
"297 429 LINE",
"346 313 LINE",
"393 652 LINE",
"307 500 LINE"
);
}
);
width = 623;
},
{
layerId = "3B401755-81E4-40F3-BD5E-9424281583CA";
paths = (
{
closed = 1;
nodes = (
"616 533 LINE",
"639 700 LINE",
"112 700 LINE",
"14 0 LINE",
"264 0 LINE",
"313 347 LINE",
"244 249 LINE",
"556 249 LINE",
"579 416 LINE",
"267 416 LINE",
"309 319 LINE",
"357 660 LINE",
"284 533 LINE"
);
}
);
width = 595;
},
{
layerId = "3D671699-C126-4AA5-A66F-47C26817AED2";
paths = (
{
closed = 1;
nodes = (
"230 696 LINE",
"230 700 LINE",
"110 700 LINE",
"12 0 LINE",
"16 0 LINE",
"65 349 LINE",
"64 347 LINE",
"174 347 LINE",
"174 351 LINE",
"64 351 LINE",
"65 349 LINE",
"114 698 LINE",
"113 696 LINE"
);
}
);
width = 180;
},
{
layerId = "46E74328-601B-43A9-9281-7B741E5F83E4";
paths = (
{
closed = 1;
nodes = (
"378 646 LINE",
"385 700 LINE",
"135 700 LINE",
"37 0 LINE",
"97 0 LINE",
"146 350 LINE",
"129 321 LINE",
"320 321 LINE",
"327 371 LINE",
"136 371 LINE",
"145 341 LINE",
"192 676 LINE",
"175 646 LINE"
);
}
);
width = 348;
},
{
layerId = "ECB9DAFA-B085-4474-A032-AB3BEA4F5B4C";
paths = (
{
closed = 1;
nodes = (
"484 696 LINE",
"484 700 LINE",
"170 700 LINE",
"72 0 LINE",
"76 0 LINE",
"125 349 LINE",
"123 347 LINE",
"416 347 LINE",
"416 351 LINE",
"123 351 LINE",
"125 349 LINE",
"174 698 LINE",
"172 696 LINE"
);
}
);
width = 457;
},
{
layerId = "287B816B-C6D9-4D62-948A-F2FEA8E41A5A";
paths = (
{
closed = 1;
nodes = (
"485 646 LINE",
"492 700 LINE",
"150 700 LINE",
"52 0 LINE",
"112 0 LINE",
"161 349 LINE",
"143 321 LINE",
"423 321 LINE",
"430 371 LINE",
"150 371 LINE",
"160 342 LINE",
"208 684 LINE",
"189 646 LINE"
);
}
);
width = 459;
}
);
leftKerningGroup = public.kern2.H;
rightKerningGroup = public.kern1.F;
unicode = 0046;
},
{
glyphname = G;
layers = (
{
anchors = (
{
name = bottom;
position = "{317, 0}";
},
{
name = top;
position = "{414, 700}";
}
);
layerId = "3C3B4AE3-80BB-44A4-A3CD-A752C08638B1";
paths = (
{
closed = 1;
nodes = (
"444 -15 OFFCURVE",
"552 89 OFFCURVE",
"573 256 CURVE",
"390 237 LINE",
"384 195 OFFCURVE",
"371 175 OFFCURVE",
"346 175 CURVE SMOOTH",
"322 175 OFFCURVE",
"314 192 OFFCURVE",
"320 237 CURVE SMOOTH",
"350 453 LINE",
"357 498 OFFCURVE",
"369 515 OFFCURVE",
"394 515 CURVE SMOOTH",
"417 515 OFFCURVE",
"424 493 OFFCURVE",
"419 445 CURVE",
"706 476 LINE",
"713 625 OFFCURVE",
"596 715 OFFCURVE",
"398 715 CURVE SMOOTH",
"206 715 OFFCURVE",
"73 611 OFFCURVE",
"49 444 CURVE SMOOTH",
"23 256 LINE SMOOTH",
"-2 79 OFFCURVE",
"92 -15 OFFCURVE",
"251 -15 CURVE SMOOTH"
);
},
{
closed = 1;
nodes = (
"487 1 LINE",
"646 1 LINE",
"703 410 LINE",
"369 410 LINE",
"345 238 LINE",
"484 238 LINE",
"405 346 LINE",
"388 223 LINE"
);
}
);
width = 718;
},
{
anchors = (
{
name = bottom;
position = "{293, 0}";
},
{
name = top;
position = "{391, 700}";
}
);
layerId = "463395A0-2DFC-45D4-87AF-EBCF54FF53ED";
paths = (
{
closed = 1;
nodes = (
"416 -12 OFFCURVE",
"515 80 OFFCURVE",
"536 233 CURVE",
"403 230 LINE",
"393 163 OFFCURVE",
"364 127 OFFCURVE",
"312 127 CURVE SMOOTH",
"260 127 OFFCURVE",
"242 162 OFFCURVE",
"251 232 CURVE",
"284 462 LINE SMOOTH",
"294 532 OFFCURVE",
"321 565 OFFCURVE",
"374 565 CURVE SMOOTH",
"419 565 OFFCURVE",
"438 536 OFFCURVE",
"436 475 CURVE",
"646 498 LINE",
"651 634 OFFCURVE",
"554 712 OFFCURVE",
"384 712 CURVE SMOOTH",
"206 712 OFFCURVE",
"86 617 OFFCURVE",
"63 460 CURVE",
"33 242 LINE",
"9 75 OFFCURVE",
"93 -12 OFFCURVE",
"244 -12 CURVE SMOOTH"
);
},
{
closed = 1;
nodes = (
"466 1 LINE",
"583 1 LINE",
"638 393 LINE",
"344 393 LINE",
"326 266 LINE",
"477 266 LINE",
"419 346 LINE",
"400 205 LINE"
);
}
);
width = 663;
},
{
anchors = (
{
name = bottom;
position = "{382, 0}";
},
{
name = top;
position = "{480, 700}";
}
);
guideLines = (
{
angle = 91.051;
position = "{713, 1}";
}
);
layerId = "B66266A1-0CD1-42BF-9957-E58294B85305";
paths = (
{
closed = 1;
nodes = (
"534 -15 OFFCURVE",
"654 89 OFFCURVE",
"678 256 CURVE",
"502 285 LINE",
"492 217 OFFCURVE",
"465 175 OFFCURVE",
"401 175 CURVE SMOOTH",
"337 175 OFFCURVE",
"322 217 OFFCURVE",
"332 285 CURVE SMOOTH",
"349 405 LINE SMOOTH",
"359 475 OFFCURVE",
"385 515 OFFCURVE",
"449 515 CURVE SMOOTH",
"502 515 OFFCURVE",
"523 490 OFFCURVE",
"522 445 CURVE",
"809 476 LINE",
"814 625 OFFCURVE",
"692 715 OFFCURVE",
"482 715 CURVE SMOOTH",
"239 715 OFFCURVE",
"76 599 OFFCURVE",
"50 414 CURVE SMOOTH",
"32 286 LINE SMOOTH",
"4 89 OFFCURVE",
"118 -15 OFFCURVE",
"316 -15 CURVE SMOOTH"
);
},
{
closed = 1;
nodes = (
"592 1 LINE",
"751 1 LINE",
"808 410 LINE",
"433 410 LINE",
"409 238 LINE",
"589 238 LINE",
"510 346 LINE",
"493 223 LINE"
);
}
);
width = 823;
},
{
anchors = (
{
name = bottom;
position = "{363, 0}";
},
{
name = top;
position = "{462, 700}";
}
);
layerId = "3B401755-81E4-40F3-BD5E-9424281583CA";
paths = (
{
closed = 1;
nodes = (
"513 -13 OFFCURVE",
"630 86 OFFCURVE",
"653 248 CURVE",
"506 272 LINE",
"495 193 OFFCURVE",
"456 145 OFFCURVE",
"379 145 CURVE SMOOTH",
"301 145 OFFCURVE",
"278 194 OFFCURVE",
"290 278 CURVE SMOOTH",
"309 415 LINE SMOOTH",
"321 499 OFFCURVE",
"359 546 OFFCURVE",
"437 546 CURVE SMOOTH",
"501 546 OFFCURVE",
"527 517 OFFCURVE",
"529 462 CURVE",
"767 488 LINE",
"770 630 OFFCURVE",
"659 713 OFFCURVE",
"464 713 CURVE SMOOTH",
"237 713 OFFCURVE",
"86 603 OFFCURVE",
"60 422 CURVE SMOOTH",
"40 279 LINE SMOOTH",
"13 87 OFFCURVE",
"118 -13 OFFCURVE",
"308 -13 CURVE SMOOTH"
);
},
{
closed = 1;
nodes = (
"576 1 LINE",
"708 1 LINE",
"764 401 LINE",
"415 401 LINE",
"395 257 LINE",
"582 257 LINE",
"517 347 LINE",
"498 216 LINE"
);
}
);
width = 790;
},
{
anchors = (
{
name = bottom;
position = "{91, 0}";
},
{
name = top;
position = "{189, 700}";
}
);
layerId = "3D671699-C126-4AA5-A66F-47C26817AED2";
paths = (
{
closed = 1;
nodes = (
"142 -5 OFFCURVE",
"177 41 OFFCURVE",
"195 138 CURVE",
"191 138 LINE",
"173 42 OFFCURVE",
"141 -1 OFFCURVE",
"89 -1 CURVE SMOOTH",
"37 -1 OFFCURVE",
"16 40 OFFCURVE",
"28 122 CURVE SMOOTH",
"92 578 LINE SMOOTH",
"103 659 OFFCURVE",
"136 701 OFFCURVE",
"187 701 CURVE SMOOTH",
"238 701 OFFCURVE",
"259 658 OFFCURVE",
"252 568 CURVE",
"256 568 LINE",
"264 661 OFFCURVE",
"242 705 OFFCURVE",
"188 705 CURVE SMOOTH",
"134 705 OFFCURVE",
"100 661 OFFCURVE",
"88 578 CURVE SMOOTH",
"24 122 LINE SMOOTH",
"12 38 OFFCURVE",
"34 -5 OFFCURVE",
"88 -5 CURVE SMOOTH"
);
},
{
closed = 1;
nodes = (
"174 0 LINE",
"176 0 LINE",
"224 342 LINE",
"133 342 LINE",
"132 338 LINE",
"220 338 LINE",
"219 339 LINE",
"191 138 LINE"
);
}
);
width = 257;
},
{
anchors = (
{
name = bottom;
position = "{195, 0}";
},
{
name = top;
position = "{294, 700}";
}
);
layerId = "46E74328-601B-43A9-9281-7B741E5F83E4";
paths = (
{
closed = 1;
nodes = (
"290 -7 OFFCURVE",
"353 58 OFFCURVE",
"372 180 CURVE",
"334 180 LINE",
"319 92 OFFCURVE",
"273 47 OFFCURVE",
"199 47 CURVE SMOOTH",
"121 47 OFFCURVE",
"93 88 OFFCURVE",
"107 183 CURVE SMOOTH",
"154 519 LINE SMOOTH",
"167 612 OFFCURVE",
"209 653 OFFCURVE",
"287 653 CURVE SMOOTH",
"353 653 OFFCURVE",
"384 615 OFFCURVE",
"382 538 CURVE",
"440 544 LINE",
"443 651 OFFCURVE",
"393 707 OFFCURVE",
"294 707 CURVE SMOOTH",
"182 707 OFFCURVE",
"111 640 OFFCURVE",
"94 519 CURVE SMOOTH",
"47 183 LINE SMOOTH",
"29 59 OFFCURVE",
"80 -7 OFFCURVE",
"192 -7 CURVE SMOOTH"
);
},
{
closed = 1;
nodes = (
"337 0 LINE",
"369 0 LINE",
"419 358 LINE",
"242 358 LINE",
"235 308 LINE",
"372 308 LINE",
"357 344 LINE",
"332 166 LINE"
);
}
);
width = 471;
},
{
anchors = (
{
name = bottom;
position = "{278, 0}";
},
{
name = top;
position = "{382, 700}";
}
);
guideLines = (
{
angle = 91.051;
position = "{468, 0}";
}
);
layerId = "ECB9DAFA-B085-4474-A032-AB3BEA4F5B4C";
paths = (
{
closed = 1;
nodes = (
"420 -5 OFFCURVE",
"515 74 OFFCURVE",
"534 209 CURVE",
"531 209 LINE",
"512 76 OFFCURVE",
"419 -1 OFFCURVE",
"278 -1 CURVE SMOOTH",
"131 -1 OFFCURVE",
"68 80 OFFCURVE",
"91 246 CURVE SMOOTH",
"122 464 LINE SMOOTH",
"144 620 OFFCURVE",
"232 701 OFFCURVE",
"380 701 CURVE SMOOTH",
"498 701 OFFCURVE",
"560 649 OFFCURVE",
"568 544 CURVE",
"572 545 LINE",
"563 652 OFFCURVE",
"500 705 OFFCURVE",
"381 705 CURVE SMOOTH",
"231 705 OFFCURVE",
"140 622 OFFCURVE",
"118 464 CURVE SMOOTH",
"87 246 LINE SMOOTH",
"64 79 OFFCURVE",
"127 -5 OFFCURVE",
"277 -5 CURVE SMOOTH"
);
},
{
closed = 1;
nodes = (
"504 0 LINE",
"506 0 LINE",
"556 354 LINE",
"331 354 LINE",
"330 350 LINE",
"553 350 LINE",
"551 352 LINE",
"527 181 LINE"
);
}
);
width = 638;
},
{
anchors = (
{
name = bottom;
position = "{279, 0}";
},
{
name = top;
position = "{380, 700}";
}
);
layerId = "287B816B-C6D9-4D62-948A-F2FEA8E41A5A";
paths = (
{
closed = 1;
nodes = (
"406 -7 OFFCURVE",
"504 77 OFFCURVE",
"522 205 CURVE",
"486 226 LINE",
"468 109 OFFCURVE",
"397 47 OFFCURVE",
"281 47 CURVE SMOOTH",
"159 47 OFFCURVE",
"112 107 OFFCURVE",
"130 236 CURVE SMOOTH",
"163 469 LINE SMOOTH",
"180 593 OFFCURVE",
"249 653 OFFCURVE",
"370 653 CURVE SMOOTH",
"468 653 OFFCURVE",
"518 611 OFFCURVE",
"522 523 CURVE",
"580 529 LINE",
"577 646 OFFCURVE",
"508 707 OFFCURVE",
"377 707 CURVE SMOOTH",
"222 707 OFFCURVE",
"124 623 OFFCURVE",
"103 469 CURVE SMOOTH",
"70 236 LINE SMOOTH",
"47 76 OFFCURVE",
"118 -7 OFFCURVE",
"274 -7 CURVE SMOOTH"
);
},
{
closed = 1;
nodes = (
"484 0 LINE",
"514 0 LINE",
"564 358 LINE",
"328 358 LINE",
"321 308 LINE",
"516 308 LINE",
"502 343 LINE",
"479 181 LINE"
);
}
);
width = 629;
}
);
leftKerningGroup = public.kern2.O;
rightKerningGroup = public.kern1.G;
unicode = 0047;
},
{
glyphname = H;
layers = (
{
anchors = (
{
name = bottom;
position = "{332, 0}";
},
{
name = center;
position = "{412, 570}";
},
{
name = top;
position = "{430, 700}";
},
{
name = topleft;
position = "{80, 700}";
}
);
layerId = "3C3B4AE3-80BB-44A4-A3CD-A752C08638B1";
paths = (
{
closed = 1;
nodes = (
"2 0 LINE",
"302 0 LINE",
"353 367 LINE",
"270 249 LINE",
"464 249 LINE",
"413 367 LINE",
"362 0 LINE",
"662 0 LINE",
"760 700 LINE",
"460 700 LINE",
"408 331 LINE",
"492 449 LINE",
"298 449 LINE",
"348 331 LINE",
"400 700 LINE",
"100 700 LINE"
);
}
);
width = 740;
},
{
anchors = (
{
name = bottom;
position = "{313, 0}";
},
{
name = center;
position = "{392, 562}";
},
{
name = top;
position = "{411, 700}";
},
{
name = topleft;
position = "{86, 700}";
}
);
layerId = "463395A0-2DFC-45D4-87AF-EBCF54FF53ED";
paths = (
{
closed = 1;
nodes = (
"12 0 LINE",
"232 0 LINE",
"283 362 LINE",
"221 275 LINE",
"480 275 LINE",
"445 362 LINE",
"394 0 LINE",
"614 0 LINE",
"712 700 LINE",
"492 700 LINE",
"441 337 LINE",
"501 423 LINE",
"242 423 LINE",
"279 337 LINE",
"330 700 LINE",
"110 700 LINE"
);
}
);
width = 702;
},
{
anchors = (
{
name = bottom;
position = "{407, 0}";
},
{
name = center;
position = "{487, 570}";
},
{
name = top;
position = "{505, 700}";
},
{
name = topleft;
position = "{91, 700}";
}
);
layerId = "B66266A1-0CD1-42BF-9957-E58294B85305";
paths = (
{
closed = 1;
nodes = (
"2 0 LINE",
"302 0 LINE",
"353 367 LINE",
"272 249 LINE",
"612 249 LINE",
"563 367 LINE",
"512 0 LINE",
"812 0 LINE",
"910 700 LINE",
"610 700 LINE",
"559 333 LINE",
"640 449 LINE",
"300 449 LINE",
"349 333 LINE",
"400 700 LINE",
"100 700 LINE"
);
}
);
width = 890;
},
{
anchors = (
{
name = bottom;
position = "{392, 0}";
},
{
name = center;
position = "{471, 565}";
},
{
name = top;
position = "{490, 700}";
},
{
name = topleft;
position = "{92, 700}";
}
);
layerId = "3B401755-81E4-40F3-BD5E-9424281583CA";
paths = (
{
closed = 1;
nodes = (
"14 0 LINE",
"264 0 LINE",
"315 364 LINE",
"246 266 LINE",
"611 266 LINE",
"571 364 LINE",
"520 0 LINE",
"770 0 LINE",
"868 700 LINE",
"618 700 LINE",
"567 336 LINE",
"635 432 LINE",
"270 432 LINE",
"311 336 LINE",
"362 700 LINE",
"112 700 LINE"
);
}
);
width = 860;
},
{
anchors = (
{
name = bottom;
position = "{95, 0}";
},
{
name = center;
position = "{171, 540}";
},
{
name = top;
position = "{193, 700}";
},
{
name = topleft;
position = "{86, 700}";
}
);
layerId = "3D671699-C126-4AA5-A66F-47C26817AED2";
paths = (
{
closed = 1;
nodes = (
"12 0 LINE",
"16 0 LINE",
"65 348 LINE",
"64 347 LINE",
"224 347 LINE",
"223 348 LINE",
"174 0 LINE",
"178 0 LINE",
"276 700 LINE",
"272 700 LINE",
"223 350 LINE",
"224 351 LINE",
"64 351 LINE",
"65 350 LINE",
"114 700 LINE",
"110 700 LINE"
);
}
);
width = 266;
},
{
anchors = (
{
name = bottom;
position = "{219, 0}";
},
{
name = center;
position = "{296, 546}";
},
{
name = top;
position = "{317, 700}";
},
{
name = topleft;
position = "{100, 700}";
}
);
layerId = "46E74328-601B-43A9-9281-7B741E5F83E4";
paths = (
{
closed = 1;
nodes = (
"37 0 LINE",
"97 0 LINE",
"146 353 LINE",
"129 324 LINE",
"398 324 LINE",
"390 353 LINE",
"341 0 LINE",
"401 0 LINE",
"499 700 LINE",
"439 700 LINE",
"390 347 LINE",
"405 374 LINE",
"136 374 LINE",
"146 347 LINE",
"195 700 LINE",
"135 700 LINE"
);
}
);
width = 514;
},
{
anchors = (
{
name = bottom;
position = "{320, 0}";
},
{
name = center;
position = "{396, 540}";
},
{
name = top;
position = "{418, 700}";
},
{
name = topleft;
position = "{99, 700}";
}
);
layerId = "ECB9DAFA-B085-4474-A032-AB3BEA4F5B4C";
paths = (
{
closed = 1;
nodes = (
"72 0 LINE",
"76 0 LINE",
"125 349 LINE",
"123 347 LINE",
"615 347 LINE",
"613 349 LINE",
"564 0 LINE",
"568 0 LINE",
"666 700 LINE",
"662 700 LINE",
"613 349 LINE",
"615 351 LINE",
"123 351 LINE",
"125 349 LINE",
"174 700 LINE",
"170 700 LINE"
);
}
);
width = 716;
},
{
anchors = (
{
name = bottom;
position = "{314, 0}";
},
{
name = center;
position = "{391, 546}";
},
{
name = top;
position = "{412, 700}";
},
{
name = topleft;
position = "{101, 700}";
}
);
layerId = "287B816B-C6D9-4D62-948A-F2FEA8E41A5A";
paths = (
{
closed = 1;
nodes = (
"52 0 LINE",
"112 0 LINE",
"162 354 LINE",
"143 324 LINE",
"573 324 LINE",
"566 354 LINE",
"516 0 LINE",
"576 0 LINE",
"674 700 LINE",
"614 700 LINE",
"565 347 LINE",
"580 374 LINE",
"150 374 LINE",
"161 347 LINE",
"210 700 LINE",
"150 700 LINE"
);
}
);
width = 704;
}
);
leftKerningGroup = public.kern2.H;
rightKerningGroup = public.kern1.H;
unicode = 0048;
},
{
glyphname = I;
layers = (
{
anchors = (
{
name = bottom;
position = "{152, 0}";
},
{
name = ogonek;
position = "{302, 0}";
},
{
name = top;
position = "{250, 700}";
},
{
name = topleft;
position = "{100, 700}";
}
);
layerId = "3C3B4AE3-80BB-44A4-A3CD-A752C08638B1";
paths = (
{
closed = 1;
nodes = (
"100 700 LINE",
"2 0 LINE",
"302 0 LINE",
"400 700 LINE"
);
}
);
width = 380;
},
{
anchors = (
{
name = bottom;
position = "{122, 0}";
},
{
name = ogonek;
position = "{232, 0}";
},
{
name = top;
position = "{220, 700}";
},
{
name = topleft;
position = "{85, 700}";
}
);
layerId = "463395A0-2DFC-45D4-87AF-EBCF54FF53ED";
paths = (
{
closed = 1;
nodes = (
"110 700 LINE",
"12 0 LINE",
"232 0 LINE",
"330 700 LINE"
);
}
);
width = 320;
},
{
anchors = (
{
name = bottom;
position = "{152, 0}";
},
{
name = ogonek;
position = "{302, 0}";
},
{
name = top;
position = "{250, 700}";
},
{
name = topleft;
position = "{100, 700}";
}
);
layerId = "B66266A1-0CD1-42BF-9957-E58294B85305";
paths = (
{
closed = 1;
nodes = (
"100 700 LINE",
"2 0 LINE",
"302 0 LINE",
"400 700 LINE"
);
}
);
width = 380;
},
{
anchors = (
{
name = bottom;
position = "{139, 0}";
},
{
name = ogonek;
position = "{264, 0}";
},
{
name = top;
position = "{237, 700}";
},
{
name = topleft;
position = "{95, 700}";
}
);
layerId = "3B401755-81E4-40F3-BD5E-9424281583CA";
paths = (
{
closed = 1;
nodes = (
"112 700 LINE",
"14 0 LINE",
"264 0 LINE",
"362 700 LINE"
);
}
);
width = 354;
},
{
anchors = (
{
name = bottom;
position = "{14, 0}";
},
{
name = ogonek;
position = "{16, 0}";
},
{
name = top;
position = "{112, 700}";
},
{
name = topleft;
position = "{28, 700}";
}
);
layerId = "3D671699-C126-4AA5-A66F-47C26817AED2";
paths = (
{
closed = 1;
nodes = (
"110 700 LINE",
"12 0 LINE",
"16 0 LINE",
"114 700 LINE"
);
}
);
width = 104;
},
{
anchors = (
{
name = bottom;
position = "{67, 0}";
},
{
name = ogonek;
position = "{97, 0}";
},
{
name = top;
position = "{165, 700}";
},
{
name = topleft;
position = "{64, 700}";
}
);
layerId = "46E74328-601B-43A9-9281-7B741E5F83E4";
paths = (
{
closed = 1;
nodes = (
"135 700 LINE",
"37 0 LINE",
"97 0 LINE",
"195 700 LINE"
);
}
);
width = 210;
},
{
anchors = (
{
name = bottom;
position = "{74, 0}";
},
{
name = ogonek;
position = "{76, 0}";
},
{
name = top;
position = "{172, 700}";
},
{
name = topleft;
position = "{68, 700}";
}
);
layerId = "ECB9DAFA-B085-4474-A032-AB3BEA4F5B4C";
paths = (
{
closed = 1;
nodes = (
"170 700 LINE",
"72 0 LINE",
"76 0 LINE",
"174 700 LINE"
);
}
);
width = 224;
},
{
anchors = (
{
name = bottom;
position = "{82, 0}";
},
{
name = ogonek;
position = "{112, 0}";
},
{
name = top;
position = "{180, 700}";
},
{
name = topleft;
position = "{71, 700}";
}
);
layerId = "287B816B-C6D9-4D62-948A-F2FEA8E41A5A";
paths = (
{
closed = 1;
nodes = (
"150 700 LINE",
"52 0 LINE",
"112 0 LINE",
"210 700 LINE"
);
}
);
width = 240;
}
);
leftKerningGroup = public.kern2.H;
rightKerningGroup = public.kern1.H;
unicode = 0049;
},
{
glyphname = J;
layers = (
{
anchors = (
{
name = bottom;
position = "{266, 0}";
},
{
name = top;
position = "{556, 700}";
}
);
guideLines = (
{
angle = 185;
position = "{47, 164}";
}
);
layerId = "3C3B4AE3-80BB-44A4-A3CD-A752C08638B1";
paths = (
{
closed = 1;
nodes = (
"480 -15 OFFCURVE",
"622 100 OFFCURVE",
"648 286 CURVE SMOOTH",
"706 700 LINE",
"406 700 LINE",
"341 235 LINE SMOOTH",
"336 201 OFFCURVE",
"324 185 OFFCURVE",
"303 185 CURVE SMOOTH",
"279 185 OFFCURVE",
"275 204 OFFCURVE",
"286 278 CURVE",
"1 246 LINE",
"-21 85 OFFCURVE",
"83 -15 OFFCURVE",
"275 -15 CURVE SMOOTH"
);
}
);
width = 684;
},
{
anchors = (
{
name = bottom;
position = "{227, 0}";
},
{
name = top;
position = "{497, 700}";
}
);
layerId = "463395A0-2DFC-45D4-87AF-EBCF54FF53ED";
paths = (
{
closed = 1;
nodes = (
"403 -12 OFFCURVE",
"521 86 OFFCURVE",
"544 252 CURVE SMOOTH",
"607 700 LINE",
"387 700 LINE",
"320 219 LINE",
"311 161 OFFCURVE",
"289 135 OFFCURVE",
"249 135 CURVE SMOOTH",
"209 135 OFFCURVE",
"196 166 OFFCURVE",
"207 252 CURVE",
"-1 228 LINE",
"-22 76 OFFCURVE",
"64 -12 OFFCURVE",
"228 -12 CURVE SMOOTH"
);
}
);
width = 594;
},
{
anchors = (
{
name = bottom;
position = "{306, 0}";
},
{
name = top;
position = "{596, 700}";
}
);
layerId = "B66266A1-0CD1-42BF-9957-E58294B85305";
paths = (
{
closed = 1;
nodes = (
"512 -15 OFFCURVE",
"662 100 OFFCURVE",
"688 286 CURVE SMOOTH",
"746 700 LINE",
"446 700 LINE",
"384 255 LINE SMOOTH",
"377 207 OFFCURVE",
"358 185 OFFCURVE",
"323 185 CURVE SMOOTH",
"288 185 OFFCURVE",
"277 214 OFFCURVE",
"286 278 CURVE",
"1 246 LINE",
"-21 84 OFFCURVE",
"91 -15 OFFCURVE",
"295 -15 CURVE SMOOTH"
);
}
);
width = 724;
},
{
anchors = (
{
name = bottom;
position = "{280, 0}";
},
{
name = top;
position = "{568, 700}";
}
);
layerId = "3B401755-81E4-40F3-BD5E-9424281583CA";
paths = (
{
closed = 1;
nodes = (
"471 -13 OFFCURVE",
"608 94 OFFCURVE",
"633 271 CURVE SMOOTH",
"693 700 LINE",
"443 700 LINE",
"379 246 LINE",
"371 183 OFFCURVE",
"343 154 OFFCURVE",
"293 154 CURVE SMOOTH",
"245 154 OFFCURVE",
"228 191 OFFCURVE",
"238 268 CURVE",
"1 242 LINE",
"-21 82 OFFCURVE",
"81 -13 OFFCURVE",
"270 -13 CURVE SMOOTH"
);
}
);
width = 682;
},
{
anchors = (
{
name = bottom;
position = "{38, 0}";
},
{
name = top;
position = "{204, 700}";
}
);
guideLines = (
{
angle = 185;
position = "{96, 108}";
}
);
layerId = "3D671699-C126-4AA5-A66F-47C26817AED2";
paths = (
{
closed = 1;
nodes = (
"87 -5 OFFCURVE",
"112 33 OFFCURVE",
"126 129 CURVE SMOOTH",
"206 700 LINE",
"202 700 LINE",
"122 129 LINE SMOOTH",
"109 35 OFFCURVE",
"85 -1 OFFCURVE",
"38 -1 CURVE SMOOTH",
"-8 -1 OFFCURVE",
"-21 39 OFFCURVE",
"-8 150 CURVE",
"-12 150 LINE",
"-25 36 OFFCURVE",
"-12 -5 OFFCURVE",
"37 -5 CURVE SMOOTH"
);
}
);
width = 194;
},
{
anchors = (
{
name = bottom;
position = "{118, 0}";
},
{
name = top;
position = "{339, 700}";
}
);
layerId = "46E74328-601B-43A9-9281-7B741E5F83E4";
paths = (
{
closed = 1;
nodes = (
"220 -7 OFFCURVE",
"277 53 OFFCURVE",
"295 178 CURVE SMOOTH",
"368 700 LINE",
"308 700 LINE",
"234 170 LINE",
"221 82 OFFCURVE",
"191 48 OFFCURVE",
"125 48 CURVE SMOOTH",
"64 48 OFFCURVE",
"43 92 OFFCURVE",
"54 193 CURVE",
"-4 187 LINE",
"-19 58 OFFCURVE",
"21 -7 OFFCURVE",
"117 -7 CURVE SMOOTH"
);
}
);
width = 379;
},
{
anchors = (
{
name = bottom;
position = "{157, 0}";
},
{
name = top;
position = "{436, 700}";
}
);
guideLines = (
{
angle = 185;
position = "{70, 178}";
}
);
layerId = "ECB9DAFA-B085-4474-A032-AB3BEA4F5B4C";
paths = (
{
closed = 1;
nodes = (
"277 -5 OFFCURVE",
"349 63 OFFCURVE",
"368 199 CURVE SMOOTH",
"438 700 LINE",
"434 700 LINE",
"364 199 LINE SMOOTH",
"345 65 OFFCURVE",
"275 -1 OFFCURVE",
"153 -1 CURVE SMOOTH",
"42 -1 OFFCURVE",
"-8 75 OFFCURVE",
"8 220 CURVE",
"4 220 LINE",
"-12 72 OFFCURVE",
"39 -5 OFFCURVE",
"152 -5 CURVE SMOOTH"
);
}
);
width = 483;
},
{
anchors = (
{
name = bottom;
position = "{171, 0}";
},
{
name = top;
position = "{432, 700}";
}
);
layerId = "287B816B-C6D9-4D62-948A-F2FEA8E41A5A";
paths = (
{
closed = 1;
nodes = (
"294 -7 OFFCURVE",
"372 64 OFFCURVE",
"391 203 CURVE SMOOTH",
"461 700 LINE",
"401 700 LINE",
"331 203 LINE SMOOTH",
"316 93 OFFCURVE",
"267 47 OFFCURVE",
"170 47 CURVE SMOOTH",
"82 47 OFFCURVE",
"45 103 OFFCURVE",
"58 218 CURVE",
"1 213 LINE",
"-14 69 OFFCURVE",
"41 -7 OFFCURVE",
"163 -7 CURVE SMOOTH"
);
}
);
width = 487;
}
);
leftKerningGroup = public.kern2.J;
rightKerningGroup = public.kern1.J;
unicode = 004A;
},
{
glyphname = K;
layers = (
{
anchors = (
{
name = bottom;
position = "{337, 0}";
},
{
name = top;
position = "{435, 700}";
}
);
guideLines = (
{
angle = 235.033;
position = "{550, 700}";
}
);
layerId = "3C3B4AE3-80BB-44A4-A3CD-A752C08638B1";
paths = (
{
closed = 1;
nodes = (
"306 98 LINE",
"811 700 LINE",
"481 700 LINE",
"92 236 LINE"
);
},
{
closed = 1;
nodes = (
"2 0 LINE",
"321 0 LINE",
"400 700 LINE",
"100 700 LINE"
);
},
{
closed = 1;
nodes = (
"394 0 LINE",
"702 0 LINE",
"559 483 LINE",
"311 300 LINE"
);
}
);
width = 757;
},
{
anchors = (
{
name = bottom;
position = "{301, 0}";
},
{
name = top;
position = "{395, 700}";
}
);
layerId = "463395A0-2DFC-45D4-87AF-EBCF54FF53ED";
paths = (
{
closed = 1;
nodes = (
"245 128 LINE",
"721 700 LINE",
"475 700 LINE",
"83 224 LINE"
);
},
{
closed = 1;
nodes = (
"12 0 LINE",
"241 0 LINE",
"330 700 LINE",
"110 700 LINE"
);
},
{
closed = 1;
nodes = (
"389 0 LINE",
"619 0 LINE",
"469 448 LINE",
"285 318 LINE"
);
}
);
width = 668;
},
{
anchors = (
{
name = bottom;
position = "{377, 0}";
},
{
name = top;
position = "{475, 700}";
}
);
guideLines = (
{
angle = 297.419;
position = "{501, 0}";
}
);
layerId = "B66266A1-0CD1-42BF-9957-E58294B85305";
paths = (
{
closed = 1;
nodes = (
"316 98 LINE",
"880 700 LINE",
"534 700 LINE",
"83 214 LINE"
);
},
{
closed = 1;
nodes = (
"2 0 LINE",
"302 0 LINE",
"400 700 LINE",
"100 700 LINE"
);
},
{
closed = 1;
nodes = (
"461 0 LINE",
"785 0 LINE",
"587 433 LINE",
"330 270 LINE"
);
}
);
width = 829;
},
{
anchors = (
{
name = bottom;
position = "{359, 0}";
},
{
name = top;
position = "{453, 700}";
}
);
layerId = "3B401755-81E4-40F3-BD5E-9424281583CA";
paths = (
{
closed = 1;
nodes = (
"281 119 LINE",
"833 700 LINE",
"544 700 LINE",
"87 216 LINE"
);
},
{
closed = 1;
nodes = (
"14 0 LINE",
"264 0 LINE",
"362 700 LINE",
"112 700 LINE"
);
},
{
closed = 1;
nodes = (
"468 0 LINE",
"738 0 LINE",
"537 428 LINE",
"323 292 LINE"
);
}
);
width = 784;
},
{
anchors = (
{
name = bottom;
position = "{90, 0}";
},
{
name = top;
position = "{179, 700}";
}
);
layerId = "3D671699-C126-4AA5-A66F-47C26817AED2";
paths = (
{
closed = 1;
nodes = (
"43 197 LINE",
"274 700 LINE",
"270 700 LINE",
"40 198 LINE"
);
},
{
closed = 1;
nodes = (
"12 0 LINE",
"16 0 LINE",
"114 700 LINE",
"110 700 LINE"
);
},
{
closed = 1;
nodes = (
"175 0 LINE",
"179 0 LINE",
"131 390 LINE",
"127 386 LINE"
);
}
);
width = 225;
},
{
anchors = (
{
name = bottom;
position = "{201, 0}";
},
{
name = top;
position = "{287, 700}";
}
);
layerId = "46E74328-601B-43A9-9281-7B741E5F83E4";
paths = (
{
closed = 1;
nodes = (
"82 127 LINE",
"481 700 LINE",
"416 700 LINE",
"97 241 LINE"
);
},
{
closed = 1;
nodes = (
"37 0 LINE",
"97 0 LINE",
"195 700 LINE",
"135 700 LINE"
);
},
{
closed = 1;
nodes = (
"323 0 LINE",
"385 0 LINE",
"265 432 LINE",
"220 371 LINE"
);
}
);
width = 434;
},
{
anchors = (
{
name = bottom;
position = "{272, 0}";
},
{
name = top;
position = "{344, 700}";
}
);
layerId = "ECB9DAFA-B085-4474-A032-AB3BEA4F5B4C";
paths = (
{
closed = 1;
nodes = (
"107 224 LINE",
"599 700 LINE",
"594 700 LINE",
"106 228 LINE"
);
},
{
closed = 1;
nodes = (
"72 0 LINE",
"76 0 LINE",
"174 700 LINE",
"170 700 LINE"
);
},
{
closed = 1;
nodes = (
"503 0 LINE",
"508 0 LINE",
"290 403 LINE",
"287 401 LINE"
);
}
);
width = 563;
},
{
anchors = (
{
name = bottom;
position = "{270, 0}";
},
{
name = top;
position = "{350, 700}";
}
);
layerId = "287B816B-C6D9-4D62-948A-F2FEA8E41A5A";
paths = (
{
closed = 1;
nodes = (
"88 139 LINE",
"610 700 LINE",
"537 700 LINE",
"101 230 LINE"
);
},
{
closed = 1;
nodes = (
"52 0 LINE",
"112 0 LINE",
"210 700 LINE",
"150 700 LINE"
);
},
{
closed = 1;
nodes = (
"452 0 LINE",
"519 0 LINE",
"319 422 LINE",
"271 381 LINE"
);
}
);
width = 571;
}
);
leftKerningGroup = public.kern2.H;
rightKerningGroup = public.kern1.K;
unicode = 004B;
},
{
glyphname = L;
layers = (
{
anchors = (
{
name = bottom;
position = "{246, 0}";
},
{
name = center;
position = "{205, 380}";
},
{
name = top;
position = "{250, 700}";
},
{
name = topright;
position = "{438, 540}";
}
);
guideLines = (
{
angle = 110.506;
position = "{484, 450}";
}
);
layerId = "3C3B4AE3-80BB-44A4-A3CD-A752C08638B1";
paths = (
{
closed = 1;
nodes = (
"308 43 LINE",
"400 700 LINE",
"100 700 LINE",
"2 0 LINE",
"489 0 LINE",
"517 200 LINE",
"263 200 LINE"
);
}
);
width = 531;
},
{
anchors = (
{
name = bottom;
position = "{226, 0}";
},
{
name = center;
position = "{176, 380}";
},
{
name = top;
position = "{222, 700}";
},
{
name = topright;
position = "{367, 540}";
}
);
guideLines = (
{
angle = 110.794;
position = "{418, 424}";
}
);
layerId = "463395A0-2DFC-45D4-87AF-EBCF54FF53ED";
paths = (
{
closed = 1;
nodes = (
"236 33 LINE",
"330 700 LINE",
"110 700 LINE",
"12 0 LINE",
"442 0 LINE",
"462 147 LINE",
"203 147 LINE"
);
}
);
width = 485;
},
{
anchors = (
{
name = bottom;
position = "{282, 0}";
},
{
name = center;
position = "{212, 380}";
},
{
name = top;
position = "{257, 700}";
},
{
name = topright;
position = "{461, 540}";
}
);
guideLines = (
{
angle = 117.474;
position = "{520, 450}";
}
);
layerId = "B66266A1-0CD1-42BF-9957-E58294B85305";
paths = (
{
closed = 1;
nodes = (
"308 47 LINE",
"400 700 LINE",
"100 700 LINE",
"2 0 LINE",
"562 0 LINE",
"590 200 LINE",
"265 200 LINE"
);
}
);
width = 604;
},
{
anchors = (
{
name = bottom;
position = "{273, 0}";
},
{
name = center;
position = "{198, 380}";
},
{
name = top;
position = "{243, 700}";
},
{
name = topright;
position = "{421, 540}";
}
);
guideLines = (
{
angle = 116.865;
position = "{483, 434}";
}
);
layerId = "3B401755-81E4-40F3-BD5E-9424281583CA";
paths = (
{
closed = 1;
nodes = (
"269 39 LINE",
"362 700 LINE",
"112 700 LINE",
"14 0 LINE",
"534 0 LINE",
"557 167 LINE",
"232 167 LINE"
);
}
);
width = 577;
},
{
anchors = (
{
name = bottom;
position = "{76, 0}";
},
{
name = center;
position = "{67, 380}";
},
{
name = top;
position = "{112, 700}";
},
{
name = topright;
position = "{154, 540}";
}
);
guideLines = (
{
angle = 100.102;
position = "{139, 352}";
}
);
layerId = "3D671699-C126-4AA5-A66F-47C26817AED2";
paths = (
{
closed = 1;
nodes = (
"16 3 LINE",
"114 700 LINE",
"110 700 LINE",
"12 0 LINE",
"140 0 LINE",
"140 4 LINE",
"15 4 LINE"
);
}
);
width = 183;
},
{
anchors = (
{
name = bottom;
position = "{163, 0}";
},
{
name = center;
position = "{121, 380}";
},
{
name = top;
position = "{167, 700}";
},
{
name = topright;
position = "{271, 540}";
}
);
guideLines = (
{
angle = 106.878;
position = "{263, 377}";
}
);
layerId = "46E74328-601B-43A9-9281-7B741E5F83E4";
paths = (
{
closed = 1;
nodes = (
"98 11 LINE",
"195 700 LINE",
"135 700 LINE",
"37 0 LINE",
"293 0 LINE",
"300 54 LINE",
"91 54 LINE"
);
}
);
width = 339;
},
{
anchors = (
{
name = bottom;
position = "{227, 0}";
},
{
name = center;
position = "{127, 380}";
},
{
name = top;
position = "{174, 700}";
},
{
name = topright;
position = "{314, 540}";
}
);
guideLines = (
{
angle = 114.895;
position = "{299, 352}";
}
);
layerId = "ECB9DAFA-B085-4474-A032-AB3BEA4F5B4C";
paths = (
{
closed = 1;
nodes = (
"76 2 LINE",
"174 700 LINE",
"170 700 LINE",
"72 0 LINE",
"399 0 LINE",
"399 4 LINE",
"74 4 LINE"
);
}
);
width = 448;
},
{
anchors = (
{
name = bottom;
position = "{221, 0}";
},
{
name = center;
position = "{138, 380}";
},
{
name = top;
position = "{184, 700}";
},
{
name = topright;
position = "{332, 540}";
}
);
guideLines = (
{
angle = 114.028;
position = "{324, 377}";
}
);
layerId = "287B816B-C6D9-4D62-948A-F2FEA8E41A5A";
paths = (
{
closed = 1;
nodes = (
"113 11 LINE",
"210 700 LINE",
"150 700 LINE",
"52 0 LINE",
"400 0 LINE",
"407 54 LINE",
"105 54 LINE"
);
}
);
width = 447;
}
);
leftKerningGroup = public.kern2.H;
rightKerningGroup = public.kern1.L;
unicode = 004C;
},
{
glyphname = M;
layers = (
{
anchors = (
{
name = bottom;
position = "{404, 0}";
},
{
name = top;
position = "{502, 700}";
}
);
guideLines = (
{
angle = 293.269;
position = "{485, 700}";
}
);
layerId = "3C3B4AE3-80BB-44A4-A3CD-A752C08638B1";
paths = (
{
closed = 1;
nodes = (
"2 0 LINE",
"302 0 LINE",
"388 616 LINE",
"211 616 LINE",
"381 30 LINE",
"435 30 LINE",
"769 616 LINE",
"592 616 LINE",
"506 0 LINE",
"806 0 LINE",
"904 700 LINE",
"579 700 LINE",
"364 322 LINE",
"535 322 LINE",
"425 700 LINE",
"100 700 LINE"
);
}
);
width = 884;
},
{
anchors = (
{
name = bottom;
position = "{382, 0}";
},
{
name = top;
position = "{480, 700}";
}
);
layerId = "463395A0-2DFC-45D4-87AF-EBCF54FF53ED";
paths = (
{
closed = 1;
nodes = (
"12 0 LINE",
"232 0 LINE",
"282 356 LINE",
"285 356 LINE",
"341 48 LINE",
"436 48 LINE",
"577 356 LINE",
"581 356 LINE",
"531 0 LINE",
"751 0 LINE",
"849 700 LINE",
"580 700 LINE",
"437 386 LINE",
"434 386 LINE",
"379 700 LINE",
"110 700 LINE"
);
}
);
width = 839;
},
{
anchors = (
{
name = bottom;
position = "{479, 0}";
},
{
name = top;
position = "{577, 700}";
}
);
guideLines = (
{
angle = 106.911;
position = "{358, 320}";
}
);
layerId = "B66266A1-0CD1-42BF-9957-E58294B85305";
paths = (
{
closed = 1;
nodes = (
"2 0 LINE",
"302 0 LINE",
"347 320 LINE",
"351 320 LINE",
"398 30 LINE",
"568 30 LINE",
"697 320 LINE",
"701 320 LINE",
"656 0 LINE",
"956 0 LINE",
"1054 700 LINE",
"662 700 LINE",
"541 427 LINE",
"537 427 LINE",
"492 700 LINE",
"100 700 LINE"
);
}
);
width = 1034;
},
{
anchors = (
{
name = bottom;
position = "{446, 0}";
},
{
name = top;
position = "{544, 700}";
}
);
guideLines = (
{
angle = 107.384;
position = "{337, 383}";
}
);
layerId = "3B401755-81E4-40F3-BD5E-9424281583CA";
paths = (
{
closed = 1;
nodes = (
"14 0 LINE",
"264 0 LINE",
"318 383 LINE",
"322 383 LINE",
"381 41 LINE",
"523 41 LINE",
"678 383 LINE",
"682 383 LINE",
"628 0 LINE",
"878 0 LINE",
"976 700 LINE",
"649 700 LINE",
"500 371 LINE",
"496 371 LINE",
"439 700 LINE",
"112 700 LINE"
);
}
);
width = 968;
},
{
anchors = (
{
name = bottom;
position = "{140, 0}";
},
{
name = top;
position = "{238, 700}";
}
);
layerId = "3D671699-C126-4AA5-A66F-47C26817AED2";
paths = (
{
closed = 1;
nodes = (
"12 0 LINE",
"16 0 LINE",
"114 696 LINE",
"113 696 LINE",
"155 101 LINE",
"159 101 LINE",
"363 696 LINE",
"362 696 LINE",
"264 0 LINE",
"268 0 LINE",
"366 700 LINE",
"360 700 LINE",
"156 104 LINE",
"158 104 LINE",
"116 700 LINE",
"110 700 LINE"
);
}
);
width = 356;
},
{
anchors = (
{
name = bottom;
position = "{267, 0}";
},
{
name = top;
position = "{365, 700}";
}
);
layerId = "46E74328-601B-43A9-9281-7B741E5F83E4";
paths = (
{
closed = 1;
nodes = (
"37 0 LINE",
"97 0 LINE",
"186 632 LINE",
"190 632 LINE",
"244 85 LINE",
"314 85 LINE",
"522 632 LINE",
"526 632 LINE",
"437 0 LINE",
"497 0 LINE",
"595 700 LINE",
"494 700 LINE",
"293 172 LINE",
"289 172 LINE",
"236 700 LINE",
"135 700 LINE"
);
}
);
width = 610;
},
{
anchors = (
{
name = bottom;
position = "{364, 0}";
},
{
name = top;
position = "{462, 700}";
}
);
layerId = "ECB9DAFA-B085-4474-A032-AB3BEA4F5B4C";
paths = (
{
closed = 1;
nodes = (
"72 0 LINE",
"76 0 LINE",
"173 695 LINE",
"172 695 LINE",
"374 93 LINE",
"379 93 LINE",
"749 695 LINE",
"748 695 LINE",
"651 0 LINE",
"655 0 LINE",
"753 700 LINE",
"748 700 LINE",
"377 97 LINE",
"376 97 LINE",
"175 700 LINE",
"170 700 LINE"
);
}
);
width = 803;
},
{
anchors = (
{
name = bottom;
position = "{369, 0}";
},
{
name = top;
position = "{467, 700}";
}
);
layerId = "287B816B-C6D9-4D62-948A-F2FEA8E41A5A";
paths = (
{
closed = 1;
nodes = (
"52 0 LINE",
"112 0 LINE",
"203 648 LINE",
"207 648 LINE",
"345 83 LINE",
"415 83 LINE",
"713 648 LINE",
"717 648 LINE",
"626 0 LINE",
"686 0 LINE",
"784 700 LINE",
"684 700 LINE",
"391 142 LINE",
"387 142 LINE",
"250 700 LINE",
"150 700 LINE"
);
}
);
width = 814;
}
);
leftKerningGroup = public.kern2.H;
rightKerningGroup = public.kern1.H;
unicode = 004D;
},
{
glyphname = N;
layers = (
{
anchors = (
{
name = bottom;
position = "{340, 0}";
},
{
name = top;
position = "{438, 700}";
}
);
guideLines = (
{
angle = 12.329;
position = "{330, 218}";
}
);
layerId = "3C3B4AE3-80BB-44A4-A3CD-A752C08638B1";
paths = (
{
closed = 1;
nodes = (
"476 700 LINE",
"399 154 LINE",
"631 154 LINE",
"350 700 LINE",
"100 700 LINE",
"2 0 LINE",
"302 0 LINE",
"379 546 LINE",
"147 546 LINE",
"428 0 LINE",
"678 0 LINE",
"776 700 LINE"
);
}
);
width = 756;
},
{
anchors = (
{
name = bottom;
position = "{315, 0}";
},
{
name = top;
position = "{413, 700}";
}
);
layerId = "463395A0-2DFC-45D4-87AF-EBCF54FF53ED";
paths = (
{
closed = 1;
nodes = (
"495 700 LINE",
"427 218 LINE",
"565 218 LINE",
"291 700 LINE",
"110 700 LINE",
"12 0 LINE",
"232 0 LINE",
"300 482 LINE",
"162 482 LINE",
"436 0 LINE",
"617 0 LINE",
"715 700 LINE"
);
}
);
width = 705;
},
{
anchors = (
{
name = bottom;
position = "{410, 0}";
},
{
name = top;
position = "{508, 700}";
}
);
guideLines = (
{
angle = 21.66;
position = "{409, 350}";
}
);
layerId = "B66266A1-0CD1-42BF-9957-E58294B85305";
paths = (
{
closed = 1;
nodes = (
"616 700 LINE",
"577 422 LINE",
"573 422 LINE",
"439 700 LINE",
"100 700 LINE",
"2 0 LINE",
"302 0 LINE",
"341 278 LINE",
"345 278 LINE",
"479 0 LINE",
"818 0 LINE",
"916 700 LINE"
);
}
);
width = 896;
},
{
anchors = (
{
name = bottom;
position = "{392, 0}";
},
{
name = top;
position = "{490, 700}";
}
);
layerId = "3B401755-81E4-40F3-BD5E-9424281583CA";
paths = (
{
closed = 1;
nodes = (
"619 700 LINE",
"574 380 LINE",
"570 380 LINE",
"384 700 LINE",
"112 700 LINE",
"14 0 LINE",
"264 0 LINE",
"309 320 LINE",
"313 320 LINE",
"499 0 LINE",
"771 0 LINE",
"869 700 LINE"
);
}
);
width = 861;
},
{
anchors = (
{
name = bottom;
position = "{99, 0}";
},
{
name = top;
position = "{197, 700}";
}
);
layerId = "3D671699-C126-4AA5-A66F-47C26817AED2";
paths = (
{
closed = 1;
nodes = (
"280 700 LINE",
"184 13 LINE",
"185 16 LINE",
"113 700 LINE",
"110 700 LINE",
"12 0 LINE",
"16 0 LINE",
"113 689 LINE",
"111 686 LINE",
"183 0 LINE",
"186 0 LINE",
"284 700 LINE"
);
}
);
width = 274;
},
{
anchors = (
{
name = bottom;
position = "{215, 0}";
},
{
name = top;
position = "{313, 700}";
}
);
layerId = "46E74328-601B-43A9-9281-7B741E5F83E4";
paths = (
{
closed = 1;
nodes = (
"434 700 LINE",
"355 133 LINE",
"351 133 LINE",
"208 700 LINE",
"135 700 LINE",
"37 0 LINE",
"97 0 LINE",
"176 567 LINE",
"180 567 LINE",
"323 0 LINE",
"396 0 LINE",
"494 700 LINE"
);
}
);
width = 509;
},
{
anchors = (
{
name = bottom;
position = "{309, 0}";
},
{
name = top;
position = "{407, 700}";
}
);
layerId = "ECB9DAFA-B085-4474-A032-AB3BEA4F5B4C";
paths = (
{
closed = 1;
nodes = (
"639 700 LINE",
"541 4 LINE",
"543 4 LINE",
"174 700 LINE",
"170 700 LINE",
"72 0 LINE",
"76 0 LINE",
"174 696 LINE",
"172 696 LINE",
"541 0 LINE",
"545 0 LINE",
"643 700 LINE"
);
}
);
width = 693;
},
{
anchors = (
{
name = bottom;
position = "{307, 0}";
},
{
name = top;
position = "{405, 700}";
}
);
guideLines = (
{
angle = 30.433;
position = "{353, 635}";
},
{
angle = 30.433;
position = "{156, -65}";
}
);
layerId = "287B816B-C6D9-4D62-948A-F2FEA8E41A5A";
paths = (
{
closed = 1;
nodes = (
"599 700 LINE",
"513 86 LINE",
"509 86 LINE",
"229 700 LINE",
"150 700 LINE",
"52 0 LINE",
"112 0 LINE",
"198 614 LINE",
"202 614 LINE",
"482 0 LINE",
"561 0 LINE",
"659 700 LINE"
);
}
);
width = 689;
}
);
leftKerningGroup = public.kern2.H;
rightKerningGroup = public.kern1.H;
unicode = 004E;
},
{
glyphname = Eng;
layers = (
{
layerId = "3C3B4AE3-80BB-44A4-A3CD-A752C08638B1";
paths = (
{
closed = 1;
nodes = (
"580 -195 OFFCURVE",
"658 -130 OFFCURVE",
"677 0 CURVE SMOOTH",
"776 700 LINE",
"476 700 LINE",
"449 508 LINE",
"350 700 LINE",
"100 700 LINE",
"2 0 LINE",
"302 0 LINE",
"328 192 LINE",
"388 76 LINE",
"382 30 LINE SMOOTH",
"376 -10 OFFCURVE",
"363 -25 OFFCURVE",
"332 -25 CURVE SMOOTH",
"326 -25 OFFCURVE",
"319 -24 OFFCURVE",
"312 -22 CURVE",
"291 -171 LINE",
"344 -187 OFFCURVE",
"402 -195 OFFCURVE",
"454 -195 CURVE SMOOTH"
);
}
);
width = 756;
},
{
layerId = "463395A0-2DFC-45D4-87AF-EBCF54FF53ED";
paths = (
{
closed = 1;
nodes = (
"535 -194 OFFCURVE",
"599 -130 OFFCURVE",
"618 5 CURVE SMOOTH",
"715 700 LINE",
"495 700 LINE",
"454 412 LINE",
"291 700 LINE",
"110 700 LINE",
"12 0 LINE",
"232 0 LINE",
"273 288 LINE",
"405 55 LINE",
"398 9 LINE SMOOTH",
"391 -45 OFFCURVE",
"368 -68 OFFCURVE",
"322 -68 CURVE SMOOTH",
"310 -68 OFFCURVE",
"298 -66 OFFCURVE",
"286 -62 CURVE",
"271 -172 LINE",
"316 -186 OFFCURVE",
"367 -194 OFFCURVE",
"413 -194 CURVE SMOOTH"
);
}
);
width = 705;
},
{
layerId = "B66266A1-0CD1-42BF-9957-E58294B85305";
paths = (
{
closed = 1;
nodes = (
"715 -195 OFFCURVE",
"799 -135 OFFCURVE",
"818 0 CURVE SMOOTH",
"916 700 LINE",
"616 700 LINE",
"583 467 LINE",
"439 700 LINE",
"100 700 LINE",
"2 0 LINE",
"301 0 LINE",
"341 284 LINE",
"511 10 LINE",
"510 0 LINE SMOOTH",
"507 -16 OFFCURVE",
"485 -25 OFFCURVE",
"458 -25 CURVE SMOOTH",
"445 -25 OFFCURVE",
"437 -24 OFFCURVE",
"422 -22 CURVE",
"401 -171 LINE",
"459 -187 OFFCURVE",
"521 -195 OFFCURVE",
"578 -195 CURVE SMOOTH"
);
}
);
width = 896;
},
{
layerId = "3B401755-81E4-40F3-BD5E-9424281583CA";
paths = (
{
closed = 1;
nodes = (
"681 -195 OFFCURVE",
"754 -128 OFFCURVE",
"774 19 CURVE SMOOTH",
"869 700 LINE",
"619 700 LINE",
"578 410 LINE",
"384 700 LINE",
"112 700 LINE",
"14 0 LINE",
"264 0 LINE",
"309 325 LINE",
"520 10 LINE",
"519 0 LINE SMOOTH",
"513 -37 OFFCURVE",
"480 -53 OFFCURVE",
"437 -53 CURVE SMOOTH",
"424 -53 OFFCURVE",
"409 -51 OFFCURVE",
"396 -48 CURVE",
"378 -172 LINE",
"431 -187 OFFCURVE",
"489 -195 OFFCURVE",
"542 -195 CURVE SMOOTH"
);
}
);
width = 861;
},
{
layerId = "3D671699-C126-4AA5-A66F-47C26817AED2";
paths = (
{
closed = 1;
nodes = (
"139 -185 OFFCURVE",
"165 -145 OFFCURVE",
"174 -83 CURVE SMOOTH",
"284 700 LINE",
"280 700 LINE",
"185 20 LINE",
"113 700 LINE",
"110 700 LINE",
"12 0 LINE",
"16 0 LINE",
"112 682 LINE",
"182 4 LINE",
"170 -83 LINE SMOOTH",
"161 -150 OFFCURVE",
"131 -181 OFFCURVE",
"80 -181 CURVE SMOOTH",
"63 -181 OFFCURVE",
"43 -175 OFFCURVE",
"29 -167 CURVE",
"28 -171 LINE",
"42 -179 OFFCURVE",
"62 -185 OFFCURVE",
"80 -185 CURVE SMOOTH"
);
}
);
width = 274;
},
{
layerId = "46E74328-601B-43A9-9281-7B741E5F83E4";
paths = (
{
closed = 1;
nodes = (
"326 -185 OFFCURVE",
"377 -134 OFFCURVE",
"391 -36 CURVE SMOOTH",
"494 700 LINE",
"434 700 LINE",
"358 155 LINE",
"208 700 LINE",
"135 700 LINE",
"37 0 LINE",
"97 0 LINE",
"178 576 LINE",
"336 0 LINE",
"331 -36 LINE SMOOTH",
"321 -107 OFFCURVE",
"294 -134 OFFCURVE",
"232 -134 CURVE SMOOTH",
"212 -134 OFFCURVE",
"190 -130 OFFCURVE",
"176 -123 CURVE",
"163 -170 LINE",
"181 -179 OFFCURVE",
"212 -185 OFFCURVE",
"240 -185 CURVE SMOOTH"
);
}
);
width = 509;
},
{
layerId = "ECB9DAFA-B085-4474-A032-AB3BEA4F5B4C";
paths = (
{
closed = 1;
nodes = (
"469 -185 OFFCURVE",
"527 -130 OFFCURVE",
"542 -20 CURVE SMOOTH",
"643 700 LINE",
"639 700 LINE",
"542 7 LINE",
"174 700 LINE",
"170 700 LINE",
"72 0 LINE",
"76 0 LINE",
"173 693 LINE",
"541 0 LINE",
"538 -20 LINE SMOOTH",
"523 -128 OFFCURVE",
"466 -181 OFFCURVE",
"368 -181 CURVE SMOOTH",
"332 -181 OFFCURVE",
"294 -174 OFFCURVE",
"268 -163 CURVE",
"266 -167 LINE",
"293 -178 OFFCURVE",
"332 -185 OFFCURVE",
"368 -185 CURVE SMOOTH"
);
}
);
width = 693;
},
{
layerId = "287B816B-C6D9-4D62-948A-F2FEA8E41A5A";
paths = (
{
closed = 1;
nodes = (
"480 -185 OFFCURVE",
"543 -124 OFFCURVE",
"560 -8 CURVE",
"659 700 LINE",
"599 700 LINE",
"516 110 LINE",
"229 700 LINE",
"150 700 LINE",
"52 0 LINE",
"112 0 LINE",
"199 620 LINE",
"501 0 LINE",
"500 -8 LINE SMOOTH",
"487 -95 OFFCURVE",
"449 -132 OFFCURVE",
"373 -132 CURVE SMOOTH",
"351 -132 OFFCURVE",
"331 -129 OFFCURVE",
"308 -122 CURVE",
"289 -173 LINE",
"317 -181 OFFCURVE",
"349 -185 OFFCURVE",
"374 -185 CURVE SMOOTH"
);
}
);
width = 689;
}
);
leftKerningGroup = public.kern2.H;
rightKerningGroup = public.kern1.H;
unicode = 014A;
},
{
glyphname = O;
layers = (
{
anchors = (
{
name = "#exit";
position = "{745, 700}";
},
{
name = bottom;
position = "{317, 0}";
},
{
name = center;
position = "{366, 350}";
},
{
name = ogonek;
position = "{399, 10}";
},
{
name = top;
position = "{415, 700}";
},
{
name = topleft;
position = "{127, 700}";
},
{
name = topright;
position = "{536, 700}";
}
);
layerId = "3C3B4AE3-80BB-44A4-A3CD-A752C08638B1";
paths = (
{
closed = 1;
nodes = (
"518 -15 OFFCURVE",
"659 89 OFFCURVE",
"683 256 CURVE SMOOTH",
"709 444 LINE SMOOTH",
"733 611 OFFCURVE",
"620 715 OFFCURVE",
"417 715 CURVE SMOOTH",
"213 715 OFFCURVE",
"73 611 OFFCURVE",
"49 444 CURVE SMOOTH",
"23 256 LINE SMOOTH",
"-1 89 OFFCURVE",
"111 -15 OFFCURVE",
"315 -15 CURVE SMOOTH"
);
},
{
closed = 1;
nodes = (
"323 185 OFFCURVE",
"314 196 OFFCURVE",
"318 220 CURVE",
"354 480 LINE",
"358 504 OFFCURVE",
"369 515 OFFCURVE",
"389 515 CURVE SMOOTH",
"409 515 OFFCURVE",
"418 504 OFFCURVE",
"414 480 CURVE",
"378 220 LINE",
"374 196 OFFCURVE",
"363 185 OFFCURVE",
"343 185 CURVE SMOOTH"
);
}
);
width = 710;
},
{
anchors = (
{
name = "#exit";
position = "{700, 700}";
},
{
name = bottom;
position = "{300, 0}";
},
{
name = center;
position = "{349, 350}";
},
{
name = ogonek;
position = "{398, 10}";
},
{
name = top;
position = "{398, 700}";
},
{
name = topleft;
position = "{114, 700}";
},
{
name = topright;
position = "{500, 697}";
}
);
layerId = "463395A0-2DFC-45D4-87AF-EBCF54FF53ED";
paths = (
{
closed = 1;
nodes = (
"487 -12 OFFCURVE",
"614 85 OFFCURVE",
"637 248 CURVE SMOOTH",
"665 452 LINE SMOOTH",
"688 615 OFFCURVE",
"589 712 OFFCURVE",
"400 712 CURVE SMOOTH",
"212 712 OFFCURVE",
"85 615 OFFCURVE",
"62 452 CURVE SMOOTH",
"34 248 LINE SMOOTH",
"11 85 OFFCURVE",
"110 -12 OFFCURVE",
"298 -12 CURVE SMOOTH"
);
},
{
closed = 1;
nodes = (
"265 135 OFFCURVE",
"242 167 OFFCURVE",
"251 232 CURVE SMOOTH",
"285 468 LINE SMOOTH",
"294 533 OFFCURVE",
"325 565 OFFCURVE",
"379 565 CURVE SMOOTH",
"434 565 OFFCURVE",
"457 533 OFFCURVE",
"448 468 CURVE SMOOTH",
"414 232 LINE SMOOTH",
"405 167 OFFCURVE",
"374 135 OFFCURVE",
"319 135 CURVE SMOOTH"
);
}
);
width = 677;
},
{
anchors = (
{
name = "#exit";
position = "{880, 700}";
},
{
name = bottom;
position = "{387, 0}";
},
{
name = center;
position = "{436, 350}";
},
{
name = ogonek;
position = "{462, 10}";
},
{
name = top;
position = "{485, 700}";
},
{
name = topleft;
position = "{95, 700}";
},
{
name = topright;
position = "{581, 700}";
}
);
layerId = "B66266A1-0CD1-42BF-9957-E58294B85305";
paths = (
{
closed = 1;
nodes = (
"630 -15 OFFCURVE",
"796 101 OFFCURVE",
"822 286 CURVE SMOOTH",
"840 414 LINE SMOOTH",
"866 599 OFFCURVE",
"732 715 OFFCURVE",
"487 715 CURVE SMOOTH",
"241 715 OFFCURVE",
"76 599 OFFCURVE",
"50 414 CURVE SMOOTH",
"32 286 LINE SMOOTH",
"6 101 OFFCURVE",
"139 -15 OFFCURVE",
"385 -15 CURVE SMOOTH"
);
},
{
closed = 1;
nodes = (
"349 185 OFFCURVE",
"323 221 OFFCURVE",
"333 295 CURVE SMOOTH",
"349 405 LINE SMOOTH",
"359 479 OFFCURVE",
"395 515 OFFCURVE",
"459 515 CURVE SMOOTH",
"523 515 OFFCURVE",
"549 479 OFFCURVE",
"539 405 CURVE SMOOTH",
"523 295 LINE SMOOTH",
"513 221 OFFCURVE",
"477 185 OFFCURVE",
"413 185 CURVE SMOOTH"
);
}
);
width = 850;
},
{
anchors = (
{
name = "#exit";
position = "{848, 700}";
},
{
name = bottom;
position = "{376, 0}";
},
{
name = center;
position = "{425, 350}";
},
{
name = ogonek;
position = "{483, 10}";
},
{
name = top;
position = "{474, 700}";
},
{
name = topleft;
position = "{98, 700}";
},
{
name = topright;
position = "{572, 698}";
}
);
layerId = "3B401755-81E4-40F3-BD5E-9424281583CA";
paths = (
{
closed = 1;
nodes = (
"608 -13 OFFCURVE",
"764 100 OFFCURVE",
"790 288 CURVE SMOOTH",
"808 412 LINE SMOOTH",
"834 600 OFFCURVE",
"710 713 OFFCURVE",
"476 713 CURVE SMOOTH",
"242 713 OFFCURVE",
"86 600 OFFCURVE",
"60 412 CURVE SMOOTH",
"42 288 LINE SMOOTH",
"16 100 OFFCURVE",
"140 -13 OFFCURVE",
"374 -13 CURVE SMOOTH"
);
},
{
closed = 1;
nodes = (
"314 154 OFFCURVE",
"280 200 OFFCURVE",
"293 296 CURVE",
"309 404 LINE",
"322 500 OFFCURVE",
"370 546 OFFCURVE",
"453 546 CURVE SMOOTH",
"536 546 OFFCURVE",
"570 500 OFFCURVE",
"557 404 CURVE",
"541 296 LINE",
"528 200 OFFCURVE",
"480 154 OFFCURVE",
"397 154 CURVE SMOOTH"
);
}
);
width = 828;
},
{
anchors = (
{
name = "#exit";
position = "{283, 700}";
},
{
name = bottom;
position = "{96, 0}";
},
{
name = center;
position = "{145, 350}";
},
{
name = ogonek;
position = "{145, 10}";
},
{
name = top;
position = "{194, 700}";
},
{
name = topleft;
position = "{99, 700}";
},
{
name = topright;
position = "{231, 690}";
}
);
layerId = "3D671699-C126-4AA5-A66F-47C26817AED2";
paths = (
{
closed = 1;
nodes = (
"154 -5 OFFCURVE",
"190 37 OFFCURVE",
"202 122 CURVE SMOOTH",
"266 578 LINE SMOOTH",
"278 664 OFFCURVE",
"254 705 OFFCURVE",
"195 705 CURVE SMOOTH",
"136 705 OFFCURVE",
"100 664 OFFCURVE",
"88 578 CURVE SMOOTH",
"24 122 LINE SMOOTH",
"12 37 OFFCURVE",
"36 -5 OFFCURVE",
"95 -5 CURVE SMOOTH"
);
},
{
closed = 1;
nodes = (
"39 -1 OFFCURVE",
"16 40 OFFCURVE",
"28 122 CURVE SMOOTH",
"92 578 LINE SMOOTH",
"104 661 OFFCURVE",
"137 701 OFFCURVE",
"194 701 CURVE SMOOTH",
"251 701 OFFCURVE",
"274 661 OFFCURVE",
"262 578 CURVE SMOOTH",
"198 122 LINE SMOOTH",
"186 40 OFFCURVE",
"153 -1 OFFCURVE",
"96 -1 CURVE SMOOTH"
);
}
);
width = 268;
},
{
anchors = (
{
name = "#exit";
position = "{498, 700}";
},
{
name = bottom;
position = "{211, 0}";
},
{
name = center;
position = "{260, 350}";
},
{
name = ogonek;
position = "{324, 10}";
},
{
name = top;
position = "{309, 700}";
},
{
name = topleft;
position = "{112, 700}";
},
{
name = topright;
position = "{379, 692}";
}
);
layerId = "46E74328-601B-43A9-9281-7B741E5F83E4";
paths = (
{
closed = 1;
nodes = (
"332 -7 OFFCURVE",
"409 65 OFFCURVE",
"428 198 CURVE SMOOTH",
"470 502 LINE SMOOTH",
"489 635 OFFCURVE",
"432 707 OFFCURVE",
"310 707 CURVE SMOOTH",
"187 707 OFFCURVE",
"111 635 OFFCURVE",
"92 502 CURVE SMOOTH",
"50 198 LINE SMOOTH",
"31 65 OFFCURVE",
"87 -7 OFFCURVE",
"210 -7 CURVE SMOOTH"
);
},
{
closed = 1;
nodes = (
"129 47 OFFCURVE",
"95 95 OFFCURVE",
"110 198 CURVE",
"152 502 LINE SMOOTH",
"166 602 OFFCURVE",
"217 653 OFFCURVE",
"303 653 CURVE SMOOTH",
"389 653 OFFCURVE",
"425 603 OFFCURVE",
"410 502 CURVE",
"368 198 LINE SMOOTH",
"353 94 OFFCURVE",
"306 47 OFFCURVE",
"217 47 CURVE SMOOTH"
);
}
);
width = 498;
},
{
anchors = (
{
name = "#exit";
position = "{690, 700}";
},
{
name = bottom;
position = "{321, 0}";
},
{
name = center;
position = "{370, 350}";
},
{
name = ogonek;
position = "{588, 10}";
},
{
name = top;
position = "{419, 700}";
},
{
name = topleft;
position = "{115, 700}";
},
{
name = topright;
position = "{529, 690}";
}
);
layerId = "ECB9DAFA-B085-4474-A032-AB3BEA4F5B4C";
paths = (
{
closed = 1;
nodes = (
"499 -5 OFFCURVE",
"606 98 OFFCURVE",
"634 299 CURVE SMOOTH",
"648 401 LINE SMOOTH",
"676 602 OFFCURVE",
"599 705 OFFCURVE",
"421 705 CURVE SMOOTH",
"243 705 OFFCURVE",
"136 602 OFFCURVE",
"108 401 CURVE SMOOTH",
"94 299 LINE SMOOTH",
"66 98 OFFCURVE",
"143 -5 OFFCURVE",
"321 -5 CURVE SMOOTH"
);
},
{
closed = 1;
nodes = (
"147 -1 OFFCURVE",
"70 99 OFFCURVE",
"98 299 CURVE SMOOTH",
"112 401 LINE SMOOTH",
"140 601 OFFCURVE",
"245 701 OFFCURVE",
"420 701 CURVE SMOOTH",
"595 701 OFFCURVE",
"672 601 OFFCURVE",
"644 401 CURVE SMOOTH",
"630 299 LINE SMOOTH",
"602 99 OFFCURVE",
"497 -1 OFFCURVE",
"322 -1 CURVE SMOOTH"
);
}
);
width = 720;
},
{
anchors = (
{
name = "#exit";
position = "{679, 700}";
},
{
name = bottom;
position = "{309, 0}";
},
{
name = center;
position = "{358, 350}";
},
{
name = ogonek;
position = "{497, 10}";
},
{
name = top;
position = "{407, 700}";
},
{
name = topleft;
position = "{105, 700}";
},
{
name = topright;
position = "{495, 692}";
}
);
layerId = "287B816B-C6D9-4D62-948A-F2FEA8E41A5A";
paths = (
{
closed = 1;
nodes = (
"485 -7 OFFCURVE",
"593 89 OFFCURVE",
"619 270 CURVE SMOOTH",
"641 430 LINE SMOOTH",
"667 611 OFFCURVE",
"585 707 OFFCURVE",
"408 707 CURVE SMOOTH",
"232 707 OFFCURVE",
"123 611 OFFCURVE",
"97 430 CURVE SMOOTH",
"75 270 LINE SMOOTH",
"49 89 OFFCURVE",
"132 -7 OFFCURVE",
"308 -7 CURVE SMOOTH"
);
},
{
closed = 1;
nodes = (
"174 47 OFFCURVE",
"114 124 OFFCURVE",
"137 283 CURVE",
"155 417 LINE",
"178 575 OFFCURVE",
"260 653 OFFCURVE",
"401 653 CURVE SMOOTH",
"542 653 OFFCURVE",
"602 576 OFFCURVE",
"579 417 CURVE",
"561 283 LINE",
"538 124 OFFCURVE",
"457 47 OFFCURVE",
"315 47 CURVE SMOOTH"
);
}
);
width = 694;
}
);
leftKerningGroup = public.kern2.O;
rightKerningGroup = public.kern1.O;
unicode = 004F;
},
{
glyphname = P;
layers = (
{
layerId = "3C3B4AE3-80BB-44A4-A3CD-A752C08638B1";
paths = (
{
closed = 1;
nodes = (
"2 0 LINE",
"302 0 LINE",
"381 563 LINE",
"305 500 LINE",
"389 500 LINE SMOOTH",
"416 500 OFFCURVE",
"426 480 OFFCURVE",
"420 437 CURVE SMOOTH",
"419 425 LINE",
"412 382 OFFCURVE",
"397 362 OFFCURVE",
"370 362 CURVE SMOOTH",
"342 362 LINE",
"314 162 LINE",
"396 162 LINE SMOOTH",
"573 162 OFFCURVE",
"683 243 OFFCURVE",
"703 389 CURVE",
"715 468 LINE",
"735 616 OFFCURVE",
"647 700 OFFCURVE",
"471 700 CURVE SMOOTH",
"100 700 LINE"
);
}
);
width = 699;
},
{
layerId = "463395A0-2DFC-45D4-87AF-EBCF54FF53ED";
paths = (
{
closed = 1;
nodes = (
"12 0 LINE",
"232 0 LINE",
"316 599 LINE",
"261 553 LINE",
"356 553 LINE SMOOTH",
"408 553 OFFCURVE",
"427 523 OFFCURVE",
"418 459 CURVE SMOOTH",
"415 432 LINE",
"406 369 OFFCURVE",
"376 339 OFFCURVE",
"325 339 CURVE SMOOTH",
"270 339 LINE",
"250 192 LINE",
"348 192 LINE SMOOTH",
"507 192 OFFCURVE",
"604 267 OFFCURVE",
"624 406 CURVE SMOOTH",
"634 481 LINE SMOOTH",
"654 623 OFFCURVE",
"578 700 OFFCURVE",
"419 700 CURVE SMOOTH",
"110 700 LINE"
);
}
);
width = 620;
},
{
layerId = "B66266A1-0CD1-42BF-9957-E58294B85305";
paths = (
{
closed = 1;
nodes = (
"2 0 LINE",
"302 0 LINE",
"381 563 LINE",
"305 500 LINE",
"419 500 LINE SMOOTH",
"466 500 OFFCURVE",
"486 480 OFFCURVE",
"480 437 CURVE SMOOTH",
"479 425 LINE",
"472 382 OFFCURVE",
"447 362 OFFCURVE",
"400 362 CURVE SMOOTH",
"342 362 LINE",
"314 162 LINE",
"441 162 LINE SMOOTH",
"628 162 OFFCURVE",
"743 243 OFFCURVE",
"763 389 CURVE",
"775 468 LINE",
"795 616 OFFCURVE",
"702 700 OFFCURVE",
"516 700 CURVE SMOOTH",
"100 700 LINE"
);
}
);
width = 759;
},
{
layerId = "3B401755-81E4-40F3-BD5E-9424281583CA";
paths = (
{
closed = 1;
nodes = (
"14 0 LINE",
"264 0 LINE",
"346 586 LINE",
"283 533 LINE",
"407 533 LINE SMOOTH",
"471 533 OFFCURVE",
"498 505 OFFCURVE",
"489 446 CURVE",
"488 434 LINE SMOOTH",
"480 376 OFFCURVE",
"444 348 OFFCURVE",
"381 348 CURVE SMOOTH",
"303 348 LINE",
"279 181 LINE",
"415 181 LINE SMOOTH",
"595 181 OFFCURVE",
"705 260 OFFCURVE",
"726 404 CURVE",
"735 472 LINE SMOOTH",
"756 619 OFFCURVE",
"667 700 OFFCURVE",
"488 700 CURVE SMOOTH",
"112 700 LINE"
);
}
);
width = 723;
},
{
layerId = "3D671699-C126-4AA5-A66F-47C26817AED2";
paths = (
{
closed = 1;
nodes = (
"12 0 LINE",
"16 0 LINE",
"114 697 LINE",
"113 696 LINE",
"156 696 LINE SMOOTH",
"220 696 OFFCURVE",
"242 648 OFFCURVE",
"227 539 CURVE SMOOTH",
"211 430 LINE",
"197 326 OFFCURVE",
"160 278 OFFCURVE",
"97 278 CURVE SMOOTH",
"54 278 LINE",
"53 274 LINE",
"96 274 LINE SMOOTH",
"162 274 OFFCURVE",
"200 324 OFFCURVE",
"215 430 CURVE SMOOTH",
"231 539 LINE",
"246 650 OFFCURVE",
"223 700 OFFCURVE",
"156 700 CURVE SMOOTH",
"110 700 LINE"
);
}
);
width = 208;
},
{
layerId = "46E74328-601B-43A9-9281-7B741E5F83E4";
paths = (
{
closed = 1;
nodes = (
"37 0 LINE",
"97 0 LINE",
"190 662 LINE",
"175 650 LINE",
"264 650 LINE SMOOTH",
"347 650 OFFCURVE",
"376 608 OFFCURVE",
"363 512 CURVE SMOOTH",
"352 436 LINE SMOOTH",
"339 343 OFFCURVE",
"296 303 OFFCURVE",
"215 303 CURVE SMOOTH",
"136 303 LINE",
"129 253 LINE",
"220 253 LINE SMOOTH",
"330 253 OFFCURVE",
"394 315 OFFCURVE",
"411 436 CURVE SMOOTH",
"422 512 LINE SMOOTH",
"439 638 OFFCURVE",
"394 700 OFFCURVE",
"283 700 CURVE SMOOTH",
"135 700 LINE"
);
}
);
width = 411;
},
{
guideLines = (
{
angle = 135.338;
position = "{509, 274}";
}
);
layerId = "ECB9DAFA-B085-4474-A032-AB3BEA4F5B4C";
paths = (
{
closed = 1;
nodes = (
"72 0 LINE",
"76 0 LINE",
"174 698 LINE",
"172 696 LINE",
"348 696 LINE SMOOTH",
"494 696 OFFCURVE",
"554 629 OFFCURVE",
"535 489 CURVE",
"533 480 LINE",
"515 347 OFFCURVE",
"431 278 OFFCURVE",
"289 278 CURVE SMOOTH",
"113 278 LINE",
"112 274 LINE",
"288 274 LINE SMOOTH",
"433 274 OFFCURVE",
"518 345 OFFCURVE",
"537 480 CURVE",
"539 489 LINE",
"558 631 OFFCURVE",
"496 700 OFFCURVE",
"348 700 CURVE SMOOTH",
"170 700 LINE"
);
}
);
width = 541;
},
{
layerId = "287B816B-C6D9-4D62-948A-F2FEA8E41A5A";
paths = (
{
closed = 1;
nodes = (
"52 0 LINE",
"112 0 LINE",
"206 668 LINE",
"189 650 LINE",
"335 650 LINE SMOOTH",
"454 650 OFFCURVE",
"498 604 OFFCURVE",
"482 494 CURVE SMOOTH",
"476 453 LINE SMOOTH",
"462 351 OFFCURVE",
"405 304 OFFCURVE",
"287 304 CURVE SMOOTH",
"151 304 LINE",
"144 254 LINE",
"296 254 LINE SMOOTH",
"436 254 OFFCURVE",
"518 322 OFFCURVE",
"536 453 CURVE SMOOTH",
"542 494 LINE SMOOTH",
"561 631 OFFCURVE",
"500 700 OFFCURVE",
"358 700 CURVE SMOOTH",
"150 700 LINE"
);
}
);
width = 538;
}
);
leftKerningGroup = public.kern2.H;
rightKerningGroup = public.kern1.P;
unicode = 0050;
},
{
glyphname = Thorn;
layers = (
{
layerId = "3C3B4AE3-80BB-44A4-A3CD-A752C08638B1";
paths = (
{
closed = 1;
nodes = (
"2 0 LINE",
"302 0 LINE",
"370 482 LINE",
"294 419 LINE",
"378 419 LINE SMOOTH",
"405 419 OFFCURVE",
"415 399 OFFCURVE",
"409 356 CURVE SMOOTH",
"407 344 LINE SMOOTH",
"401 301 OFFCURVE",
"385 281 OFFCURVE",
"358 281 CURVE SMOOTH",
"330 281 LINE",
"302 81 LINE",
"384 81 LINE SMOOTH",
"561 81 OFFCURVE",
"672 162 OFFCURVE",
"692 308 CURVE SMOOTH",
"703 387 LINE SMOOTH",
"724 535 OFFCURVE",
"636 619 OFFCURVE",
"460 619 CURVE SMOOTH",
"389 619 LINE",
"400 700 LINE",
"100 700 LINE"
);
}
);
width = 699;
},
{
layerId = "463395A0-2DFC-45D4-87AF-EBCF54FF53ED";
paths = (
{
closed = 1;
nodes = (
"12 0 LINE",
"232 0 LINE",
"303 503 LINE",
"247 457 LINE",
"342 457 LINE SMOOTH",
"394 457 OFFCURVE",
"414 427 OFFCURVE",
"405 363 CURVE SMOOTH",
"401 336 LINE SMOOTH",
"392 273 OFFCURVE",
"363 243 OFFCURVE",
"312 243 CURVE SMOOTH",
"257 243 LINE",
"236 96 LINE",
"334 96 LINE SMOOTH",
"493 96 OFFCURVE",
"591 171 OFFCURVE",
"610 310 CURVE SMOOTH",
"621 385 LINE SMOOTH",
"641 527 OFFCURVE",
"565 604 OFFCURVE",
"406 604 CURVE SMOOTH",
"317 604 LINE",
"330 700 LINE",
"110 700 LINE"
);
}
);
width = 620;
},
{
layerId = "B66266A1-0CD1-42BF-9957-E58294B85305";
paths = (
{
closed = 1;
nodes = (
"2 0 LINE",
"302 0 LINE",
"370 482 LINE",
"294 419 LINE",
"408 419 LINE SMOOTH",
"455 419 OFFCURVE",
"475 399 OFFCURVE",
"469 356 CURVE SMOOTH",
"467 344 LINE SMOOTH",
"461 301 OFFCURVE",
"435 281 OFFCURVE",
"388 281 CURVE SMOOTH",
"330 281 LINE",
"302 81 LINE",
"429 81 LINE SMOOTH",
"616 81 OFFCURVE",
"732 162 OFFCURVE",
"752 308 CURVE SMOOTH",
"763 387 LINE SMOOTH",
"784 535 OFFCURVE",
"691 619 OFFCURVE",
"505 619 CURVE SMOOTH",
"389 619 LINE",
"400 700 LINE",
"100 700 LINE"
);
}
);
width = 759;
},
{
layerId = "3B401755-81E4-40F3-BD5E-9424281583CA";
paths = (
{
closed = 1;
nodes = (
"14 0 LINE",
"264 0 LINE",
"334 496 LINE",
"270 443 LINE",
"394 443 LINE SMOOTH",
"458 443 OFFCURVE",
"485 415 OFFCURVE",
"477 356 CURVE SMOOTH",
"475 344 LINE SMOOTH",
"467 286 OFFCURVE",
"431 258 OFFCURVE",
"368 258 CURVE SMOOTH",
"290 258 LINE",
"267 91 LINE",
"403 91 LINE SMOOTH",
"583 91 OFFCURVE",
"693 170 OFFCURVE",
"713 314 CURVE SMOOTH",
"722 382 LINE SMOOTH",
"743 529 OFFCURVE",
"655 610 OFFCURVE",
"476 610 CURVE SMOOTH",
"350 610 LINE",
"362 700 LINE",
"112 700 LINE"
);
}
);
width = 723;
},
{
layerId = "3D671699-C126-4AA5-A66F-47C26817AED2";
paths = (
{
closed = 1;
nodes = (
"12 0 LINE",
"16 0 LINE",
"95 560 LINE",
"93 559 LINE",
"136 559 LINE SMOOTH",
"200 559 OFFCURVE",
"223 511 OFFCURVE",
"207 402 CURVE SMOOTH",
"192 293 LINE SMOOTH",
"177 189 OFFCURVE",
"141 141 OFFCURVE",
"78 141 CURVE SMOOTH",
"35 141 LINE",
"34 137 LINE",
"77 137 LINE SMOOTH",
"143 137 OFFCURVE",
"181 187 OFFCURVE",
"196 293 CURVE SMOOTH",
"211 402 LINE SMOOTH",
"227 513 OFFCURVE",
"204 563 OFFCURVE",
"137 563 CURVE SMOOTH",
"95 563 LINE",
"114 700 LINE",
"110 700 LINE"
);
}
);
width = 208;
},
{
layerId = "46E74328-601B-43A9-9281-7B741E5F83E4";
paths = (
{
closed = 1;
nodes = (
"37 0 LINE",
"97 0 LINE",
"172 536 LINE",
"157 524 LINE",
"246 524 LINE SMOOTH",
"329 524 OFFCURVE",
"359 482 OFFCURVE",
"345 386 CURVE SMOOTH",
"334 310 LINE SMOOTH",
"321 217 OFFCURVE",
"279 177 OFFCURVE",
"198 177 CURVE SMOOTH",
"119 177 LINE",
"112 127 LINE",
"203 127 LINE SMOOTH",
"313 127 OFFCURVE",
"376 189 OFFCURVE",
"393 310 CURVE SMOOTH",
"404 386 LINE SMOOTH",
"422 512 OFFCURVE",
"376 574 OFFCURVE",
"265 574 CURVE SMOOTH",
"177 574 LINE",
"195 700 LINE",
"135 700 LINE"
);
}
);
width = 411;
},
{
guideLines = (
{
angle = 135.338;
position = "{509, 274}";
}
);
layerId = "ECB9DAFA-B085-4474-A032-AB3BEA4F5B4C";
paths = (
{
closed = 1;
nodes = (
"72 0 LINE",
"76 0 LINE",
"155 561 LINE",
"152 559 LINE",
"328 559 LINE SMOOTH",
"474 559 OFFCURVE",
"535 492 OFFCURVE",
"515 352 CURVE SMOOTH",
"514 343 LINE SMOOTH",
"495 210 OFFCURVE",
"412 141 OFFCURVE",
"270 141 CURVE SMOOTH",
"94 141 LINE",
"93 137 LINE",
"269 137 LINE SMOOTH",
"414 137 OFFCURVE",
"499 208 OFFCURVE",
"518 343 CURVE SMOOTH",
"519 352 LINE SMOOTH",
"539 494 OFFCURVE",
"477 563 OFFCURVE",
"329 563 CURVE SMOOTH",
"155 563 LINE",
"174 700 LINE",
"170 700 LINE"
);
}
);
width = 541;
},
{
layerId = "287B816B-C6D9-4D62-948A-F2FEA8E41A5A";
paths = (
{
closed = 1;
nodes = (
"52 0 LINE",
"112 0 LINE",
"188 541 LINE",
"171 523 LINE",
"317 523 LINE SMOOTH",
"436 523 OFFCURVE",
"480 477 OFFCURVE",
"464 367 CURVE",
"459 326 LINE",
"444 224 OFFCURVE",
"387 177 OFFCURVE",
"269 177 CURVE SMOOTH",
"133 177 LINE",
"126 127 LINE",
"278 127 LINE SMOOTH",
"418 127 OFFCURVE",
"500 195 OFFCURVE",
"519 326 CURVE",
"524 367 LINE",
"544 504 OFFCURVE",
"482 573 OFFCURVE",
"340 573 CURVE SMOOTH",
"192 573 LINE",
"210 700 LINE",
"150 700 LINE"
);
}
);
width = 538;
}
);
leftKerningGroup = public.kern2.H;
rightKerningGroup = public.kern1.Thorn;
unicode = 00DE;
},
{
glyphname = Q;
layers = (
{
components = (
{
alignment = -1;
name = O;
}
);
layerId = "3C3B4AE3-80BB-44A4-A3CD-A752C08638B1";
paths = (
{
closed = 1;
nodes = (
"684 -109 LINE",
"710 93 LINE",
"315 163 LINE",
"224 2 LINE"
);
}
);
width = 710;
},
{
components = (
{
alignment = -1;
name = O;
}
);
layerId = "463395A0-2DFC-45D4-87AF-EBCF54FF53ED";
paths = (
{
closed = 1;
nodes = (
"642 -93 LINE",
"661 55 LINE",
"294 119 LINE",
"227 1 LINE"
);
}
);
width = 676;
},
{
components = (
{
alignment = -1;
name = O;
}
);
layerId = "B66266A1-0CD1-42BF-9957-E58294B85305";
paths = (
{
closed = 1;
nodes = (
"804 -109 LINE",
"830 93 LINE",
"367 161 LINE",
"276 0 LINE"
);
}
);
width = 850;
},
{
components = (
{
alignment = -1;
name = O;
}
);
layerId = "3B401755-81E4-40F3-BD5E-9424281583CA";
paths = (
{
closed = 1;
nodes = (
"781 -100 LINE",
"802 69 LINE",
"357 134 LINE",
"281 0 LINE"
);
}
);
width = 829;
},
{
components = (
{
alignment = -1;
name = O;
}
);
layerId = "3D671699-C126-4AA5-A66F-47C26817AED2";
paths = (
{
closed = 1;
nodes = (
"236 -45 LINE",
"236 -41 LINE",
"100 3 LINE",
"102 -1 LINE"
);
}
);
width = 258;
},
{
components = (
{
alignment = -1;
name = O;
}
);
layerId = "46E74328-601B-43A9-9281-7B741E5F83E4";
paths = (
{
closed = 1;
nodes = (
"448 -61 LINE",
"453 -12 LINE",
"210 33 LINE",
"192 -1 LINE"
);
}
);
width = 498;
},
{
components = (
{
alignment = -1;
name = O;
}
);
layerId = "ECB9DAFA-B085-4474-A032-AB3BEA4F5B4C";
paths = (
{
closed = 1;
nodes = (
"667 -57 LINE",
"667 -52 LINE",
"310 2 LINE",
"305 -1 LINE"
);
}
);
width = 723;
},
{
components = (
{
alignment = -1;
name = O;
}
);
layerId = "287B816B-C6D9-4D62-948A-F2FEA8E41A5A";
paths = (
{
closed = 1;
nodes = (
"636 -65 LINE",
"641 -16 LINE",
"296 31 LINE",
"270 0 LINE"
);
}
);
width = 693;
}
);
leftKerningGroup = public.kern2.O;
rightKerningGroup = public.kern1.O;
unicode = 0051;
},
{
glyphname = R;
layers = (
{
anchors = (
{
name = bottom;
position = "{333, 0}";
},
{
name = top;
position = "{431, 700}";
}
);
guideLines = (
{
angle = 91.664;
position = "{416, 241}";
}
);
layerId = "3C3B4AE3-80BB-44A4-A3CD-A752C08638B1";
paths = (
{
closed = 1;
nodes = (
"2 0 LINE",
"302 0 LINE",
"381 563 LINE",
"305 500 LINE",
"396 500 LINE SMOOTH",
"425 500 OFFCURVE",
"437 484 OFFCURVE",
"432 451 CURVE SMOOTH",
"431 441 LINE SMOOTH",
"426 408 OFFCURVE",
"410 392 OFFCURVE",
"381 392 CURVE SMOOTH",
"346 392 LINE",
"318 192 LINE",
"425 192 LINE SMOOTH",
"599 192 OFFCURVE",
"706 268 OFFCURVE",
"726 406 CURVE SMOOTH",
"736 481 LINE SMOOTH",
"756 621 OFFCURVE",
"669 700 OFFCURVE",
"496 700 CURVE SMOOTH",
"100 700 LINE"
);
},
{
closed = 1;
nodes = (
"377 0 LINE",
"683 0 LINE",
"609 246 LINE",
"311 246 LINE"
);
}
);
width = 741;
},
{
anchors = (
{
name = bottom;
position = "{293, 0}";
},
{
name = top;
position = "{386, 700}";
}
);
layerId = "463395A0-2DFC-45D4-87AF-EBCF54FF53ED";
paths = (
{
closed = 1;
nodes = (
"12 0 LINE",
"232 0 LINE",
"316 599 LINE",
"261 553 LINE",
"363 553 LINE SMOOTH",
"414 553 OFFCURVE",
"435 526 OFFCURVE",
"427 469 CURVE SMOOTH",
"424 447 LINE SMOOTH",
"416 391 OFFCURVE",
"387 365 OFFCURVE",
"336 365 CURVE SMOOTH",
"274 365 LINE",
"253 218 LINE",
"371 218 LINE SMOOTH",
"525 218 OFFCURVE",
"619 289 OFFCURVE",
"638 421 CURVE SMOOTH",
"648 491 LINE SMOOTH",
"667 627 OFFCURVE",
"592 700 OFFCURVE",
"439 700 CURVE SMOOTH",
"110 700 LINE"
);
},
{
closed = 1;
nodes = (
"367 0 LINE",
"591 0 LINE",
"521 259 LINE",
"302 259 LINE"
);
}
);
width = 654;
},
{
anchors = (
{
name = bottom;
position = "{346, 0}";
},
{
name = top;
position = "{444, 700}";
}
);
guideLines = (
{
angle = 91.664;
position = "{586, 482}";
},
{
angle = 271.548;
position = "{387, 588}";
},
{
angle = 91.664;
position = "{806, 481}";
}
);
layerId = "B66266A1-0CD1-42BF-9957-E58294B85305";
paths = (
{
closed = 1;
nodes = (
"2 0 LINE",
"302 0 LINE",
"381 563 LINE",
"305 500 LINE",
"419 500 LINE SMOOTH",
"466 500 OFFCURVE",
"487 484 OFFCURVE",
"482 451 CURVE SMOOTH",
"481 441 LINE SMOOTH",
"476 408 OFFCURVE",
"451 392 OFFCURVE",
"404 392 CURVE SMOOTH",
"346 392 LINE",
"318 192 LINE",
"465 192 LINE SMOOTH",
"639 192 OFFCURVE",
"746 268 OFFCURVE",
"766 406 CURVE SMOOTH",
"776 481 LINE SMOOTH",
"796 621 OFFCURVE",
"709 700 OFFCURVE",
"536 700 CURVE SMOOTH",
"100 700 LINE"
);
},
{
closed = 1;
nodes = (
"417 0 LINE",
"723 0 LINE",
"649 246 LINE",
"351 246 LINE"
);
}
);
width = 781;
},
{
anchors = (
{
name = bottom;
position = "{335, 0}";
},
{
name = top;
position = "{429, 700}";
}
);
layerId = "3B401755-81E4-40F3-BD5E-9424281583CA";
paths = (
{
closed = 1;
nodes = (
"14 0 LINE",
"264 0 LINE",
"346 586 LINE",
"283 533 LINE",
"411 533 LINE SMOOTH",
"474 533 OFFCURVE",
"500 509 OFFCURVE",
"493 458 CURVE SMOOTH",
"492 448 LINE SMOOTH",
"485 399 OFFCURVE",
"450 374 OFFCURVE",
"388 374 CURVE SMOOTH",
"306 374 LINE",
"283 208 LINE",
"439 208 LINE SMOOTH",
"607 208 OFFCURVE",
"710 282 OFFCURVE",
"730 419 CURVE SMOOTH",
"739 483 LINE SMOOTH",
"758 623 OFFCURVE",
"676 700 OFFCURVE",
"508 700 CURVE SMOOTH",
"112 700 LINE"
);
},
{
closed = 1;
nodes = (
"429 0 LINE",
"684 0 LINE",
"606 254 LINE",
"358 254 LINE"
);
}
);
width = 748;
},
{
anchors = (
{
name = bottom;
position = "{86, 0}";
},
{
name = top;
position = "{176, 700}";
}
);
guideLines = (
{
angle = 91.664;
position = "{594, 524}";
}
);
layerId = "3D671699-C126-4AA5-A66F-47C26817AED2";
paths = (
{
closed = 1;
nodes = (
"12 0 LINE",
"16 0 LINE",
"114 697 LINE",
"113 696 LINE",
"156 696 LINE SMOOTH",
"220 696 OFFCURVE",
"242 648 OFFCURVE",
"227 539 CURVE SMOOTH",
"213 445 LINE",
"199 341 OFFCURVE",
"162 293 OFFCURVE",
"99 293 CURVE SMOOTH",
"56 293 LINE",
"55 289 LINE",
"98 289 LINE SMOOTH",
"164 289 OFFCURVE",
"202 339 OFFCURVE",
"217 445 CURVE SMOOTH",
"231 539 LINE",
"246 650 OFFCURVE",
"223 700 OFFCURVE",
"156 700 CURVE SMOOTH",
"110 700 LINE"
);
},
{
closed = 1;
nodes = (
"157 0 LINE",
"161 0 LINE",
"137 297 LINE",
"133 297 LINE"
);
}
);
width = 229;
},
{
anchors = (
{
name = bottom;
position = "{198, 0}";
},
{
name = top;
position = "{285, 700}";
}
);
layerId = "46E74328-601B-43A9-9281-7B741E5F83E4";
paths = (
{
closed = 1;
nodes = (
"37 0 LINE",
"97 0 LINE",
"191 672 LINE",
"175 650 LINE",
"270 650 LINE SMOOTH",
"350 650 OFFCURVE",
"381 608 OFFCURVE",
"368 516 CURVE SMOOTH",
"359 448 LINE SMOOTH",
"347 361 OFFCURVE",
"303 320 OFFCURVE",
"224 320 CURVE SMOOTH",
"139 320 LINE",
"132 270 LINE",
"232 270 LINE SMOOTH",
"340 270 OFFCURVE",
"402 329 OFFCURVE",
"419 448 CURVE SMOOTH",
"428 516 LINE SMOOTH",
"446 640 OFFCURVE",
"401 700 OFFCURVE",
"292 700 CURVE SMOOTH",
"135 700 LINE"
);
},
{
closed = 1;
nodes = (
"304 0 LINE",
"364 0 LINE",
"309 286 LINE",
"249 286 LINE"
);
}
);
width = 440;
},
{
anchors = (
{
name = bottom;
position = "{282, 0}";
},
{
name = top;
position = "{354, 700}";
}
);
guideLines = (
{
angle = 91.664;
position = "{579, 484}";
},
{
angle = 271.548;
position = "{391, 663}";
},
{
angle = 224.538;
position = "{640, 700}";
}
);
layerId = "ECB9DAFA-B085-4474-A032-AB3BEA4F5B4C";
paths = (
{
closed = 1;
nodes = (
"72 0 LINE",
"76 0 LINE",
"174 698 LINE",
"172 696 LINE",
"370 696 LINE SMOOTH",
"511 696 OFFCURVE",
"567 632 OFFCURVE",
"547 494 CURVE SMOOTH",
"546 485 LINE SMOOTH",
"527 353 OFFCURVE",
"450 288 OFFCURVE",
"312 288 CURVE SMOOTH",
"114 288 LINE",
"114 284 LINE",
"312 284 LINE SMOOTH",
"452 284 OFFCURVE",
"531 351 OFFCURVE",
"550 485 CURVE SMOOTH",
"551 494 LINE SMOOTH",
"571 634 OFFCURVE",
"513 700 OFFCURVE",
"370 700 CURVE SMOOTH",
"170 700 LINE"
);
},
{
closed = 1;
nodes = (
"490 0 LINE",
"495 0 LINE",
"389 294 LINE",
"385 293 LINE"
);
}
);
width = 588;
},
{
anchors = (
{
name = bottom;
position = "{265, 0}";
},
{
name = top;
position = "{346, 700}";
}
);
layerId = "287B816B-C6D9-4D62-948A-F2FEA8E41A5A";
paths = (
{
closed = 1;
nodes = (
"52 0 LINE",
"112 0 LINE",
"206 673 LINE",
"189 650 LINE",
"346 650 LINE SMOOTH",
"461 650 OFFCURVE",
"506 605 OFFCURVE",
"491 500 CURVE SMOOTH",
"486 463 LINE SMOOTH",
"472 364 OFFCURVE",
"413 318 OFFCURVE",
"300 318 CURVE SMOOTH",
"153 318 LINE",
"145 268 LINE",
"312 268 LINE SMOOTH",
"446 268 OFFCURVE",
"524 334 OFFCURVE",
"542 463 CURVE SMOOTH",
"547 500 LINE SMOOTH",
"566 634 OFFCURVE",
"509 700 OFFCURVE",
"373 700 CURVE SMOOTH",
"150 700 LINE"
);
},
{
closed = 1;
nodes = (
"426 0 LINE",
"488 0 LINE",
"404 285 LINE",
"343 285 LINE"
);
}
);
width = 571;
}
);
leftKerningGroup = public.kern2.H;
rightKerningGroup = public.kern1.R;
unicode = 0052;
},
{
glyphname = S;
layers = (
{
anchors = (
{
name = bottom;
position = "{309, 0}";
},
{
name = top;
position = "{407, 700}";
}
);
guideLines = (
{
angle = 165.051;
position = "{303, 265}";
}
);
layerId = "3C3B4AE3-80BB-44A4-A3CD-A752C08638B1";
paths = (
{
closed = 1;
nodes = (
"512 -10 OFFCURVE",
"636 66 OFFCURVE",
"657 215 CURVE SMOOTH",
"692 467 OFFCURVE",
"347 411 OFFCURVE",
"357 488 CURVE",
"360 504 OFFCURVE",
"375 515 OFFCURVE",
"389 515 CURVE SMOOTH",
"410 515 OFFCURVE",
"422 498 OFFCURVE",
"419 465 CURVE",
"702 485 LINE",
"704 647 OFFCURVE",
"616 715 OFFCURVE",
"412 715 CURVE SMOOTH",
"213 715 OFFCURVE",
"79 635 OFFCURVE",
"58 487 CURVE SMOOTH",
"24 244 OFFCURVE",
"370 300 OFFCURVE",
"358 216 CURVE SMOOTH",
"356 200 OFFCURVE",
"342 190 OFFCURVE",
"327 190 CURVE SMOOTH",
"305 190 OFFCURVE",
"297 210 OFFCURVE",
"297 246 CURVE",
"16 234 LINE",
"17 71 OFFCURVE",
"97 -10 OFFCURVE",
"294 -10 CURVE SMOOTH"
);
}
);
width = 693;
},
{
anchors = (
{
name = bottom;
position = "{277, 0}";
},
{
name = top;
position = "{386, 700}";
}
);
guideLines = (
{
angle = 343.791;
position = "{296, 266}";
},
{
angle = 215.676;
position = "{376, 308}";
}
);
layerId = "463395A0-2DFC-45D4-87AF-EBCF54FF53ED";
paths = (
{
closed = 1;
nodes = (
"457 -9 OFFCURVE",
"570 63 OFFCURVE",
"589 198 CURVE SMOOTH",
"628 476 OFFCURVE",
"285 397 OFFCURVE",
"301 512 CURVE SMOOTH",
"306 547 OFFCURVE",
"332 568 OFFCURVE",
"368 568 CURVE SMOOTH",
"411 568 OFFCURVE",
"430 540 OFFCURVE",
"426 483 CURVE",
"638 498 LINE",
"643 646 OFFCURVE",
"563 712 OFFCURVE",
"382 712 CURVE SMOOTH",
"199 712 OFFCURVE",
"85 637 OFFCURVE",
"66 505 CURVE SMOOTH",
"27 229 OFFCURVE",
"370 308 OFFCURVE",
"354 192 CURVE SMOOTH",
"349 156 OFFCURVE",
"324 136 OFFCURVE",
"286 136 CURVE SMOOTH",
"243 136 OFFCURVE",
"225 166 OFFCURVE",
"227 228 CURVE",
"16 220 LINE",
"13 62 OFFCURVE",
"91 -9 OFFCURVE",
"266 -9 CURVE SMOOTH"
);
}
);
width = 630;
},
{
anchors = (
{
name = bottom;
position = "{369, 0}";
},
{
name = top;
position = "{467, 700}";
}
);
guideLines = (
{
angle = 278.13;
position = "{17, 238}";
},
{
angle = 348.486;
position = "{586, 425}";
},
{
angle = 209.358;
position = "{467, 305}";
}
);
layerId = "B66266A1-0CD1-42BF-9957-E58294B85305";
paths = (
{
closed = 1;
nodes = (
"599 -10 OFFCURVE",
"750 72 OFFCURVE",
"770 217 CURVE SMOOTH",
"808 485 OFFCURVE",
"375 400 OFFCURVE",
"388 494 CURVE SMOOTH",
"391 513 OFFCURVE",
"414 525 OFFCURVE",
"448 525 CURVE SMOOTH",
"493 525 OFFCURVE",
"515 505 OFFCURVE",
"513 465 CURVE",
"817 485 LINE",
"822 639 OFFCURVE",
"710 715 OFFCURVE",
"481 715 CURVE SMOOTH",
"240 715 OFFCURVE",
"88 632 OFFCURVE",
"68 489 CURVE SMOOTH",
"31 226 OFFCURVE",
"463 304 OFFCURVE",
"450 212 CURVE SMOOTH",
"447 191 OFFCURVE",
"427 180 OFFCURVE",
"394 180 CURVE SMOOTH",
"350 180 OFFCURVE",
"324 205 OFFCURVE",
"322 246 CURVE",
"21 234 LINE",
"19 64 OFFCURVE",
"120 -10 OFFCURVE",
"354 -10 CURVE SMOOTH"
);
}
);
width = 813;
},
{
anchors = (
{
name = bottom;
position = "{343, -1}";
},
{
name = top;
position = "{456, 700}";
}
);
layerId = "3B401755-81E4-40F3-BD5E-9424281583CA";
paths = (
{
closed = 1;
nodes = (
"558 -9 OFFCURVE",
"700 72 OFFCURVE",
"720 211 CURVE SMOOTH",
"758 485 OFFCURVE",
"331 393 OFFCURVE",
"347 502 CURVE SMOOTH",
"351 534 OFFCURVE",
"382 555 OFFCURVE",
"425 555 CURVE SMOOTH",
"487 555 OFFCURVE",
"516 528 OFFCURVE",
"514 475 CURVE",
"767 492 LINE",
"772 640 OFFCURVE",
"668 713 OFFCURVE",
"453 713 CURVE SMOOTH",
"230 713 OFFCURVE",
"88 634 OFFCURVE",
"69 498 CURVE SMOOTH",
"30 217 OFFCURVE",
"456 308 OFFCURVE",
"442 203 CURVE SMOOTH",
"437 169 OFFCURVE",
"408 149 OFFCURVE",
"364 149 CURVE SMOOTH",
"304 149 OFFCURVE",
"271 182 OFFCURVE",
"271 239 CURVE",
"19 229 LINE",
"16 64 OFFCURVE",
"112 -9 OFFCURVE",
"332 -9 CURVE SMOOTH"
);
}
);
width = 762;
},
{
anchors = (
{
name = bottom;
position = "{77, -2}";
},
{
name = top;
position = "{179, 700}";
}
);
guideLines = (
{
angle = 332.403;
position = "{334, 375}";
}
);
layerId = "3D671699-C126-4AA5-A66F-47C26817AED2";
paths = (
{
closed = 1;
nodes = (
"136 -5 OFFCURVE",
"168 39 OFFCURVE",
"182 139 CURVE SMOOTH",
"211 348 OFFCURVE",
"52 357 OFFCURVE",
"81 561 CURVE SMOOTH",
"95 658 OFFCURVE",
"126 701 OFFCURVE",
"182 701 CURVE SMOOTH",
"237 701 OFFCURVE",
"254 653 OFFCURVE",
"241 540 CURVE",
"245 540 LINE",
"259 656 OFFCURVE",
"239 705 OFFCURVE",
"182 705 CURVE SMOOTH",
"123 705 OFFCURVE",
"91 661 OFFCURVE",
"77 561 CURVE SMOOTH",
"48 356 OFFCURVE",
"207 347 OFFCURVE",
"178 139 CURVE SMOOTH",
"164 41 OFFCURVE",
"134 -1 OFFCURVE",
"77 -1 CURVE SMOOTH",
"23 -1 OFFCURVE",
"5 48 OFFCURVE",
"18 160 CURVE",
"14 160 LINE",
"0 44 OFFCURVE",
"20 -5 OFFCURVE",
"77 -5 CURVE SMOOTH"
);
}
);
width = 236;
},
{
anchors = (
{
name = bottom;
position = "{178, 0}";
},
{
name = top;
position = "{277, 700}";
}
);
guideLines = (
{
angle = 89.063;
position = "{356, 159}";
},
{
angle = 35.628;
position = "{424, 401}";
}
);
layerId = "46E74328-601B-43A9-9281-7B741E5F83E4";
paths = (
{
closed = 1;
nodes = (
"287 -7 OFFCURVE",
"357 59 OFFCURVE",
"374 179 CURVE SMOOTH",
"406 405 OFFCURVE",
"122 357 OFFCURVE",
"148 542 CURVE SMOOTH",
"159 615 OFFCURVE",
"199 653 OFFCURVE",
"268 653 CURVE SMOOTH",
"343 653 OFFCURVE",
"373 612 OFFCURVE",
"365 521 CURVE",
"424 526 LINE",
"434 649 OFFCURVE",
"388 707 OFFCURVE",
"276 707 CURVE SMOOTH",
"168 707 OFFCURVE",
"104 651 OFFCURVE",
"88 542 CURVE",
"56 310 OFFCURVE",
"340 359 OFFCURVE",
"314 178 CURVE SMOOTH",
"302 94 OFFCURVE",
"256 47 OFFCURVE",
"183 47 CURVE SMOOTH",
"107 47 OFFCURVE",
"78 89 OFFCURVE",
"85 188 CURVE",
"26 187 LINE",
"17 52 OFFCURVE",
"63 -7 OFFCURVE",
"175 -7 CURVE SMOOTH"
);
}
);
width = 427;
},
{
anchors = (
{
name = bottom;
position = "{259, -2}";
},
{
name = top;
position = "{439, 700}";
}
);
guideLines = (
{
angle = 166.316;
position = "{372, 329}";
}
);
layerId = "ECB9DAFA-B085-4474-A032-AB3BEA4F5B4C";
paths = (
{
closed = 1;
nodes = (
"394 -5 OFFCURVE",
"492 60 OFFCURVE",
"506 159 CURVE SMOOTH",
"541 407 OFFCURVE",
"87 285 OFFCURVE",
"123 540 CURVE SMOOTH",
"137 640 OFFCURVE",
"224 701 OFFCURVE",
"355 701 CURVE SMOOTH",
"499 701 OFFCURVE",
"563 644 OFFCURVE",
"556 524 CURVE",
"561 525 LINE",
"570 646 OFFCURVE",
"502 705 OFFCURVE",
"356 705 CURVE SMOOTH",
"223 705 OFFCURVE",
"133 642 OFFCURVE",
"119 540 CURVE SMOOTH",
"82 281 OFFCURVE",
"536 403 OFFCURVE",
"502 159 CURVE SMOOTH",
"489 62 OFFCURVE",
"393 -1 OFFCURVE",
"259 -1 CURVE SMOOTH",
"116 -1 OFFCURVE",
"48 67 OFFCURVE",
"54 206 CURVE",
"50 206 LINE",
"43 64 OFFCURVE",
"111 -5 OFFCURVE",
"258 -5 CURVE SMOOTH"
);
}
);
width = 584;
},
{
anchors = (
{
name = bottom;
position = "{257, -2}";
},
{
name = top;
position = "{396, 700}";
}
);
guideLines = (
{
angle = 204.008;
position = "{585, 456}";
},
{
angle = 193.608;
position = "{323, 352}";
}
);
layerId = "287B816B-C6D9-4D62-948A-F2FEA8E41A5A";
paths = (
{
closed = 1;
nodes = (
"402 -7 OFFCURVE",
"504 65 OFFCURVE",
"520 178 CURVE SMOOTH",
"559 456 OFFCURVE",
"131 310 OFFCURVE",
"162 530 CURVE SMOOTH",
"173 608 OFFCURVE",
"242 653 OFFCURVE",
"347 653 CURVE SMOOTH",
"460 653 OFFCURVE",
"510 609 OFFCURVE",
"505 516 CURVE",
"570 521 LINE",
"579 644 OFFCURVE",
"506 707 OFFCURVE",
"354 707 CURVE SMOOTH",
"210 707 OFFCURVE",
"118 642 OFFCURVE",
"102 530 CURVE SMOOTH",
"63 248 OFFCURVE",
"490 394 OFFCURVE",
"460 178 CURVE SMOOTH",
"448 97 OFFCURVE",
"374 47 OFFCURVE",
"265 47 CURVE SMOOTH",
"153 47 OFFCURVE",
"100 98 OFFCURVE",
"103 205 CURVE",
"39 202 LINE",
"31 59 OFFCURVE",
"100 -7 OFFCURVE",
"258 -7 CURVE SMOOTH"
);
}
);
width = 584;
}
);
leftKerningGroup = public.kern2.S;
rightKerningGroup = public.kern1.S;
unicode = 0053;
},
{
glyphname = T;
layers = (
{
anchors = (
{
name = bottom;
position = "{244, 0}";
},
{
name = center;
position = "{286, 300}";
},
{
name = top;
position = "{342, 700}";
}
);
layerId = "3C3B4AE3-80BB-44A4-A3CD-A752C08638B1";
paths = (
{
closed = 1;
nodes = (
"64 700 LINE",
"36 500 LINE",
"308 500 LINE",
"180 614 LINE",
"94 0 LINE",
"394 0 LINE",
"480 614 LINE",
"319 500 LINE",
"592 500 LINE",
"620 700 LINE"
);
}
);
width = 564;
},
{
anchors = (
{
name = bottom;
position = "{221, 0}";
},
{
name = center;
position = "{266, 320}";
},
{
name = top;
position = "{319, 700}";
}
);
layerId = "463395A0-2DFC-45D4-87AF-EBCF54FF53ED";
paths = (
{
closed = 1;
nodes = (
"65 700 LINE",
"45 553 LINE",
"294 553 LINE",
"200 637 LINE",
"111 0 LINE",
"331 0 LINE",
"420 637 LINE",
"302 553 LINE",
"553 553 LINE",
"573 700 LINE"
);
}
);
width = 518;
},
{
anchors = (
{
name = bottom;
position = "{284, 0}";
},
{
name = center;
position = "{326, 300}";
},
{
name = top;
position = "{382, 700}";
}
);
layerId = "B66266A1-0CD1-42BF-9957-E58294B85305";
paths = (
{
closed = 1;
nodes = (
"64 700 LINE",
"36 500 LINE",
"348 500 LINE",
"220 614 LINE",
"134 0 LINE",
"434 0 LINE",
"520 614 LINE",
"359 500 LINE",
"672 500 LINE",
"700 700 LINE"
);
}
);
width = 644;
},
{
anchors = (
{
name = bottom;
position = "{269, 0}";
},
{
name = center;
position = "{314, 320}";
},
{
name = top;
position = "{367, 700}";
}
);
layerId = "3B401755-81E4-40F3-BD5E-9424281583CA";
paths = (
{
closed = 1;
nodes = (
"65 700 LINE",
"42 533 LINE",
"339 533 LINE",
"232 628 LINE",
"144 0 LINE",
"394 0 LINE",
"482 628 LINE",
"348 533 LINE",
"646 533 LINE",
"669 700 LINE"
);
}
);
width = 614;
},
{
anchors = (
{
name = bottom;
position = "{65, 0}";
},
{
name = center;
position = "{114, 350}";
},
{
name = top;
position = "{163, 700}";
}
);
layerId = "3D671699-C126-4AA5-A66F-47C26817AED2";
paths = (
{
closed = 1;
nodes = (
"65 700 LINE",
"65 696 LINE",
"162 696 LINE",
"161 698 LINE",
"63 0 LINE",
"67 0 LINE",
"165 698 LINE",
"164 696 LINE",
"261 696 LINE",
"261 700 LINE"
);
}
);
width = 206;
},
{
anchors = (
{
name = bottom;
position = "{140, 0}";
},
{
name = center;
position = "{189, 350}";
},
{
name = top;
position = "{238, 700}";
}
);
layerId = "46E74328-601B-43A9-9281-7B741E5F83E4";
paths = (
{
closed = 1;
nodes = (
"68 700 LINE",
"61 646 LINE",
"228 646 LINE",
"206 682 LINE",
"110 0 LINE",
"170 0 LINE",
"266 682 LINE",
"231 646 LINE",
"400 646 LINE",
"407 700 LINE"
);
}
);
width = 355;
},
{
anchors = (
{
name = bottom;
position = "{197, 0}";
},
{
name = center;
position = "{247, 350}";
},
{
name = top;
position = "{295, 700}";
}
);
layerId = "ECB9DAFA-B085-4474-A032-AB3BEA4F5B4C";
paths = (
{
closed = 1;
nodes = (
"71 700 LINE",
"71 696 LINE",
"295 696 LINE",
"293 698 LINE",
"195 0 LINE",
"199 0 LINE",
"297 698 LINE",
"295 696 LINE",
"519 696 LINE",
"519 700 LINE"
);
}
);
width = 470;
},
{
anchors = (
{
name = bottom;
position = "{197, 0}";
},
{
name = center;
position = "{246, 350}";
},
{
name = top;
position = "{295, 700}";
}
);
layerId = "287B816B-C6D9-4D62-948A-F2FEA8E41A5A";
paths = (
{
closed = 1;
nodes = (
"69 700 LINE",
"62 646 LINE",
"286 646 LINE",
"262 679 LINE",
"167 0 LINE",
"227 0 LINE",
"322 679 LINE",
"288 646 LINE",
"514 646 LINE",
"521 700 LINE"
);
}
);
width = 470;
}
);
leftKerningGroup = public.kern2.T;
rightKerningGroup = public.kern1.T;
unicode = 0054;
},
{
glyphname = U;
layers = (
{
anchors = (
{
name = bottom;
position = "{331, 0}";
},
{
name = ogonek;
position = "{424, 0}";
},
{
name = top;
position = "{429, 700}";
},
{
name = topright;
position = "{758, 700}";
}
);
layerId = "3C3B4AE3-80BB-44A4-A3CD-A752C08638B1";
paths = (
{
closed = 1;
nodes = (
"518 -15 OFFCURVE",
"674 103 OFFCURVE",
"696 256 CURVE SMOOTH",
"758 700 LINE",
"458 700 LINE",
"391 225 LINE",
"388 198 OFFCURVE",
"376 185 OFFCURVE",
"356 185 CURVE SMOOTH",
"336 185 OFFCURVE",
"328 198 OFFCURVE",
"331 225 CURVE",
"398 700 LINE",
"98 700 LINE",
"36 256 LINE SMOOTH",
"11 81 OFFCURVE",
"112 -15 OFFCURVE",
"328 -15 CURVE SMOOTH"
);
}
);
width = 736;
},
{
anchors = (
{
name = bottom;
position = "{303, 0}";
},
{
name = ogonek;
position = "{352, -1}";
},
{
name = top;
position = "{401, 700}";
},
{
name = topright;
position = "{692, 700}";
}
);
layerId = "463395A0-2DFC-45D4-87AF-EBCF54FF53ED";
paths = (
{
closed = 1;
nodes = (
"463 -12 OFFCURVE",
"606 82 OFFCURVE",
"629 240 CURVE",
"693 700 LINE",
"473 700 LINE",
"406 221 LINE SMOOTH",
"398 163 OFFCURVE",
"369 135 OFFCURVE",
"321 135 CURVE SMOOTH",
"273 135 OFFCURVE",
"252 163 OFFCURVE",
"260 221 CURVE SMOOTH",
"327 700 LINE",
"107 700 LINE",
"43 240 LINE SMOOTH",
"19 71 OFFCURVE",
"107 -12 OFFCURVE",
"300 -12 CURVE SMOOTH"
);
}
);
width = 680;
},
{
anchors = (
{
name = bottom;
position = "{385, 0}";
},
{
name = ogonek;
position = "{451, 0}";
},
{
name = top;
position = "{483, 700}";
},
{
name = topright;
position = "{866, 700}";
}
);
layerId = "B66266A1-0CD1-42BF-9957-E58294B85305";
paths = (
{
closed = 1;
nodes = (
"563 -15 OFFCURVE",
"778 69 OFFCURVE",
"808 286 CURVE SMOOTH",
"866 700 LINE",
"566 700 LINE",
"506 273 LINE SMOOTH",
"498 214 OFFCURVE",
"465 185 OFFCURVE",
"410 185 CURVE SMOOTH",
"354 185 OFFCURVE",
"330 214 OFFCURVE",
"338 273 CURVE SMOOTH",
"398 700 LINE",
"98 700 LINE",
"40 286 LINE SMOOTH",
"10 69 OFFCURVE",
"128 -15 OFFCURVE",
"382 -15 CURVE SMOOTH"
);
}
);
width = 844;
},
{
anchors = (
{
name = bottom;
position = "{369, 0}";
},
{
name = ogonek;
position = "{426, -1}";
},
{
name = top;
position = "{467, 700}";
},
{
name = topright;
position = "{823, 700}";
}
);
layerId = "3B401755-81E4-40F3-BD5E-9424281583CA";
paths = (
{
closed = 1;
nodes = (
"542 -13 OFFCURVE",
"735 70 OFFCURVE",
"764 276 CURVE SMOOTH",
"823 700 LINE",
"573 700 LINE",
"512 266 LINE SMOOTH",
"502 191 OFFCURVE",
"460 154 OFFCURVE",
"389 154 CURVE SMOOTH",
"318 154 OFFCURVE",
"288 191 OFFCURVE",
"298 266 CURVE SMOOTH",
"359 700 LINE",
"109 700 LINE",
"50 276 LINE SMOOTH",
"21 70 OFFCURVE",
"130 -13 OFFCURVE",
"366 -13 CURVE SMOOTH"
);
}
);
width = 812;
},
{
anchors = (
{
name = bottom;
position = "{92, 0}";
},
{
name = ogonek;
position = "{96, -4}";
},
{
name = top;
position = "{190, 700}";
},
{
name = topright;
position = "{275, 700}";
}
);
layerId = "3D671699-C126-4AA5-A66F-47C26817AED2";
paths = (
{
closed = 1;
nodes = (
"148 -5 OFFCURVE",
"182 37 OFFCURVE",
"194 122 CURVE SMOOTH",
"275 700 LINE",
"271 700 LINE",
"190 122 LINE SMOOTH",
"178 39 OFFCURVE",
"147 -1 OFFCURVE",
"93 -1 CURVE SMOOTH",
"39 -1 OFFCURVE",
"18 39 OFFCURVE",
"30 122 CURVE SMOOTH",
"111 700 LINE",
"107 700 LINE",
"26 122 LINE SMOOTH",
"14 37 OFFCURVE",
"36 -5 OFFCURVE",
"92 -5 CURVE SMOOTH"
);
}
);
width = 263;
},
{
anchors = (
{
name = bottom;
position = "{206, 0}";
},
{
name = ogonek;
position = "{223, -4}";
},
{
name = top;
position = "{304, 700}";
},
{
name = topright;
position = "{476, 700}";
}
);
layerId = "46E74328-601B-43A9-9281-7B741E5F83E4";
paths = (
{
closed = 1;
nodes = (
"310 -7 OFFCURVE",
"387 56 OFFCURVE",
"404 179 CURVE SMOOTH",
"477 700 LINE",
"417 700 LINE",
"344 179 LINE SMOOTH",
"332 91 OFFCURVE",
"287 47 OFFCURVE",
"212 47 CURVE SMOOTH",
"136 47 OFFCURVE",
"106 91 OFFCURVE",
"118 179 CURVE SMOOTH",
"191 700 LINE",
"131 700 LINE",
"58 179 LINE SMOOTH",
"40 54 OFFCURVE",
"90 -7 OFFCURVE",
"205 -7 CURVE SMOOTH"
);
}
);
width = 488;
},
{
anchors = (
{
name = bottom;
position = "{293, 0}";
},
{
name = ogonek;
position = "{301, -4}";
},
{
name = top;
position = "{391, 700}";
},
{
name = topright;
position = "{610, 700}";
}
);
layerId = "ECB9DAFA-B085-4474-A032-AB3BEA4F5B4C";
paths = (
{
closed = 1;
nodes = (
"438 -5 OFFCURVE",
"524 74 OFFCURVE",
"546 229 CURVE SMOOTH",
"612 700 LINE",
"608 700 LINE",
"542 229 LINE SMOOTH",
"520 76 OFFCURVE",
"437 -1 OFFCURVE",
"292 -1 CURVE SMOOTH",
"145 -1 OFFCURVE",
"81 76 OFFCURVE",
"103 229 CURVE SMOOTH",
"169 700 LINE",
"165 700 LINE",
"99 229 LINE SMOOTH",
"77 74 OFFCURVE",
"142 -5 OFFCURVE",
"291 -5 CURVE SMOOTH"
);
}
);
width = 657;
},
{
anchors = (
{
name = bottom;
position = "{288, 0}";
},
{
name = ogonek;
position = "{307, -4}";
},
{
name = top;
position = "{386, 700}";
},
{
name = topright;
position = "{622, 700}";
}
);
layerId = "287B816B-C6D9-4D62-948A-F2FEA8E41A5A";
paths = (
{
closed = 1;
nodes = (
"439 -7 OFFCURVE",
"536 78 OFFCURVE",
"557 229 CURVE SMOOTH",
"623 700 LINE",
"563 700 LINE",
"497 229 LINE SMOOTH",
"480 109 OFFCURVE",
"411 47 OFFCURVE",
"294 47 CURVE SMOOTH",
"166 47 OFFCURVE",
"122 100 OFFCURVE",
"140 229 CURVE SMOOTH",
"206 700 LINE",
"146 700 LINE",
"80 229 LINE SMOOTH",
"58 69 OFFCURVE",
"124 -7 OFFCURVE",
"287 -7 CURVE SMOOTH"
);
}
);
width = 649;
}
);
leftKerningGroup = public.kern2.U;
rightKerningGroup = public.kern1.U;
unicode = 0055;
},
{
glyphname = V;
layers = (
{
layerId = "3C3B4AE3-80BB-44A4-A3CD-A752C08638B1";
paths = (
{
closed = 1;
nodes = (
"59 0 LINE",
"585 0 LINE",
"776 700 LINE",
"478 700 LINE",
"349 178 LINE",
"345 178 LINE",
"362 700 LINE",
"64 700 LINE"
);
}
);
width = 720;
},
{
layerId = "463395A0-2DFC-45D4-87AF-EBCF54FF53ED";
paths = (
{
closed = 1;
nodes = (
"99 0 LINE",
"478 0 LINE",
"708 700 LINE",
"489 700 LINE",
"308 131 LINE",
"305 131 LINE",
"284 700 LINE",
"65 700 LINE"
);
}
);
width = 653;
},
{
layerId = "B66266A1-0CD1-42BF-9957-E58294B85305";
paths = (
{
closed = 1;
nodes = (
"142 0 LINE",
"642 0 LINE",
"916 700 LINE",
"616 700 LINE",
"419 178 LINE",
"415 178 LINE",
"364 700 LINE",
"64 700 LINE"
);
}
);
width = 860;
},
{
layerId = "3B401755-81E4-40F3-BD5E-9424281583CA";
paths = (
{
closed = 1;
nodes = (
"155 0 LINE",
"572 0 LINE",
"858 700 LINE",
"608 700 LINE",
"386 148 LINE",
"383 148 LINE",
"315 700 LINE",
"65 700 LINE"
);
}
);
width = 803;
},
{
layerId = "3D671699-C126-4AA5-A66F-47C26817AED2";
paths = (
{
closed = 1;
nodes = (
"80 -1 LINE",
"87 -1 LINE",
"288 700 LINE",
"284 700 LINE",
"84 3 LINE",
"83 3 LINE",
"79 700 LINE",
"75 700 LINE"
);
}
);
width = 243;
},
{
layerId = "46E74328-601B-43A9-9281-7B741E5F83E4";
paths = (
{
closed = 1;
nodes = (
"120 -1 LINE",
"218 -1 LINE",
"466 700 LINE",
"406 700 LINE",
"177 46 LINE",
"173 46 LINE",
"128 700 LINE",
"68 700 LINE"
);
}
);
width = 414;
},
{
layerId = "ECB9DAFA-B085-4474-A032-AB3BEA4F5B4C";
paths = (
{
closed = 1;
nodes = (
"220 0 LINE",
"227 0 LINE",
"572 700 LINE",
"568 700 LINE",
"224 3 LINE",
"223 3 LINE",
"75 700 LINE",
"71 700 LINE"
);
}
);
width = 523;
},
{
layerId = "287B816B-C6D9-4D62-948A-F2FEA8E41A5A";
paths = (
{
closed = 1;
nodes = (
"198 -1 LINE",
"286 -1 LINE",
"610 700 LINE",
"548 700 LINE",
"251 49 LINE",
"247 49 LINE",
"131 700 LINE",
"69 700 LINE"
);
}
);
width = 559;
}
);
leftKerningGroup = public.kern2.V;
rightKerningGroup = public.kern1.V;
unicode = 0056;
},
{
glyphname = W;
layers = (
{
anchors = (
{
name = bottom;
position = "{458, 0}";
},
{
name = top;
position = "{556, 700}";
}
);
guideLines = (
{
angle = 80.508;
position = "{502, 230}";
},
{
angle = 95.63;
position = "{424, 700}";
}
);
layerId = "3C3B4AE3-80BB-44A4-A3CD-A752C08638B1";
paths = (
{
closed = 1;
nodes = (
"35 0 LINE",
"418 0 LINE",
"580 530 LINE",
"484 530 LINE",
"498 0 LINE",
"881 0 LINE",
"1048 700 LINE",
"756 700 LINE",
"611 89 LINE",
"704 89 LINE",
"692 700 LINE",
"420 700 LINE",
"236 89 LINE",
"329 89 LINE",
"356 700 LINE",
"64 700 LINE"
);
}
);
width = 992;
},
{
anchors = (
{
name = bottom;
position = "{426, 0}";
},
{
name = top;
position = "{524, 700}";
}
);
layerId = "463395A0-2DFC-45D4-87AF-EBCF54FF53ED";
paths = (
{
closed = 1;
nodes = (
"60 0 LINE",
"347 0 LINE",
"471 366 LINE",
"474 366 LINE",
"495 0 LINE",
"782 0 LINE",
"973 700 LINE",
"758 700 LINE",
"638 275 LINE",
"634 275 LINE",
"612 700 LINE",
"427 700 LINE",
"284 275 LINE",
"280 275 LINE",
"280 700 LINE",
"65 700 LINE"
);
}
);
width = 918;
},
{
anchors = (
{
name = bottom;
position = "{568, 0}";
},
{
name = top;
position = "{666, 700}";
}
);
guideLines = (
{
angle = 77.205;
position = "{560, 700}";
}
);
layerId = "B66266A1-0CD1-42BF-9957-E58294B85305";
paths = (
{
closed = 1;
nodes = (
"75 0 LINE",
"484 0 LINE",
"584 273 LINE",
"587 273 LINE",
"611 0 LINE",
"1020 0 LINE",
"1227 700 LINE",
"927 700 LINE",
"832 349 LINE",
"822 349 LINE",
"791 700 LINE",
"500 700 LINE",
"371 349 LINE",
"361 349 LINE",
"364 700 LINE",
"64 700 LINE"
);
}
);
width = 1171;
},
{
anchors = (
{
name = bottom;
position = "{532, 0}";
},
{
name = top;
position = "{630, 700}";
}
);
layerId = "3B401755-81E4-40F3-BD5E-9424281583CA";
paths = (
{
closed = 1;
nodes = (
"87 0 LINE",
"428 0 LINE",
"562 345 LINE",
"564 345 LINE",
"602 0 LINE",
"943 0 LINE",
"1161 700 LINE",
"911 700 LINE",
"786 291 LINE",
"778 291 LINE",
"735 700 LINE",
"492 700 LINE",
"334 291 LINE",
"326 291 LINE",
"315 700 LINE",
"65 700 LINE"
);
}
);
width = 1106;
},
{
anchors = (
{
name = bottom;
position = "{171, 0}";
},
{
name = top;
position = "{269, 700}";
}
);
layerId = "3D671699-C126-4AA5-A66F-47C26817AED2";
paths = (
{
closed = 1;
nodes = (
"64 -1 LINE",
"71 -1 LINE",
"268 696 LINE",
"270 696 LINE",
"270 -1 LINE",
"277 -1 LINE",
"462 700 LINE",
"458 700 LINE",
"274 3 LINE",
"273 3 LINE",
"273 700 LINE",
"265 700 LINE",
"68 3 LINE",
"67 3 LINE",
"79 700 LINE",
"75 700 LINE"
);
}
);
width = 417;
},
{
anchors = (
{
name = bottom;
position = "{282, 0}";
},
{
name = top;
position = "{380, 700}";
}
);
layerId = "46E74328-601B-43A9-9281-7B741E5F83E4";
paths = (
{
closed = 1;
nodes = (
"80 -1 LINE",
"179 -1 LINE",
"364 611 LINE",
"368 611 LINE",
"381 -1 LINE",
"480 -1 LINE",
"688 700 LINE",
"629 700 LINE",
"437 46 LINE",
"433 46 LINE",
"418 700 LINE",
"338 700 LINE",
"139 46 LINE",
"135 46 LINE",
"127 700 LINE",
"68 700 LINE"
);
}
);
width = 636;
},
{
anchors = (
{
name = bottom;
position = "{356, 0}";
},
{
name = top;
position = "{454, 700}";
}
);
layerId = "ECB9DAFA-B085-4474-A032-AB3BEA4F5B4C";
paths = (
{
closed = 1;
nodes = (
"148 0 LINE",
"155 0 LINE",
"453 697 LINE",
"454 697 LINE",
"556 0 LINE",
"563 0 LINE",
"835 700 LINE",
"831 700 LINE",
"560 3 LINE",
"559 3 LINE",
"457 700 LINE",
"450 700 LINE",
"152 3 LINE",
"151 3 LINE",
"75 700 LINE",
"71 700 LINE"
);
}
);
width = 786;
},
{
anchors = (
{
name = bottom;
position = "{382, 0}";
},
{
name = top;
position = "{480, 700}";
}
);
layerId = "287B816B-C6D9-4D62-948A-F2FEA8E41A5A";
paths = (
{
closed = 1;
nodes = (
"125 -1 LINE",
"221 -1 LINE",
"461 625 LINE",
"463 625 LINE",
"528 -1 LINE",
"624 -1 LINE",
"875 700 LINE",
"813 700 LINE",
"586 48 LINE",
"581 48 LINE",
"514 700 LINE",
"430 700 LINE",
"181 48 LINE",
"177 48 LINE",
"131 700 LINE",
"69 700 LINE"
);
}
);
width = 824;
}
);
leftKerningGroup = public.kern2.W;
rightKerningGroup = public.kern1.W;
unicode = 0057;
},
{
glyphname = X;
layers = (
{
layerId = "3C3B4AE3-80BB-44A4-A3CD-A752C08638B1";
paths = (
{
closed = 1;
nodes = (
"382 0 LINE",
"724 0 LINE",
"410 700 LINE",
"68 700 LINE"
);
},
{
closed = 1;
nodes = (
"-34 0 LINE",
"283 0 LINE",
"449 293 LINE",
"214 398 LINE"
);
},
{
closed = 1;
nodes = (
"570 302 LINE",
"818 700 LINE",
"501 700 LINE",
"335 407 LINE"
);
}
);
width = 766;
},
{
layerId = "463395A0-2DFC-45D4-87AF-EBCF54FF53ED";
paths = (
{
closed = 1;
nodes = (
"382 0 LINE",
"633 0 LINE",
"321 700 LINE",
"70 700 LINE"
);
},
{
closed = 1;
nodes = (
"-33 0 LINE",
"200 0 LINE",
"401 316 LINE",
"229 394 LINE"
);
},
{
closed = 1;
nodes = (
"467 309 LINE",
"728 700 LINE",
"495 700 LINE",
"295 387 LINE"
);
}
);
width = 676;
},
{
layerId = "B66266A1-0CD1-42BF-9957-E58294B85305";
paths = (
{
closed = 1;
nodes = (
"472 0 LINE",
"814 0 LINE",
"410 700 LINE",
"68 700 LINE"
);
},
{
closed = 1;
nodes = (
"-34 0 LINE",
"283 0 LINE",
"543 323 LINE",
"308 428 LINE"
);
},
{
closed = 1;
nodes = (
"566 272 LINE",
"908 700 LINE",
"591 700 LINE",
"331 377 LINE"
);
}
);
width = 856;
},
{
layerId = "3B401755-81E4-40F3-BD5E-9424281583CA";
paths = (
{
closed = 1;
nodes = (
"468 0 LINE",
"753 0 LINE",
"356 700 LINE",
"71 700 LINE"
);
},
{
closed = 1;
nodes = (
"-33 0 LINE",
"231 0 LINE",
"496 328 LINE",
"300 416 LINE"
);
},
{
closed = 1;
nodes = (
"515 286 LINE",
"848 700 LINE",
"583 700 LINE",
"319 374 LINE"
);
}
);
width = 796;
},
{
layerId = "3D671699-C126-4AA5-A66F-47C26817AED2";
paths = (
{
closed = 1;
nodes = (
"191 0 LINE",
"195 0 LINE",
"74 700 LINE",
"70 700 LINE"
);
},
{
closed = 1;
nodes = (
"-33 0 LINE",
"-29 0 LINE",
"133 355 LINE",
"130 358 LINE"
);
},
{
closed = 1;
nodes = (
"134 355 LINE",
"293 700 LINE",
"289 700 LINE",
"131 358 LINE"
);
}
);
width = 238;
},
{
layerId = "46E74328-601B-43A9-9281-7B741E5F83E4";
paths = (
{
closed = 1;
nodes = (
"308 0 LINE",
"374 0 LINE",
"141 700 LINE",
"75 700 LINE"
);
},
{
closed = 1;
nodes = (
"-30 0 LINE",
"33 0 LINE",
"242 346 LINE",
"197 368 LINE"
);
},
{
closed = 1;
nodes = (
"250 343 LINE",
"472 700 LINE",
"409 700 LINE",
"204 365 LINE"
);
}
);
width = 419;
},
{
layerId = "ECB9DAFA-B085-4474-A032-AB3BEA4F5B4C";
paths = (
{
closed = 1;
nodes = (
"448 0 LINE",
"453 0 LINE",
"88 700 LINE",
"83 700 LINE"
);
},
{
closed = 1;
nodes = (
"-27 0 LINE",
"-22 0 LINE",
"265 353 LINE",
"264 357 LINE"
);
},
{
closed = 1;
nodes = (
"267 355 LINE",
"551 700 LINE",
"546 700 LINE",
"265 359 LINE"
);
}
);
width = 502;
},
{
layerId = "287B816B-C6D9-4D62-948A-F2FEA8E41A5A";
paths = (
{
closed = 1;
nodes = (
"424 0 LINE",
"491 0 LINE",
"146 700 LINE",
"79 700 LINE"
);
},
{
closed = 1;
nodes = (
"-29 0 LINE",
"34 0 LINE",
"314 354 LINE",
"268 377 LINE"
);
},
{
closed = 1;
nodes = (
"297 335 LINE",
"589 700 LINE",
"526 700 LINE",
"252 356 LINE"
);
}
);
width = 538;
}
);
leftKerningGroup = public.kern2.X;
rightKerningGroup = public.kern1.X;
unicode = 0058;
},
{
glyphname = Y;
layers = (
{
anchors = (
{
name = bottom;
position = "{304, 0}";
},
{
name = top;
position = "{402, 700}";
},
{
name = topleft;
position = "{64, 700}";
}
);
layerId = "3C3B4AE3-80BB-44A4-A3CD-A752C08638B1";
paths = (
{
closed = 1;
nodes = (
"189 144 LINE",
"459 144 LINE",
"740 700 LINE",
"442 700 LINE",
"377 507 LINE",
"373 507 LINE",
"362 700 LINE",
"64 700 LINE"
);
},
{
closed = 1;
nodes = (
"159 0 LINE",
"449 0 LINE",
"483 246 LINE",
"193 246 LINE"
);
}
);
width = 684;
},
{
anchors = (
{
name = bottom;
position = "{269, 0}";
},
{
name = top;
position = "{367, 700}";
},
{
name = topleft;
position = "{67, 700}";
}
);
layerId = "463395A0-2DFC-45D4-87AF-EBCF54FF53ED";
paths = (
{
closed = 1;
nodes = (
"193 177 LINE",
"394 177 LINE",
"668 700 LINE",
"445 700 LINE",
"330 424 LINE",
"326 424 LINE",
"289 700 LINE",
"65 700 LINE"
);
},
{
closed = 1;
nodes = (
"163 0 LINE",
"375 0 LINE",
"411 254 LINE",
"199 254 LINE"
);
}
);
width = 613;
},
{
anchors = (
{
name = bottom;
position = "{354, 0}";
},
{
name = top;
position = "{452, 700}";
},
{
name = topleft;
position = "{64, 700}";
}
);
layerId = "B66266A1-0CD1-42BF-9957-E58294B85305";
paths = (
{
closed = 1;
nodes = (
"239 184 LINE",
"521 184 LINE",
"840 700 LINE",
"522 700 LINE",
"420 457 LINE",
"416 457 LINE",
"382 700 LINE",
"64 700 LINE"
);
},
{
closed = 1;
nodes = (
"209 0 LINE",
"499 0 LINE",
"540 296 LINE",
"250 296 LINE"
);
}
);
width = 784;
},
{
anchors = (
{
name = bottom;
position = "{329, 0}";
},
{
name = top;
position = "{427, 700}";
},
{
name = topleft;
position = "{68, 700}";
}
);
layerId = "3B401755-81E4-40F3-BD5E-9424281583CA";
paths = (
{
closed = 1;
nodes = (
"239 192 LINE",
"474 192 LINE",
"789 700 LINE",
"525 700 LINE",
"390 421 LINE",
"387 421 LINE",
"330 700 LINE",
"65 700 LINE"
);
},
{
closed = 1;
nodes = (
"208 0 LINE",
"450 0 LINE",
"490 286 LINE",
"248 286 LINE"
);
}
);
width = 734;
},
{
anchors = (
{
name = bottom;
position = "{70, 0}";
},
{
name = top;
position = "{168, 700}";
},
{
name = topleft;
position = "{68, 700}";
}
);
layerId = "3D671699-C126-4AA5-A66F-47C26817AED2";
paths = (
{
closed = 1;
nodes = (
"100 230 LINE",
"104 230 LINE",
"268 700 LINE",
"264 700 LINE",
"105 242 LINE",
"103 242 LINE",
"72 700 LINE",
"68 700 LINE"
);
},
{
closed = 1;
nodes = (
"68 0 LINE",
"72 0 LINE",
"105 234 LINE",
"101 234 LINE"
);
}
);
width = 216;
},
{
anchors = (
{
name = bottom;
position = "{156, 0}";
},
{
name = top;
position = "{254, 700}";
},
{
name = topleft;
position = "{68, 700}";
}
);
layerId = "46E74328-601B-43A9-9281-7B741E5F83E4";
paths = (
{
closed = 1;
nodes = (
"158 229 LINE",
"218 229 LINE",
"440 700 LINE",
"379 700 LINE",
"202 317 LINE",
"198 317 LINE",
"129 700 LINE",
"68 700 LINE"
);
},
{
closed = 1;
nodes = (
"126 0 LINE",
"186 0 LINE",
"222 261 LINE",
"162 261 LINE"
);
}
);
width = 388;
},
{
anchors = (
{
name = bottom;
position = "{208, 0}";
},
{
name = top;
position = "{306, 700}";
},
{
name = topleft;
position = "{87, 700}";
}
);
layerId = "ECB9DAFA-B085-4474-A032-AB3BEA4F5B4C";
paths = (
{
closed = 1;
nodes = (
"239 234 LINE",
"243 234 LINE",
"541 700 LINE",
"537 700 LINE",
"243 241 LINE",
"241 241 LINE",
"75 700 LINE",
"71 700 LINE"
);
},
{
closed = 1;
nodes = (
"206 0 LINE",
"210 0 LINE",
"243 234 LINE",
"239 234 LINE"
);
}
);
width = 492;
},
{
anchors = (
{
name = bottom;
position = "{220, 0}";
},
{
name = top;
position = "{318, 700}";
},
{
name = topleft;
position = "{77, 700}";
}
);
layerId = "287B816B-C6D9-4D62-948A-F2FEA8E41A5A";
paths = (
{
closed = 1;
nodes = (
"222 226 LINE",
"282 226 LINE",
"567 700 LINE",
"502 700 LINE",
"262 286 LINE",
"258 286 LINE",
"134 700 LINE",
"69 700 LINE"
);
},
{
closed = 1;
nodes = (
"190 0 LINE",
"250 0 LINE",
"287 265 LINE",
"227 265 LINE"
);
}
);
width = 516;
}
);
leftKerningGroup = public.kern2.Y;
rightKerningGroup = public.kern1.Y;
unicode = 0059;
},
{
glyphname = Z;
layers = (
{
anchors = (
{
name = bottom;
position = "{276, 0}";
},
{
name = top;
position = "{374, 700}";
}
);
guideLines = (
{
angle = 268.282;
position = "{-154, 0}";
},
{
angle = 90;
position = "{201, 0}";
}
);
layerId = "3C3B4AE3-80BB-44A4-A3CD-A752C08638B1";
paths = (
{
closed = 1;
nodes = (
"-26 0 LINE",
"567 0 LINE",
"595 200 LINE",
"86 200 LINE",
"214 51 LINE",
"639 516 LINE",
"665 700 LINE",
"93 700 LINE",
"65 500 LINE",
"553 500 LINE",
"425 649 LINE",
"0 184 LINE"
);
}
);
width = 617;
},
{
anchors = (
{
name = bottom;
position = "{249, 0}";
},
{
name = top;
position = "{350, 700}";
}
);
layerId = "463395A0-2DFC-45D4-87AF-EBCF54FF53ED";
paths = (
{
closed = 1;
nodes = (
"-23 0 LINE",
"509 0 LINE",
"529 147 LINE",
"59 147 LINE",
"155 38 LINE",
"588 565 LINE",
"607 700 LINE",
"94 700 LINE",
"74 553 LINE",
"523 553 LINE",
"428 662 LINE",
"-4 135 LINE"
);
}
);
width = 562;
},
{
anchors = (
{
name = bottom;
position = "{331, 0}";
},
{
name = top;
position = "{429, 700}";
}
);
guideLines = (
{
angle = 268.282;
position = "{-263, -12}";
},
{
angle = 90;
position = "{419, 0}";
}
);
layerId = "B66266A1-0CD1-42BF-9957-E58294B85305";
paths = (
{
closed = 1;
nodes = (
"-26 0 LINE",
"657 0 LINE",
"685 200 LINE",
"86 200 LINE",
"222 51 LINE",
"729 516 LINE",
"755 700 LINE",
"93 700 LINE",
"65 500 LINE",
"637 500 LINE",
"501 649 LINE",
"0 184 LINE"
);
}
);
width = 707;
},
{
anchors = (
{
name = bottom;
position = "{311, 0}";
},
{
name = top;
position = "{413, 700}";
}
);
layerId = "3B401755-81E4-40F3-BD5E-9424281583CA";
paths = (
{
closed = 1;
nodes = (
"-22 0 LINE",
"619 0 LINE",
"643 167 LINE",
"72 167 LINE",
"185 43 LINE",
"696 547 LINE",
"718 700 LINE",
"98 700 LINE",
"74 533 LINE",
"618 533 LINE",
"506 657 LINE",
"0 153 LINE"
);
}
);
width = 674;
},
{
anchors = (
{
name = bottom;
position = "{57, 0}";
},
{
name = top;
position = "{161, 700}";
}
);
guideLines = (
{
angle = 90;
position = "{469, 0}";
}
);
layerId = "3D671699-C126-4AA5-A66F-47C26817AED2";
paths = (
{
closed = 1;
nodes = (
"-33 0 LINE",
"146 0 LINE",
"146 4 LINE",
"-31 4 LINE",
"-29 3 LINE",
"244 697 LINE",
"244 700 LINE",
"76 700 LINE",
"76 696 LINE",
"242 696 LINE",
"240 697 LINE",
"-33 3 LINE"
);
}
);
width = 189;
},
{
anchors = (
{
name = bottom;
position = "{154, 0}";
},
{
name = top;
position = "{259, 700}";
}
);
layerId = "46E74328-601B-43A9-9281-7B741E5F83E4";
paths = (
{
closed = 1;
nodes = (
"-15 0 LINE",
"319 0 LINE",
"326 54 LINE",
"30 54 LINE",
"37 11 LINE",
"412 663 LINE",
"417 700 LINE",
"98 700 LINE",
"91 646 LINE",
"371 646 LINE",
"365 689 LINE",
"-10 37 LINE"
);
}
);
width = 380;
},
{
anchors = (
{
name = bottom;
position = "{196, 0}";
},
{
name = top;
position = "{308, 700}";
}
);
guideLines = (
{
angle = 268.282;
position = "{-59, 0}";
},
{
angle = 90;
position = "{374, 0}";
}
);
layerId = "ECB9DAFA-B085-4474-A032-AB3BEA4F5B4C";
paths = (
{
closed = 1;
nodes = (
"-21 0 LINE",
"412 0 LINE",
"412 4 LINE",
"-18 4 LINE",
"-17 1 LINE",
"510 698 LINE",
"510 700 LINE",
"98 700 LINE",
"98 696 LINE",
"507 696 LINE",
"506 699 LINE",
"-21 2 LINE"
);
}
);
width = 467;
},
{
anchors = (
{
name = bottom;
position = "{220, 0}";
},
{
name = top;
position = "{328, 700}";
}
);
layerId = "287B816B-C6D9-4D62-948A-F2FEA8E41A5A";
paths = (
{
closed = 1;
nodes = (
"-11 0 LINE",
"440 0 LINE",
"447 54 LINE",
"24 54 LINE",
"42 11 LINE",
"533 664 LINE",
"538 700 LINE",
"107 700 LINE",
"100 646 LINE",
"501 646 LINE",
"485 689 LINE",
"-6 36 LINE"
);
}
);
width = 505;
}
);
leftKerningGroup = public.kern2.Z;
rightKerningGroup = public.kern1.Z;
unicode = 005A;
},
{
glyphname = G.ss01;
layers = (
{
anchors = (
{
name = bottom;
position = "{317, 0}";
},
{
name = top;
position = "{414, 700}";
}
);
guideLines = (
{
angle = 185.711;
position = "{586, 470}";
}
);
layerId = "3C3B4AE3-80BB-44A4-A3CD-A752C08638B1";
paths = (
{
closed = 1;
nodes = (
"513 -15 OFFCURVE",
"649 86 OFFCURVE",
"672 248 CURVE SMOOTH",
"694 410 LINE",
"369 410 LINE",
"345 238 LINE",
"484 238 LINE",
"395 346 LINE",
"378 220 LINE",
"374 197 OFFCURVE",
"363 185 OFFCURVE",
"342 185 CURVE SMOOTH",
"323 185 OFFCURVE",
"314 197 OFFCURVE",
"318 220 CURVE",
"354 480 LINE",
"358 504 OFFCURVE",
"368 515 OFFCURVE",
"385 515 CURVE SMOOTH",
"404 515 OFFCURVE",
"411 497 OFFCURVE",
"409 455 CURVE",
"703 484 LINE",
"705 636 OFFCURVE",
"600 715 OFFCURVE",
"417 715 CURVE SMOOTH",
"213 715 OFFCURVE",
"73 611 OFFCURVE",
"49 444 CURVE SMOOTH",
"23 256 LINE SMOOTH",
"-1 89 OFFCURVE",
"111 -15 OFFCURVE",
"315 -15 CURVE SMOOTH"
);
}
);
width = 709;
},
{
anchors = (
{
name = bottom;
position = "{261, 0}";
},
{
name = top;
position = "{359, 700}";
}
);
layerId = "463395A0-2DFC-45D4-87AF-EBCF54FF53ED";
paths = (
{
closed = 1;
nodes = (
"443 -12 OFFCURVE",
"558 77 OFFCURVE",
"579 226 CURVE SMOOTH",
"602 393 LINE",
"326 393 LINE",
"307 261 LINE",
"445 261 LINE",
"382 345 LINE",
"363 208 LINE SMOOTH",
"357 165 OFFCURVE",
"338 139 OFFCURVE",
"294 139 CURVE SMOOTH",
"251 139 OFFCURVE",
"242 167 OFFCURVE",
"248 208 CURVE SMOOTH",
"288 493 LINE SMOOTH",
"294 535 OFFCURVE",
"312 561 OFFCURVE",
"353 561 CURVE SMOOTH",
"387 561 OFFCURVE",
"402 538 OFFCURVE",
"401 483 CURVE",
"616 504 LINE",
"618 641 OFFCURVE",
"532 712 OFFCURVE",
"377 712 CURVE SMOOTH",
"204 712 OFFCURVE",
"86 621 OFFCURVE",
"65 469 CURVE SMOOTH",
"31 232 LINE",
"10 79 OFFCURVE",
"101 -12 OFFCURVE",
"274 -12 CURVE SMOOTH"
);
}
);
width = 628;
},
{
anchors = (
{
name = bottom;
position = "{382, 0}";
},
{
name = top;
position = "{480, 700}";
}
);
guideLines = (
{
angle = 91.051;
position = "{713, 1}";
},
{
angle = 185.711;
position = "{693, 460}";
}
);
layerId = "B66266A1-0CD1-42BF-9957-E58294B85305";
paths = (
{
closed = 1;
nodes = (
"598 -15 OFFCURVE",
"763 108 OFFCURVE",
"791 307 CURVE",
"803 410 LINE",
"428 410 LINE",
"404 238 LINE",
"584 238 LINE",
"505 346 LINE",
"497 285 LINE SMOOTH",
"487 217 OFFCURVE",
"453 185 OFFCURVE",
"401 185 CURVE SMOOTH",
"351 185 OFFCURVE",
"322 218 OFFCURVE",
"332 286 CURVE SMOOTH",
"350 414 LINE SMOOTH",
"360 482 OFFCURVE",
"397 515 OFFCURVE",
"447 515 CURVE SMOOTH",
"491 515 OFFCURVE",
"510 494 OFFCURVE",
"514 445 CURVE",
"807 474 LINE",
"795 624 OFFCURVE",
"684 715 OFFCURVE",
"457 715 CURVE SMOOTH",
"231 715 OFFCURVE",
"76 600 OFFCURVE",
"50 414 CURVE SMOOTH",
"32 286 LINE SMOOTH",
"6 100 OFFCURVE",
"129 -15 OFFCURVE",
"355 -15 CURVE SMOOTH"
);
}
);
width = 820;
},
{
anchors = (
{
name = bottom;
position = "{346, 0}";
},
{
name = top;
position = "{445, 700}";
}
);
layerId = "3B401755-81E4-40F3-BD5E-9424281583CA";
paths = (
{
closed = 1;
nodes = (
"561 -13 OFFCURVE",
"714 101 OFFCURVE",
"739 292 CURVE SMOOTH",
"753 399 LINE",
"407 399 LINE",
"386 253 LINE",
"569 253 LINE",
"504 345 LINE",
"494 275 LINE SMOOTH",
"483 194 OFFCURVE",
"442 156 OFFCURVE",
"376 156 CURVE SMOOTH",
"311 156 OFFCURVE",
"278 195 OFFCURVE",
"290 276 CURVE SMOOTH",
"311 426 LINE SMOOTH",
"322 505 OFFCURVE",
"366 544 OFFCURVE",
"430 544 CURVE SMOOTH",
"482 544 OFFCURVE",
"511 522 OFFCURVE",
"516 461 CURVE",
"759 486 LINE",
"748 630 OFFCURVE",
"645 713 OFFCURVE",
"440 713 CURVE SMOOTH",
"230 713 OFFCURVE",
"86 605 OFFCURVE",
"61 426 CURVE SMOOTH",
"40 276 LINE SMOOTH",
"14 95 OFFCURVE",
"127 -13 OFFCURVE",
"337 -13 CURVE SMOOTH"
);
}
);
width = 780;
},
{
anchors = (
{
name = bottom;
position = "{91, 0}";
},
{
name = top;
position = "{189, 700}";
}
);
layerId = "3D671699-C126-4AA5-A66F-47C26817AED2";
paths = (
{
closed = 1;
nodes = (
"142 -5 OFFCURVE",
"176 38 OFFCURVE",
"188 122 CURVE SMOOTH",
"219 342 LINE",
"128 342 LINE",
"127 338 LINE",
"215 338 LINE",
"214 339 LINE",
"184 122 LINE SMOOTH",
"172 40 OFFCURVE",
"141 -1 OFFCURVE",
"89 -1 CURVE SMOOTH",
"37 -1 OFFCURVE",
"16 40 OFFCURVE",
"28 122 CURVE SMOOTH",
"92 578 LINE SMOOTH",
"103 659 OFFCURVE",
"136 701 OFFCURVE",
"187 701 CURVE SMOOTH",
"238 701 OFFCURVE",
"259 658 OFFCURVE",
"252 568 CURVE",
"256 568 LINE",
"264 661 OFFCURVE",
"242 705 OFFCURVE",
"188 705 CURVE SMOOTH",
"134 705 OFFCURVE",
"100 661 OFFCURVE",
"88 578 CURVE SMOOTH",
"24 122 LINE SMOOTH",
"12 38 OFFCURVE",
"34 -5 OFFCURVE",
"88 -5 CURVE SMOOTH"
);
}
);
width = 257;
},
{
anchors = (
{
name = bottom;
position = "{195, 0}";
},
{
name = top;
position = "{294, 700}";
}
);
layerId = "46E74328-601B-43A9-9281-7B741E5F83E4";
paths = (
{
closed = 1;
nodes = (
"304 -7 OFFCURVE",
"373 59 OFFCURVE",
"391 183 CURVE",
"415 358 LINE",
"238 358 LINE",
"231 308 LINE",
"368 308 LINE",
"353 344 LINE",
"331 183 LINE",
"317 88 OFFCURVE",
"277 47 OFFCURVE",
"199 47 CURVE SMOOTH",
"121 47 OFFCURVE",
"93 88 OFFCURVE",
"107 183 CURVE SMOOTH",
"154 519 LINE SMOOTH",
"167 612 OFFCURVE",
"209 653 OFFCURVE",
"287 653 CURVE SMOOTH",
"353 653 OFFCURVE",
"384 615 OFFCURVE",
"382 538 CURVE",
"440 544 LINE",
"443 651 OFFCURVE",
"393 707 OFFCURVE",
"294 707 CURVE SMOOTH",
"182 707 OFFCURVE",
"111 640 OFFCURVE",
"94 519 CURVE SMOOTH",
"47 183 LINE SMOOTH",
"29 59 OFFCURVE",
"80 -7 OFFCURVE",
"192 -7 CURVE SMOOTH"
);
}
);
width = 467;
},
{
anchors = (
{
name = bottom;
position = "{278, 0}";
},
{
name = top;
position = "{382, 700}";
}
);
guideLines = (
{
angle = 91.051;
position = "{468, 0}";
}
);
layerId = "ECB9DAFA-B085-4474-A032-AB3BEA4F5B4C";
paths = (
{
closed = 1;
nodes = (
"427 -5 OFFCURVE",
"514 79 OFFCURVE",
"537 246 CURVE",
"553 354 LINE",
"328 354 LINE",
"327 350 LINE",
"550 350 LINE",
"548 352 LINE",
"533 246 LINE SMOOTH",
"510 80 OFFCURVE",
"425 -1 OFFCURVE",
"278 -1 CURVE SMOOTH",
"131 -1 OFFCURVE",
"68 80 OFFCURVE",
"91 246 CURVE SMOOTH",
"122 464 LINE SMOOTH",
"144 620 OFFCURVE",
"232 701 OFFCURVE",
"380 701 CURVE SMOOTH",
"498 701 OFFCURVE",
"560 649 OFFCURVE",
"568 544 CURVE",
"572 545 LINE",
"563 652 OFFCURVE",
"500 705 OFFCURVE",
"381 705 CURVE SMOOTH",
"231 705 OFFCURVE",
"140 622 OFFCURVE",
"118 464 CURVE SMOOTH",
"87 246 LINE SMOOTH",
"64 79 OFFCURVE",
"127 -5 OFFCURVE",
"277 -5 CURVE SMOOTH"
);
}
);
width = 635;
},
{
anchors = (
{
name = bottom;
position = "{279, 0}";
},
{
name = top;
position = "{380, 700}";
}
);
layerId = "287B816B-C6D9-4D62-948A-F2FEA8E41A5A";
paths = (
{
closed = 1;
nodes = (
"430 -7 OFFCURVE",
"523 76 OFFCURVE",
"546 236 CURVE SMOOTH",
"563 358 LINE",
"327 358 LINE",
"320 308 LINE",
"515 308 LINE",
"501 343 LINE",
"486 236 LINE SMOOTH",
"468 107 OFFCURVE",
"403 47 OFFCURVE",
"281 47 CURVE SMOOTH",
"159 47 OFFCURVE",
"112 107 OFFCURVE",
"130 236 CURVE SMOOTH",
"163 469 LINE SMOOTH",
"180 593 OFFCURVE",
"249 653 OFFCURVE",
"370 653 CURVE SMOOTH",
"468 653 OFFCURVE",
"518 611 OFFCURVE",
"522 523 CURVE",
"580 529 LINE",
"577 646 OFFCURVE",
"508 707 OFFCURVE",
"377 707 CURVE SMOOTH",
"222 707 OFFCURVE",
"124 623 OFFCURVE",
"103 469 CURVE SMOOTH",
"70 236 LINE SMOOTH",
"47 76 OFFCURVE",
"118 -7 OFFCURVE",
"274 -7 CURVE SMOOTH"
);
}
);
width = 628;
}
);
leftKerningGroup = public.kern2.O;
rightKerningGroup = public.kern1.G;
},
{
glyphname = M.superior;
layers = (
{
layerId = "3C3B4AE3-80BB-44A4-A3CD-A752C08638B1";
paths = (
{
closed = 1;
nodes = (
"45 320 LINE",
"185 320 LINE",
"238 700 LINE",
"156 700 LINE",
"247 348 LINE",
"273 348 LINE",
"461 700 LINE",
"379 700 LINE",
"326 320 LINE",
"466 320 LINE",
"525 740 LINE",
"373 740 LINE",
"239 484 LINE",
"319 484 LINE",
"256 740 LINE",
"104 740 LINE"
);
}
);
width = 497;
},
{
layerId = "463395A0-2DFC-45D4-87AF-EBCF54FF53ED";
paths = (
{
closed = 1;
nodes = (
"53 320 LINE",
"173 320 LINE",
"207 559 LINE",
"209 559 LINE",
"249 352 LINE",
"308 352 LINE",
"406 559 LINE",
"408 559 LINE",
"374 320 LINE",
"494 320 LINE",
"553 740 LINE",
"402 740 LINE",
"305 532 LINE",
"302 532 LINE",
"263 740 LINE",
"112 740 LINE"
);
}
);
width = 533;
},
{
layerId = "B66266A1-0CD1-42BF-9957-E58294B85305";
paths = (
{
closed = 1;
nodes = (
"52 320 LINE",
"192 320 LINE",
"230 592 LINE",
"217 592 LINE",
"290 347 LINE",
"354 347 LINE",
"494 592 LINE",
"481 592 LINE",
"443 320 LINE",
"583 320 LINE",
"642 740 LINE",
"461 740 LINE",
"305 470 LINE",
"372 470 LINE",
"292 740 LINE",
"111 740 LINE"
);
}
);
width = 621;
},
{
layerId = "3B401755-81E4-40F3-BD5E-9424281583CA";
paths = (
{
closed = 1;
nodes = (
"56 320 LINE",
"186 320 LINE",
"222 577 LINE",
"224 577 LINE",
"288 350 LINE",
"348 350 LINE",
"476 577 LINE",
"478 577 LINE",
"442 320 LINE",
"572 320 LINE",
"631 740 LINE",
"458 740 LINE",
"333 520 LINE",
"351 520 LINE",
"288 740 LINE",
"115 740 LINE"
);
}
);
width = 614;
},
{
layerId = "3D671699-C126-4AA5-A66F-47C26817AED2";
paths = (
{
closed = 1;
nodes = (
"49 320 LINE",
"53 320 LINE",
"111 735 LINE",
"110 735 LINE",
"141 380 LINE",
"145 380 LINE",
"273 735 LINE",
"272 735 LINE",
"214 320 LINE",
"218 320 LINE",
"277 740 LINE",
"272 740 LINE",
"143 385 LINE",
"145 385 LINE",
"113 740 LINE",
"108 740 LINE"
);
}
);
width = 253;
},
{
layerId = "46E74328-601B-43A9-9281-7B741E5F83E4";
paths = (
{
closed = 1;
nodes = (
"64 320 LINE",
"114 320 LINE",
"165 680 LINE",
"168 680 LINE",
"207 368 LINE",
"253 368 LINE",
"380 680 LINE",
"383 680 LINE",
"332 320 LINE",
"382 320 LINE",
"441 740 LINE",
"364 740 LINE",
"241 438 LINE",
"239 438 LINE",
"200 740 LINE",
"123 740 LINE"
);
}
);
width = 432;
},
{
layerId = "ECB9DAFA-B085-4474-A032-AB3BEA4F5B4C";
paths = (
{
closed = 1;
nodes = (
"82 320 LINE",
"86 320 LINE",
"144 735 LINE",
"143 735 LINE",
"262 376 LINE",
"267 376 LINE",
"485 735 LINE",
"484 735 LINE",
"426 320 LINE",
"430 320 LINE",
"489 740 LINE",
"484 740 LINE",
"266 381 LINE",
"265 381 LINE",
"146 740 LINE",
"141 740 LINE"
);
}
);
width = 498;
},
{
layerId = "287B816B-C6D9-4D62-948A-F2FEA8E41A5A";
paths = (
{
closed = 1;
nodes = (
"72 320 LINE",
"122 320 LINE",
"174 691 LINE",
"176 691 LINE",
"260 368 LINE",
"309 368 LINE",
"483 691 LINE",
"486 691 LINE",
"434 320 LINE",
"484 320 LINE",
"543 740 LINE",
"465 740 LINE",
"293 421 LINE",
"290 421 LINE",
"208 740 LINE",
"131 740 LINE"
);
}
);
width = 542;
}
);
leftKerningGroup = public.kern2.H.superior;
rightKerningGroup = public.kern1.H.superior;
},
{
glyphname = S.superior;
layers = (
{
layerId = "3C3B4AE3-80BB-44A4-A3CD-A752C08638B1";
paths = (
{
closed = 1;
nodes = (
"304 313 OFFCURVE",
"368 355 OFFCURVE",
"380 439 CURVE SMOOTH",
"400 584 OFFCURVE",
"210 558 OFFCURVE",
"219 622 CURVE SMOOTH",
"222 641 OFFCURVE",
"235 653 OFFCURVE",
"251 653 CURVE SMOOTH",
"270 653 OFFCURVE",
"280 639 OFFCURVE",
"278 608 CURVE",
"409 617 LINE",
"412 708 OFFCURVE",
"367 747 OFFCURVE",
"262 747 CURVE SMOOTH",
"158 747 OFFCURVE",
"91 703 OFFCURVE",
"79 621 CURVE SMOOTH",
"60 481 OFFCURVE",
"249 505 OFFCURVE",
"240 438 CURVE SMOOTH",
"237 418 OFFCURVE",
"225 407 OFFCURVE",
"207 407 CURVE SMOOTH",
"187 407 OFFCURVE",
"181 423 OFFCURVE",
"182 455 CURVE",
"50 449 LINE",
"49 357 OFFCURVE",
"90 313 OFFCURVE",
"192 313 CURVE SMOOTH"
);
}
);
width = 385;
},
{
layerId = "463395A0-2DFC-45D4-87AF-EBCF54FF53ED";
paths = (
{
closed = 1;
nodes = (
"314 313 OFFCURVE",
"382 356 OFFCURVE",
"393 437 CURVE SMOOTH",
"416 599 OFFCURVE",
"195 555 OFFCURVE",
"206 630 CURVE SMOOTH",
"209 653 OFFCURVE",
"231 667 OFFCURVE",
"263 667 CURVE SMOOTH",
"293 667 OFFCURVE",
"310 652 OFFCURVE",
"307 613 CURVE",
"423 621 LINE",
"427 708 OFFCURVE",
"378 747 OFFCURVE",
"271 747 CURVE SMOOTH",
"162 747 OFFCURVE",
"96 703 OFFCURVE",
"85 626 CURVE SMOOTH",
"62 465 OFFCURVE",
"284 509 OFFCURVE",
"273 434 CURVE SMOOTH",
"269 408 OFFCURVE",
"246 393 OFFCURVE",
"213 393 CURVE SMOOTH",
"181 393 OFFCURVE",
"167 413 OFFCURVE",
"169 453 CURVE",
"53 449 LINE",
"51 355 OFFCURVE",
"98 313 OFFCURVE",
"202 313 CURVE SMOOTH"
);
}
);
width = 402;
},
{
layerId = "B66266A1-0CD1-42BF-9957-E58294B85305";
paths = (
{
closed = 1;
nodes = (
"366 313 OFFCURVE",
"447 359 OFFCURVE",
"458 441 CURVE SMOOTH",
"479 593 OFFCURVE",
"227 547 OFFCURVE",
"237 621 CURVE SMOOTH",
"240 643 OFFCURVE",
"263 655 OFFCURVE",
"296 655 CURVE SMOOTH",
"336 655 OFFCURVE",
"357 639 OFFCURVE",
"355 605 CURVE",
"487 614 LINE",
"491 708 OFFCURVE",
"430 749 OFFCURVE",
"312 749 CURVE SMOOTH",
"189 749 OFFCURVE",
"109 703 OFFCURVE",
"97 622 CURVE SMOOTH",
"76 472 OFFCURVE",
"328 514 OFFCURVE",
"318 442 CURVE SMOOTH",
"315 419 OFFCURVE",
"292 407 OFFCURVE",
"259 407 CURVE SMOOTH",
"218 407 OFFCURVE",
"197 424 OFFCURVE",
"197 462 CURVE",
"66 456 LINE",
"63 357 OFFCURVE",
"118 313 OFFCURVE",
"240 313 CURVE SMOOTH"
);
}
);
width = 470;
},
{
layerId = "3B401755-81E4-40F3-BD5E-9424281583CA";
paths = (
{
closed = 1;
nodes = (
"360 313 OFFCURVE",
"438 360 OFFCURVE",
"449 443 CURVE SMOOTH",
"472 604 OFFCURVE",
"221 550 OFFCURVE",
"232 625 CURVE SMOOTH",
"235 647 OFFCURVE",
"258 660 OFFCURVE",
"294 660 CURVE SMOOTH",
"342 660 OFFCURVE",
"360 640 OFFCURVE",
"358 606 CURVE",
"477 615 LINE",
"482 704 OFFCURVE",
"426 747 OFFCURVE",
"308 747 CURVE SMOOTH",
"189 747 OFFCURVE",
"113 702 OFFCURVE",
"102 623 CURVE SMOOTH",
"78 458 OFFCURVE",
"329 512 OFFCURVE",
"319 439 CURVE SMOOTH",
"315 414 OFFCURVE",
"291 400 OFFCURVE",
"255 400 CURVE SMOOTH",
"210 400 OFFCURVE",
"187 420 OFFCURVE",
"186 458 CURVE",
"70 453 LINE",
"67 359 OFFCURVE",
"114 313 OFFCURVE",
"238 313 CURVE SMOOTH"
);
}
);
width = 459;
},
{
layerId = "3D671699-C126-4AA5-A66F-47C26817AED2";
paths = (
{
closed = 1;
nodes = (
"132 317 OFFCURVE",
"152 344 OFFCURVE",
"161 404 CURVE SMOOTH",
"179 530 OFFCURVE",
"75 534 OFFCURVE",
"92 656 CURVE SMOOTH",
"100 713 OFFCURVE",
"120 739 OFFCURVE",
"156 739 CURVE SMOOTH",
"191 739 OFFCURVE",
"203 710 OFFCURVE",
"196 644 CURVE",
"200 644 LINE",
"207 711 OFFCURVE",
"195 743 OFFCURVE",
"156 743 CURVE SMOOTH",
"117 743 OFFCURVE",
"97 716 OFFCURVE",
"88 656 CURVE SMOOTH",
"71 532 OFFCURVE",
"174 528 OFFCURVE",
"157 404 CURVE SMOOTH",
"149 347 OFFCURVE",
"130 321 OFFCURVE",
"93 321 CURVE SMOOTH",
"58 321 OFFCURVE",
"46 351 OFFCURVE",
"54 416 CURVE",
"50 416 LINE",
"42 347 OFFCURVE",
"55 317 OFFCURVE",
"93 317 CURVE SMOOTH"
);
}
);
width = 176;
},
{
layerId = "46E74328-601B-43A9-9281-7B741E5F83E4";
paths = (
{
closed = 1;
nodes = (
"240 315 OFFCURVE",
"288 355 OFFCURVE",
"298 428 CURVE SMOOTH",
"318 567 OFFCURVE",
"130 537 OFFCURVE",
"144 643 CURVE SMOOTH",
"150 684 OFFCURVE",
"175 706 OFFCURVE",
"218 706 CURVE SMOOTH",
"265 706 OFFCURVE",
"284 682 OFFCURVE",
"280 630 CURVE",
"329 634 LINE",
"334 709 OFFCURVE",
"302 745 OFFCURVE",
"224 745 CURVE SMOOTH",
"148 745 OFFCURVE",
"104 709 OFFCURVE",
"94 643 CURVE SMOOTH",
"74 500 OFFCURVE",
"264 531 OFFCURVE",
"249 427 CURVE SMOOTH",
"243 381 OFFCURVE",
"214 354 OFFCURVE",
"168 354 CURVE SMOOTH",
"120 354 OFFCURVE",
"102 379 OFFCURVE",
"105 435 CURVE",
"57 433 LINE",
"52 351 OFFCURVE",
"85 315 OFFCURVE",
"162 315 CURVE SMOOTH"
);
}
);
width = 312;
},
{
layerId = "ECB9DAFA-B085-4474-A032-AB3BEA4F5B4C";
paths = (
{
closed = 1;
nodes = (
"273 317 OFFCURVE",
"330 354 OFFCURVE",
"338 414 CURVE SMOOTH",
"359 560 OFFCURVE",
"94 499 OFFCURVE",
"115 646 CURVE SMOOTH",
"123 704 OFFCURVE",
"174 739 OFFCURVE",
"251 739 CURVE SMOOTH",
"339 739 OFFCURVE",
"372 702 OFFCURVE",
"367 636 CURVE",
"371 636 LINE",
"377 706 OFFCURVE",
"340 743 OFFCURVE",
"251 743 CURVE SMOOTH",
"172 743 OFFCURVE",
"119 707 OFFCURVE",
"111 646 CURVE SMOOTH",
"90 495 OFFCURVE",
"354 556 OFFCURVE",
"334 414 CURVE SMOOTH",
"326 357 OFFCURVE",
"271 321 OFFCURVE",
"192 321 CURVE SMOOTH",
"109 321 OFFCURVE",
"70 360 OFFCURVE",
"73 439 CURVE",
"69 439 LINE",
"65 359 OFFCURVE",
"103 317 OFFCURVE",
"192 317 CURVE SMOOTH"
);
}
);
width = 365;
},
{
layerId = "287B816B-C6D9-4D62-948A-F2FEA8E41A5A";
paths = (
{
closed = 1;
nodes = (
"301 315 OFFCURVE",
"366 358 OFFCURVE",
"376 428 CURVE SMOOTH",
"399 590 OFFCURVE",
"134 515 OFFCURVE",
"152 637 CURVE SMOOTH",
"158 681 OFFCURVE",
"197 706 OFFCURVE",
"260 706 CURVE SMOOTH",
"326 706 OFFCURVE",
"358 681 OFFCURVE",
"354 628 CURVE",
"407 631 LINE",
"411 707 OFFCURVE",
"364 745 OFFCURVE",
"266 745 CURVE SMOOTH",
"171 745 OFFCURVE",
"111 705 OFFCURVE",
"102 637 CURVE",
"78 472 OFFCURVE",
"343 548 OFFCURVE",
"326 427 CURVE SMOOTH",
"320 382 OFFCURVE",
"277 354 OFFCURVE",
"212 354 CURVE SMOOTH",
"146 354 OFFCURVE",
"114 383 OFFCURVE",
"115 442 CURVE",
"64 440 LINE",
"60 354 OFFCURVE",
"105 315 OFFCURVE",
"206 315 CURVE SMOOTH"
);
}
);
width = 396;
}
);
leftKerningGroup = public.kern2.S.superior;
rightKerningGroup = public.kern1.S.superior;
},
{
glyphname = T.superior;
layers = (
{
layerId = "3C3B4AE3-80BB-44A4-A3CD-A752C08638B1";
paths = (
{
closed = 1;
nodes = (
"79 740 LINE",
"66 646 LINE",
"210 646 LINE",
"150 700 LINE",
"97 320 LINE",
"237 320 LINE",
"290 700 LINE",
"216 646 LINE",
"361 646 LINE",
"374 740 LINE"
);
}
);
width = 321;
},
{
layerId = "463395A0-2DFC-45D4-87AF-EBCF54FF53ED";
paths = (
{
closed = 1;
nodes = (
"80 740 LINE",
"69 660 LINE",
"219 660 LINE",
"168 706 LINE",
"114 320 LINE",
"234 320 LINE",
"288 706 LINE",
"224 660 LINE",
"375 660 LINE",
"386 740 LINE"
);
}
);
width = 334;
},
{
layerId = "B66266A1-0CD1-42BF-9957-E58294B85305";
paths = (
{
closed = 1;
nodes = (
"79 740 LINE",
"66 646 LINE",
"242 646 LINE",
"182 700 LINE",
"129 320 LINE",
"269 320 LINE",
"322 700 LINE",
"248 646 LINE",
"425 646 LINE",
"438 740 LINE"
);
}
);
width = 385;
},
{
layerId = "3B401755-81E4-40F3-BD5E-9424281583CA";
paths = (
{
closed = 1;
nodes = (
"80 740 LINE",
"68 653 LINE",
"244 653 LINE",
"188 703 LINE",
"134 320 LINE",
"264 320 LINE",
"318 703 LINE",
"248 653 LINE",
"424 653 LINE",
"436 740 LINE"
);
}
);
width = 384;
},
{
layerId = "3D671699-C126-4AA5-A66F-47C26817AED2";
paths = (
{
closed = 1;
nodes = (
"79 740 LINE",
"78 736 LINE",
"142 736 LINE",
"142 737 LINE",
"83 320 LINE",
"87 320 LINE",
"146 737 LINE",
"143 736 LINE",
"207 736 LINE",
"208 740 LINE"
);
}
);
width = 155;
},
{
layerId = "46E74328-601B-43A9-9281-7B741E5F83E4";
paths = (
{
closed = 1;
nodes = (
"81 740 LINE",
"76 701 LINE",
"190 701 LINE",
"170 726 LINE",
"113 320 LINE",
"163 320 LINE",
"220 726 LINE",
"192 701 LINE",
"308 701 LINE",
"313 740 LINE"
);
}
);
width = 262;
},
{
layerId = "ECB9DAFA-B085-4474-A032-AB3BEA4F5B4C";
paths = (
{
closed = 1;
nodes = (
"83 740 LINE",
"82 736 LINE",
"215 736 LINE",
"214 737 LINE",
"155 320 LINE",
"159 320 LINE",
"218 737 LINE",
"216 736 LINE",
"349 736 LINE",
"350 740 LINE"
);
}
);
width = 301;
},
{
layerId = "287B816B-C6D9-4D62-948A-F2FEA8E41A5A";
paths = (
{
closed = 1;
nodes = (
"82 740 LINE",
"77 701 LINE",
"221 701 LINE",
"201 725 LINE",
"144 320 LINE",
"194 320 LINE",
"251 725 LINE",
"223 701 LINE",
"369 701 LINE",
"374 740 LINE"
);
}
);
width = 324;
}
);
leftKerningGroup = public.kern2.T.superior;
rightKerningGroup = public.kern1.T.superior;
},
{
glyphname = a;
layers = (
{
anchors = (
{
name = bottom;
position = "{301, 0}";
},
{
name = ogonek;
position = "{604, 0}";
},
{
name = top;
position = "{377, 540}";
}
);
guideLines = (
{
angle = 252.897;
position = "{445, 497}";
},
{
angle = 88.536;
position = "{-5, 161}";
},
{
angle = 90;
position = "{-83, 0}";
},
{
angle = 81.927;
position = "{604, 0}";
},
{
angle = 81.927;
position = "{604, 0}";
},
{
angle = 81.927;
position = "{604, 0}";
},
{
angle = 81.927;
position = "{604, 0}";
}
);
layerId = "3C3B4AE3-80BB-44A4-A3CD-A752C08638B1";
paths = (
{
closed = 1;
nodes = (
"354 0 LINE",
"604 0 LINE",
"644 282 LINE SMOOTH",
"669 463 OFFCURVE",
"573 555 OFFCURVE",
"357 555 CURVE SMOOTH",
"270 555 OFFCURVE",
"151 538 OFFCURVE",
"69 514 CURVE",
"80 324 LINE",
"121 343 OFFCURVE",
"187 358 OFFCURVE",
"228 358 CURVE SMOOTH",
"310 358 OFFCURVE",
"341 336 OFFCURVE",
"334 282 CURVE SMOOTH",
"326 226 LINE"
);
},
{
closed = 1;
nodes = (
"315 -15 OFFCURVE",
"396 45 OFFCURVE",
"411 150 CURVE SMOOTH",
"412 155 LINE SMOOTH",
"427 260 OFFCURVE",
"362 320 OFFCURVE",
"229 320 CURVE SMOOTH",
"102 320 OFFCURVE",
"25 260 OFFCURVE",
"10 155 CURVE SMOOTH",
"9 150 LINE SMOOTH",
"-6 45 OFFCURVE",
"55 -15 OFFCURVE",
"182 -15 CURVE SMOOTH"
);
},
{
closed = 1;
nodes = (
"280 123 OFFCURVE",
"277 134 OFFCURVE",
"279 151 CURVE SMOOTH",
"280 155 LINE SMOOTH",
"282 172 OFFCURVE",
"289 183 OFFCURVE",
"302 183 CURVE SMOOTH",
"315 183 OFFCURVE",
"318 172 OFFCURVE",
"316 155 CURVE SMOOTH",
"315 151 LINE SMOOTH",
"313 134 OFFCURVE",
"306 123 OFFCURVE",
"293 123 CURVE SMOOTH"
);
}
);
width = 677;
},
{
anchors = (
{
name = bottom;
position = "{268, 0}";
},
{
name = ogonek;
position = "{529, 0}";
},
{
name = top;
position = "{344, 540}";
}
);
guideLines = (
{
angle = 90;
position = "{-83, 0}";
},
{
angle = 81.949;
position = "{529, 0}";
},
{
angle = 81.949;
position = "{529, 0}";
},
{
angle = 81.949;
position = "{529, 0}";
},
{
angle = 81.949;
position = "{529, 0}";
}
);
layerId = "463395A0-2DFC-45D4-87AF-EBCF54FF53ED";
paths = (
{
closed = 1;
nodes = (
"346 0 LINE",
"529 0 LINE",
"572 304 LINE SMOOTH",
"595 470 OFFCURVE",
"522 552 OFFCURVE",
"329 552 CURVE SMOOTH",
"257 552 OFFCURVE",
"161 535 OFFCURVE",
"78 510 CURVE",
"86 371 LINE",
"134 392 OFFCURVE",
"198 406 OFFCURVE",
"249 406 CURVE SMOOTH",
"323 406 OFFCURVE",
"354 372 OFFCURVE",
"345 304 CURVE SMOOTH",
"331 207 LINE"
);
},
{
closed = 1;
nodes = (
"301 -12 OFFCURVE",
"379 44 OFFCURVE",
"393 144 CURVE SMOOTH",
"397 168 LINE",
"410 266 OFFCURVE",
"348 322 OFFCURVE",
"224 322 CURVE SMOOTH",
"106 322 OFFCURVE",
"32 266 OFFCURVE",
"19 167 CURVE",
"15 143 LINE SMOOTH",
"1 44 OFFCURVE",
"59 -12 OFFCURVE",
"176 -12 CURVE SMOOTH"
);
},
{
closed = 1;
nodes = (
"224 90 OFFCURVE",
"209 110 OFFCURVE",
"213 144 CURVE",
"217 167 LINE",
"221 202 OFFCURVE",
"242 222 OFFCURVE",
"276 222 CURVE SMOOTH",
"311 222 OFFCURVE",
"327 202 OFFCURVE",
"323 168 CURVE",
"319 145 LINE",
"315 110 OFFCURVE",
"293 90 OFFCURVE",
"257 90 CURVE SMOOTH"
);
}
);
width = 611;
},
{
anchors = (
{
name = bottom;
position = "{343, 0}";
},
{
name = ogonek;
position = "{684, 0}";
},
{
name = top;
position = "{428, 540}";
}
);
guideLines = (
{
angle = 66.939;
position = "{166, 36}";
},
{
angle = 109.618;
position = "{235, 275}";
},
{
angle = 77.229;
position = "{314, 441}";
},
{
angle = 90;
position = "{-83, 0}";
},
{
angle = 82.047;
position = "{684, 0}";
},
{
angle = 82.047;
position = "{684, 0}";
},
{
angle = 82.047;
position = "{684, 0}";
},
{
angle = 82.047;
position = "{684, 0}";
}
);
layerId = "B66266A1-0CD1-42BF-9957-E58294B85305";
paths = (
{
closed = 1;
nodes = (
"434 0 LINE",
"684 0 LINE",
"722 272 LINE SMOOTH",
"749 461 OFFCURVE",
"641 555 OFFCURVE",
"393 555 CURVE SMOOTH",
"299 555 OFFCURVE",
"166 539 OFFCURVE",
"81 514 CURVE",
"91 314 LINE",
"159 339 OFFCURVE",
"221 351 OFFCURVE",
"283 351 CURVE SMOOTH",
"377 351 OFFCURVE",
"420 324 OFFCURVE",
"412 272 CURVE SMOOTH",
"406 226 LINE"
);
},
{
closed = 1;
nodes = (
"378 -15 OFFCURVE",
"476 45 OFFCURVE",
"491 150 CURVE SMOOTH",
"492 155 LINE SMOOTH",
"507 260 OFFCURVE",
"425 320 OFFCURVE",
"268 320 CURVE SMOOTH",
"118 320 OFFCURVE",
"25 260 OFFCURVE",
"10 155 CURVE SMOOTH",
"9 150 LINE SMOOTH",
"-6 45 OFFCURVE",
"71 -15 OFFCURVE",
"219 -15 CURVE SMOOTH"
);
},
{
closed = 1;
nodes = (
"294 123 OFFCURVE",
"277 135 OFFCURVE",
"280 153 CURVE",
"280 157 LINE",
"283 175 OFFCURVE",
"303 187 OFFCURVE",
"335 187 CURVE SMOOTH",
"370 187 OFFCURVE",
"389 175 OFFCURVE",
"386 157 CURVE",
"386 153 LINE",
"383 135 OFFCURVE",
"360 123 OFFCURVE",
"325 123 CURVE SMOOTH"
);
}
);
width = 757;
},
{
anchors = (
{
name = bottom;
position = "{325, 0}";
},
{
name = ogonek;
position = "{642, 0}";
},
{
name = top;
position = "{401, 540}";
}
);
guideLines = (
{
angle = 90;
position = "{-83, 0}";
},
{
angle = 81.955;
position = "{642, 0}";
},
{
angle = 81.955;
position = "{642, 0}";
},
{
angle = 81.955;
position = "{642, 0}";
},
{
angle = 81.955;
position = "{642, 0}";
}
);
layerId = "3B401755-81E4-40F3-BD5E-9424281583CA";
paths = (
{
closed = 1;
nodes = (
"433 0 LINE",
"642 0 LINE",
"682 283 LINE SMOOTH",
"707 464 OFFCURVE",
"609 553 OFFCURVE",
"382 553 CURVE SMOOTH",
"290 553 OFFCURVE",
"166 531 OFFCURVE",
"86 501 CURVE",
"96 342 LINE",
"160 369 OFFCURVE",
"227 383 OFFCURVE",
"289 383 CURVE SMOOTH",
"392 383 OFFCURVE",
"433 352 OFFCURVE",
"423 283 CURVE SMOOTH",
"413 214 LINE"
);
},
{
closed = 1;
nodes = (
"373 -13 OFFCURVE",
"471 47 OFFCURVE",
"485 151 CURVE SMOOTH",
"486 159 LINE SMOOTH",
"501 262 OFFCURVE",
"420 321 OFFCURVE",
"269 321 CURVE SMOOTH",
"124 321 OFFCURVE",
"33 261 OFFCURVE",
"18 157 CURVE SMOOTH",
"17 150 LINE SMOOTH",
"3 47 OFFCURVE",
"77 -13 OFFCURVE",
"219 -13 CURVE SMOOTH"
);
},
{
closed = 1;
nodes = (
"263 102 OFFCURVE",
"238 122 OFFCURVE",
"243 153 CURVE",
"243 159 LINE",
"248 190 OFFCURVE",
"279 210 OFFCURVE",
"325 210 CURVE SMOOTH",
"376 210 OFFCURVE",
"402 190 OFFCURVE",
"398 160 CURVE SMOOTH",
"397 154 LINE SMOOTH",
"392 122 OFFCURVE",
"358 102 OFFCURVE",
"307 102 CURVE SMOOTH"
);
}
);
width = 726;
},
{
anchors = (
{
name = bottom;
position = "{60, 0}";
},
{
name = ogonek;
position = "{117, 0}";
},
{
name = top;
position = "{136, 540}";
}
);
guideLines = (
{
angle = 88.536;
position = "{6, 172}";
},
{
angle = 90;
position = "{-83, 0}";
},
{
angle = 81.971;
position = "{118, 0}";
},
{
angle = 81.971;
position = "{118, 0}";
},
{
angle = 81.971;
position = "{118, 0}";
},
{
angle = 81.971;
position = "{118, 0}";
}
);
layerId = "3D671699-C126-4AA5-A66F-47C26817AED2";
paths = (
{
closed = 1;
nodes = (
"115 0 LINE",
"118 0 LINE",
"185 475 LINE SMOOTH",
"191 521 OFFCURVE",
"177 545 OFFCURVE",
"142 545 CURVE SMOOTH",
"119 545 OFFCURVE",
"92 533 OFFCURVE",
"70 495 CURVE",
"72 493 LINE",
"93 529 OFFCURVE",
"119 541 OFFCURVE",
"141 541 CURVE SMOOTH",
"173 541 OFFCURVE",
"187 520 OFFCURVE",
"181 475 CURVE SMOOTH",
"136 156 LINE"
);
},
{
closed = 1;
nodes = (
"96 -5 OFFCURVE",
"123 32 OFFCURVE",
"133 103 CURVE SMOOTH",
"149 222 LINE",
"160 295 OFFCURVE",
"144 330 OFFCURVE",
"103 330 CURVE SMOOTH",
"62 330 OFFCURVE",
"37 294 OFFCURVE",
"27 222 CURVE SMOOTH",
"11 103 LINE SMOOTH",
"1 33 OFFCURVE",
"16 -5 OFFCURVE",
"56 -5 CURVE SMOOTH"
);
},
{
closed = 1;
nodes = (
"20 -1 OFFCURVE",
"5 35 OFFCURVE",
"15 103 CURVE SMOOTH",
"31 222 LINE SMOOTH",
"41 292 OFFCURVE",
"65 326 OFFCURVE",
"103 326 CURVE SMOOTH",
"141 326 OFFCURVE",
"155 293 OFFCURVE",
"145 222 CURVE SMOOTH",
"129 103 LINE SMOOTH",
"119 34 OFFCURVE",
"94 -1 OFFCURVE",
"57 -1 CURVE SMOOTH"
);
}
);
width = 201;
},
{
anchors = (
{
name = bottom;
position = "{168, 0}";
},
{
name = ogonek;
position = "{312, 0}";
},
{
name = top;
position = "{244, 540}";
}
);
guideLines = (
{
angle = 218.454;
position = "{124, 494}";
},
{
angle = 90;
position = "{-83, 0}";
},
{
angle = 81.948;
position = "{312, 0}";
},
{
angle = 81.948;
position = "{312, 0}";
},
{
angle = 81.948;
position = "{312, 0}";
},
{
angle = 81.948;
position = "{312, 0}";
}
);
layerId = "46E74328-601B-43A9-9281-7B741E5F83E4";
paths = (
{
closed = 1;
nodes = (
"277 0 LINE",
"312 0 LINE",
"370 410 LINE",
"382 500 OFFCURVE",
"343 547 OFFCURVE",
"255 547 CURVE SMOOTH",
"203 547 OFFCURVE",
"136 525 OFFCURVE",
"92 494 CURVE",
"95 443 LINE",
"139 474 OFFCURVE",
"194 493 OFFCURVE",
"241 493 CURVE SMOOTH",
"297 493 OFFCURVE",
"318 468 OFFCURVE",
"310 410 CURVE SMOOTH",
"277 176 LINE"
);
},
{
closed = 1;
nodes = (
"223 -7 OFFCURVE",
"279 41 OFFCURVE",
"291 126 CURVE SMOOTH",
"301 197 LINE SMOOTH",
"313 281 OFFCURVE",
"271 327 OFFCURVE",
"186 327 CURVE SMOOTH",
"106 327 OFFCURVE",
"54 279 OFFCURVE",
"42 195 CURVE SMOOTH",
"33 125 LINE SMOOTH",
"21 41 OFFCURVE",
"59 -7 OFFCURVE",
"138 -7 CURVE SMOOTH"
);
},
{
closed = 1;
nodes = (
"103 41 OFFCURVE",
"85 69 OFFCURVE",
"95 145 CURVE",
"100 174 LINE",
"110 251 OFFCURVE",
"137 279 OFFCURVE",
"200 279 CURVE SMOOTH",
"258 279 OFFCURVE",
"286 242 OFFCURVE",
"277 176 CURVE SMOOTH",
"273 147 LINE SMOOTH",
"264 85 OFFCURVE",
"219 41 OFFCURVE",
"165 41 CURVE SMOOTH"
);
}
);
width = 420;
},
{
anchors = (
{
name = bottom;
position = "{263, 0}";
},
{
name = ogonek;
position = "{453, 0}";
},
{
name = top;
position = "{343, 540}";
}
);
guideLines = (
{
angle = 66.939;
position = "{216, 50}";
},
{
angle = 77.229;
position = "{358, 480}";
},
{
angle = 267.825;
position = "{147, 485}";
},
{
angle = 90;
position = "{-83, 0}";
},
{
angle = 81.955;
position = "{453, 0}";
},
{
angle = 81.955;
position = "{453, 0}";
},
{
angle = 81.955;
position = "{453, 0}";
},
{
angle = 81.955;
position = "{453, 0}";
}
);
layerId = "ECB9DAFA-B085-4474-A032-AB3BEA4F5B4C";
paths = (
{
closed = 1;
nodes = (
"451 0 LINE",
"453 0 LINE",
"506 375 LINE",
"521 487 OFFCURVE",
"464 545 OFFCURVE",
"334 545 CURVE SMOOTH",
"262 545 OFFCURVE",
"177 521 OFFCURVE",
"117 485 CURVE",
"119 482 LINE",
"180 518 OFFCURVE",
"263 541 OFFCURVE",
"333 541 CURVE SMOOTH",
"460 541 OFFCURVE",
"517 485 OFFCURVE",
"502 375 CURVE SMOOTH",
"471 157 LINE"
);
},
{
closed = 1;
nodes = (
"368 -5 OFFCURVE",
"460 59 OFFCURVE",
"475 165 CURVE SMOOTH",
"478 185 LINE SMOOTH",
"492 283 OFFCURVE",
"417 342 OFFCURVE",
"285 342 CURVE SMOOTH",
"161 342 OFFCURVE",
"76 280 OFFCURVE",
"62 178 CURVE SMOOTH",
"59 159 LINE SMOOTH",
"45 57 OFFCURVE",
"110 -5 OFFCURVE",
"229 -5 CURVE SMOOTH"
);
},
{
closed = 1;
nodes = (
"113 -1 OFFCURVE",
"49 60 OFFCURVE",
"63 159 CURVE SMOOTH",
"66 178 LINE SMOOTH",
"80 277 OFFCURVE",
"163 338 OFFCURVE",
"285 338 CURVE SMOOTH",
"417 338 OFFCURVE",
"488 280 OFFCURVE",
"475 185 CURVE SMOOTH",
"472 165 LINE SMOOTH",
"458 61 OFFCURVE",
"367 -1 OFFCURVE",
"230 -1 CURVE SMOOTH"
);
}
);
width = 591;
},
{
anchors = (
{
name = bottom;
position = "{233, 0}";
},
{
name = ogonek;
position = "{435, 0}";
},
{
name = top;
position = "{311, 540}";
}
);
guideLines = (
{
angle = 90;
position = "{-83, 0}";
},
{
angle = 81.979;
position = "{435, 0}";
},
{
angle = 81.979;
position = "{435, 0}";
},
{
angle = 81.979;
position = "{435, 0}";
},
{
angle = 81.979;
position = "{435, 0}";
}
);
layerId = "287B816B-C6D9-4D62-948A-F2FEA8E41A5A";
paths = (
{
closed = 1;
nodes = (
"400 0 LINE",
"435 0 LINE",
"487 369 LINE SMOOTH",
"503 487 OFFCURVE",
"447 547 OFFCURVE",
"318 547 CURVE SMOOTH",
"248 547 OFFCURVE",
"160 523 OFFCURVE",
"105 490 CURVE",
"108 439 LINE",
"167 474 OFFCURVE",
"234 493 OFFCURVE",
"299 493 CURVE SMOOTH",
"400 493 OFFCURVE",
"439 456 OFFCURVE",
"427 369 CURVE SMOOTH",
"399 173 LINE"
);
},
{
closed = 1;
nodes = (
"326 -7 OFFCURVE",
"412 50 OFFCURVE",
"425 145 CURVE SMOOTH",
"430 180 LINE SMOOTH",
"443 273 OFFCURVE",
"374 325 OFFCURVE",
"251 325 CURVE SMOOTH",
"135 325 OFFCURVE",
"60 270 OFFCURVE",
"47 175 CURVE SMOOTH",
"42 142 LINE SMOOTH",
"29 49 OFFCURVE",
"88 -7 OFFCURVE",
"199 -7 CURVE SMOOTH"
);
},
{
closed = 1;
nodes = (
"137 41 OFFCURVE",
"93 79 OFFCURVE",
"104 153 CURVE SMOOTH",
"106 167 LINE SMOOTH",
"117 248 OFFCURVE",
"171 277 OFFCURVE",
"260 277 CURVE SMOOTH",
"357 277 OFFCURVE",
"409 238 OFFCURVE",
"399 172 CURVE SMOOTH",
"397 156 LINE SMOOTH",
"387 86 OFFCURVE",
"319 41 OFFCURVE",
"222 41 CURVE SMOOTH"
);
}
);
width = 553;
}
);
leftKerningGroup = public.kern2.a;
rightKerningGroup = public.kern1.n;
unicode = 0061;
partsSettings = (
{
name = Op;
bottomName = "";
bottomValue = 0;
topName = "";
topValue = 1000;
},
{
name = Sl;
bottomName = "";
bottomValue = 0;
topName = "";
topValue = 1000;
},
{
name = Wd;
bottomName = "";
bottomValue = 0;
topName = "";
topValue = 1000;
},
{
name = Wt;
bottomName = "";
bottomValue = 0;
topName = "";
topValue = 1000;
}
);
},
{
glyphname = b;
layers = (
{
anchors = (
{
name = "#entry";
position = "{100, 700}";
}
);
layerId = "3C3B4AE3-80BB-44A4-A3CD-A752C08638B1";
paths = (
{
closed = 1;
nodes = (
"551 -15 OFFCURVE",
"648 82 OFFCURVE",
"672 256 CURVE SMOOTH",
"676 284 LINE SMOOTH",
"700 458 OFFCURVE",
"631 555 OFFCURVE",
"488 555 CURVE SMOOTH",
"343 555 OFFCURVE",
"246 457 OFFCURVE",
"222 284 CURVE SMOOTH",
"218 256 LINE SMOOTH",
"194 82 OFFCURVE",
"262 -15 OFFCURVE",
"408 -15 CURVE SMOOTH"
);
},
{
closed = 1;
nodes = (
"2 0 LINE",
"195 0 LINE",
"334 229 LINE",
"406 740 LINE",
"106 740 LINE"
);
},
{
closed = 1;
nodes = (
"336 195 OFFCURVE",
"331 207 OFFCURVE",
"334 229 CURVE SMOOTH",
"346 311 LINE SMOOTH",
"349 333 OFFCURVE",
"358 345 OFFCURVE",
"370 345 CURVE SMOOTH",
"380 345 OFFCURVE",
"384 338 OFFCURVE",
"381 321 CURVE SMOOTH",
"367 219 LINE SMOOTH",
"364 202 OFFCURVE",
"358 195 OFFCURVE",
"348 195 CURVE SMOOTH"
);
}
);
width = 690;
},
{
anchors = (
{
name = "#entry";
position = "{110, 700}";
}
);
layerId = "463395A0-2DFC-45D4-87AF-EBCF54FF53ED";
paths = (
{
closed = 1;
nodes = (
"500 -12 OFFCURVE",
"588 74 OFFCURVE",
"610 230 CURVE SMOOTH",
"622 310 LINE",
"643 465 OFFCURVE",
"580 552 OFFCURVE",
"445 552 CURVE SMOOTH",
"306 552 OFFCURVE",
"208 458 OFFCURVE",
"185 297 CURVE SMOOTH",
"177 244 LINE",
"156 83 OFFCURVE",
"226 -12 OFFCURVE",
"367 -12 CURVE SMOOTH"
);
},
{
closed = 1;
nodes = (
"12 0 LINE",
"153 0 LINE",
"259 194 LINE",
"336 740 LINE",
"116 740 LINE"
);
},
{
closed = 1;
nodes = (
"278 142 OFFCURVE",
"257 176 OFFCURVE",
"265 232 CURVE SMOOTH",
"275 308 LINE SMOOTH",
"283 364 OFFCURVE",
"314 397 OFFCURVE",
"357 397 CURVE SMOOTH",
"393 397 OFFCURVE",
"410 372 OFFCURVE",
"404 326 CURVE SMOOTH",
"388 213 LINE SMOOTH",
"382 167 OFFCURVE",
"357 142 OFFCURVE",
"321 142 CURVE SMOOTH"
);
}
);
width = 646;
},
{
anchors = (
{
name = "#entry";
position = "{100, 700}";
}
);
layerId = "B66266A1-0CD1-42BF-9957-E58294B85305";
paths = (
{
closed = 1;
nodes = (
"655 -15 OFFCURVE",
"768 84 OFFCURVE",
"793 261 CURVE SMOOTH",
"795 279 LINE SMOOTH",
"820 456 OFFCURVE",
"732 555 OFFCURVE",
"555 555 CURVE SMOOTH",
"378 555 OFFCURVE",
"246 448 OFFCURVE",
"222 284 CURVE SMOOTH",
"218 256 LINE SMOOTH",
"196 92 OFFCURVE",
"301 -15 OFFCURVE",
"485 -15 CURVE SMOOTH"
);
},
{
closed = 1;
nodes = (
"2 0 LINE",
"195 0 LINE",
"320 129 LINE",
"406 740 LINE",
"106 740 LINE"
);
},
{
closed = 1;
nodes = (
"358 195 OFFCURVE",
"333 221 OFFCURVE",
"339 265 CURVE SMOOTH",
"340 271 LINE SMOOTH",
"346 315 OFFCURVE",
"380 341 OFFCURVE",
"429 341 CURVE SMOOTH",
"474 341 OFFCURVE",
"500 313 OFFCURVE",
"494 271 CURVE SMOOTH",
"493 265 LINE SMOOTH",
"487 223 OFFCURVE",
"453 195 OFFCURVE",
"408 195 CURVE SMOOTH"
);
}
);
width = 819;
},
{
anchors = (
{
name = "#entry";
position = "{112, 700}";
}
);
layerId = "3B401755-81E4-40F3-BD5E-9424281583CA";
paths = (
{
closed = 1;
nodes = (
"623 -13 OFFCURVE",
"732 84 OFFCURVE",
"756 257 CURVE SMOOTH",
"760 283 LINE SMOOTH",
"784 456 OFFCURVE",
"700 553 OFFCURVE",
"531 553 CURVE SMOOTH",
"357 553 OFFCURVE",
"227 448 OFFCURVE",
"203 284 CURVE SMOOTH",
"199 257 LINE SMOOTH",
"177 93 OFFCURVE",
"279 -13 OFFCURVE",
"459 -13 CURVE SMOOTH"
);
},
{
closed = 1;
nodes = (
"14 0 LINE",
"175 0 LINE",
"284 144 LINE",
"368 740 LINE",
"118 740 LINE"
);
},
{
closed = 1;
nodes = (
"327 162 OFFCURVE",
"292 201 OFFCURVE",
"301 265 CURVE SMOOTH",
"302 273 LINE SMOOTH",
"311 337 OFFCURVE",
"358 375 OFFCURVE",
"426 375 CURVE SMOOTH",
"485 375 OFFCURVE",
"517 337 OFFCURVE",
"509 277 CURVE SMOOTH",
"507 260 LINE SMOOTH",
"498 200 OFFCURVE",
"455 162 OFFCURVE",
"396 162 CURVE SMOOTH"
);
}
);
width = 792;
},
{
anchors = (
{
name = "#entry";
position = "{110, 700}";
}
);
layerId = "3D671699-C126-4AA5-A66F-47C26817AED2";
paths = (
{
closed = 1;
nodes = (
"124 -5 OFFCURVE",
"148 26 OFFCURVE",
"157 95 CURVE",
"207 445 LINE",
"216 513 OFFCURVE",
"202 545 OFFCURVE",
"160 545 CURVE SMOOTH",
"115 545 OFFCURVE",
"81 483 OFFCURVE",
"65 371 CURVE SMOOTH",
"37 169 LINE SMOOTH",
"22 61 OFFCURVE",
"39 -5 OFFCURVE",
"82 -5 CURVE SMOOTH"
);
},
{
closed = 1;
nodes = (
"12 0 LINE",
"14 0 LINE",
"38 156 LINE",
"120 740 LINE",
"116 740 LINE"
);
},
{
closed = 1;
nodes = (
"42 -1 OFFCURVE",
"25 64 OFFCURVE",
"40 169 CURVE SMOOTH",
"68 371 LINE SMOOTH",
"84 481 OFFCURVE",
"116 541 OFFCURVE",
"159 541 CURVE SMOOTH",
"198 541 OFFCURVE",
"212 511 OFFCURVE",
"203 445 CURVE SMOOTH",
"153 95 LINE SMOOTH",
"144 28 OFFCURVE",
"122 -1 OFFCURVE",
"83 -1 CURVE SMOOTH"
);
}
);
width = 222;
},
{
anchors = (
{
name = "#entry";
position = "{135, 700}";
}
);
layerId = "46E74328-601B-43A9-9281-7B741E5F83E4";
paths = (
{
closed = 1;
nodes = (
"317 -7 OFFCURVE",
"373 52 OFFCURVE",
"389 163 CURVE SMOOTH",
"419 377 LINE SMOOTH",
"434 487 OFFCURVE",
"395 547 OFFCURVE",
"307 547 CURVE SMOOTH",
"209 547 OFFCURVE",
"138 468 OFFCURVE",
"118 332 CURVE SMOOTH",
"101 211 LINE SMOOTH",
"83 76 OFFCURVE",
"132 -7 OFFCURVE",
"229 -7 CURVE SMOOTH"
);
},
{
closed = 1;
nodes = (
"37 0 LINE",
"72 0 LINE",
"122 178 LINE",
"201 740 LINE",
"141 740 LINE"
);
},
{
closed = 1;
nodes = (
"148 46 OFFCURVE",
"112 108 OFFCURVE",
"126 209 CURVE SMOOTH",
"144 332 LINE",
"158 435 OFFCURVE",
"209 493 OFFCURVE",
"281 493 CURVE SMOOTH",
"342 493 OFFCURVE",
"370 453 OFFCURVE",
"359 379 CURVE",
"329 160 LINE",
"318 86 OFFCURVE",
"280 46 OFFCURVE",
"219 46 CURVE SMOOTH"
);
}
);
width = 464;
},
{
anchors = (
{
name = "#entry";
position = "{170, 700}";
}
);
guideLines = (
{
angle = 229.025;
position = "{309, 235}";
}
);
layerId = "ECB9DAFA-B085-4474-A032-AB3BEA4F5B4C";
paths = (
{
closed = 1;
nodes = (
"464 -5 OFFCURVE",
"554 83 OFFCURVE",
"575 235 CURVE SMOOTH",
"585 305 LINE SMOOTH",
"606 455 OFFCURVE",
"543 545 OFFCURVE",
"410 545 CURVE SMOOTH",
"250 545 OFFCURVE",
"135 448 OFFCURVE",
"112 285 CURVE SMOOTH",
"109 264 LINE SMOOTH",
"86 96 OFFCURVE",
"172 -5 OFFCURVE",
"332 -5 CURVE SMOOTH"
);
},
{
closed = 1;
nodes = (
"72 0 LINE",
"74 0 LINE",
"107 220 LINE",
"180 740 LINE",
"176 740 LINE"
);
},
{
closed = 1;
nodes = (
"174 -1 OFFCURVE",
"90 100 OFFCURVE",
"113 264 CURVE SMOOTH",
"116 285 LINE SMOOTH",
"138 444 OFFCURVE",
"250 541 OFFCURVE",
"409 541 CURVE SMOOTH",
"538 541 OFFCURVE",
"602 454 OFFCURVE",
"581 305 CURVE SMOOTH",
"571 235 LINE SMOOTH",
"550 85 OFFCURVE",
"463 -1 OFFCURVE",
"333 -1 CURVE SMOOTH"
);
}
);
width = 660;
},
{
anchors = (
{
name = "#entry";
position = "{150, 700}";
}
);
layerId = "287B816B-C6D9-4D62-948A-F2FEA8E41A5A";
paths = (
{
closed = 1;
nodes = (
"458 -7 OFFCURVE",
"547 73 OFFCURVE",
"567 215 CURVE SMOOTH",
"583 325 LINE SMOOTH",
"603 466 OFFCURVE",
"536 547 OFFCURVE",
"399 547 CURVE SMOOTH",
"253 547 OFFCURVE",
"145 452 OFFCURVE",
"123 301 CURVE SMOOTH",
"115 244 LINE SMOOTH",
"94 92 OFFCURVE",
"176 -7 OFFCURVE",
"321 -7 CURVE SMOOTH"
);
},
{
closed = 1;
nodes = (
"52 0 LINE",
"87 0 LINE",
"136 172 LINE",
"216 740 LINE",
"156 740 LINE"
);
},
{
closed = 1;
nodes = (
"198 41 OFFCURVE",
"129 122 OFFCURVE",
"148 254 CURVE SMOOTH",
"153 289 LINE SMOOTH",
"171 420 OFFCURVE",
"261 498 OFFCURVE",
"392 498 CURVE SMOOTH",
"491 498 OFFCURVE",
"538 432 OFFCURVE",
"521 315 CURVE SMOOTH",
"508 223 LINE SMOOTH",
"492 108 OFFCURVE",
"426 41 OFFCURVE",
"328 41 CURVE SMOOTH"
);
}
);
width = 645;
}
);
leftKerningGroup = public.kern2.h;
rightKerningGroup = public.kern1.o;
unicode = 0062;
},
{
glyphname = c;
layers = (
{
anchors = (
{
name = bottom;
position = "{295, 0}";
},
{
name = top;
position = "{371, 540}";
}
);
guideLines = (
{
angle = 175.914;
position = "{337, 223}";
},
{
angle = 184.086;
position = "{363, 317}";
}
);
layerId = "3C3B4AE3-80BB-44A4-A3CD-A752C08638B1";
paths = (
{
closed = 1;
nodes = (
"449 -15 OFFCURVE",
"567 68 OFFCURVE",
"610 218 CURVE",
"346 238 LINE",
"340 198 OFFCURVE",
"332 180 OFFCURVE",
"320 180 CURVE SMOOTH",
"308 180 OFFCURVE",
"305 190 OFFCURVE",
"308 213 CURVE SMOOTH",
"324 327 LINE SMOOTH",
"327 350 OFFCURVE",
"334 360 OFFCURVE",
"346 360 CURVE SMOOTH",
"358 360 OFFCURVE",
"360 342 OFFCURVE",
"354 302 CURVE",
"624 322 LINE",
"623 472 OFFCURVE",
"528 555 OFFCURVE",
"353 555 CURVE SMOOTH",
"163 555 OFFCURVE",
"42 458 OFFCURVE",
"18 284 CURVE SMOOTH",
"14 256 LINE SMOOTH",
"-10 82 OFFCURVE",
"83 -15 OFFCURVE",
"273 -15 CURVE SMOOTH"
);
}
);
width = 629;
},
{
anchors = (
{
name = bottom;
position = "{268, 0}";
},
{
name = top;
position = "{354, 540}";
}
);
layerId = "463395A0-2DFC-45D4-87AF-EBCF54FF53ED";
paths = (
{
closed = 1;
nodes = (
"420 -12 OFFCURVE",
"527 64 OFFCURVE",
"563 200 CURVE",
"365 214 LINE",
"354 160 OFFCURVE",
"328 131 OFFCURVE",
"291 131 CURVE SMOOTH",
"253 131 OFFCURVE",
"234 159 OFFCURVE",
"241 208 CURVE SMOOTH",
"259 332 LINE SMOOTH",
"266 381 OFFCURVE",
"293 409 OFFCURVE",
"331 409 CURVE SMOOTH",
"368 409 OFFCURVE",
"384 380 OFFCURVE",
"381 326 CURVE",
"583 340 LINE",
"585 476 OFFCURVE",
"499 552 OFFCURVE",
"336 552 CURVE SMOOTH",
"168 552 OFFCURVE",
"57 463 OFFCURVE",
"36 310 CURVE",
"24 230 LINE",
"3 76 OFFCURVE",
"88 -12 OFFCURVE",
"256 -12 CURVE SMOOTH"
);
}
);
width = 595;
},
{
anchors = (
{
name = bottom;
position = "{365, 0}";
},
{
name = top;
position = "{451, 540}";
}
);
guideLines = (
{
angle = 184.086;
position = "{503, 313}";
},
{
angle = 175.914;
position = "{479, 227}";
},
{
angle = 184.086;
position = "{477, 293}";
}
);
layerId = "B66266A1-0CD1-42BF-9957-E58294B85305";
paths = (
{
closed = 1;
nodes = (
"571 -15 OFFCURVE",
"718 78 OFFCURVE",
"750 227 CURVE",
"468 247 LINE",
"456 207 OFFCURVE",
"427 180 OFFCURVE",
"385 180 CURVE SMOOTH",
"342 180 OFFCURVE",
"317 211 OFFCURVE",
"323 257 CURVE SMOOTH",
"327 283 LINE SMOOTH",
"333 329 OFFCURVE",
"368 360 OFFCURVE",
"411 360 CURVE SMOOTH",
"453 360 OFFCURVE",
"474 333 OFFCURVE",
"474 293 CURVE",
"762 313 LINE",
"772 462 OFFCURVE",
"651 555 OFFCURVE",
"418 555 CURVE SMOOTH",
"198 555 OFFCURVE",
"50 450 OFFCURVE",
"26 279 CURVE SMOOTH",
"24 261 LINE SMOOTH",
"0 90 OFFCURVE",
"118 -15 OFFCURVE",
"338 -15 CURVE SMOOTH"
);
}
);
width = 775;
},
{
anchors = (
{
name = bottom;
position = "{350, 0}";
},
{
name = top;
position = "{436, 540}";
}
);
layerId = "3B401755-81E4-40F3-BD5E-9424281583CA";
paths = (
{
closed = 1;
nodes = (
"542 -13 OFFCURVE",
"681 76 OFFCURVE",
"713 219 CURVE",
"478 236 LINE",
"462 183 OFFCURVE",
"423 149 OFFCURVE",
"367 149 CURVE SMOOTH",
"307 149 OFFCURVE",
"274 190 OFFCURVE",
"283 253 CURVE SMOOTH",
"287 287 LINE",
"296 349 OFFCURVE",
"342 391 OFFCURVE",
"401 391 CURVE SMOOTH",
"457 391 OFFCURVE",
"486 357 OFFCURVE",
"488 304 CURVE",
"727 321 LINE",
"735 464 OFFCURVE",
"622 553 OFFCURVE",
"407 553 CURVE SMOOTH",
"201 553 OFFCURVE",
"60 450 OFFCURVE",
"37 283 CURVE SMOOTH",
"33 257 LINE SMOOTH",
"10 89 OFFCURVE",
"120 -13 OFFCURVE",
"327 -13 CURVE SMOOTH"
);
}
);
width = 746;
},
{
anchors = (
{
name = bottom;
position = "{66, 0}";
},
{
name = top;
position = "{142, 540}";
}
);
guideLines = (
{
angle = 184.086;
position = "{74, 375}";
},
{
angle = 175.914;
position = "{14, 165}";
}
);
layerId = "3D671699-C126-4AA5-A66F-47C26817AED2";
paths = (
{
closed = 1;
nodes = (
"106 -5 OFFCURVE",
"132 33 OFFCURVE",
"145 114 CURVE",
"141 114 LINE",
"128 35 OFFCURVE",
"104 -1 OFFCURVE",
"65 -1 CURVE SMOOTH",
"27 -1 OFFCURVE",
"11 32 OFFCURVE",
"19 95 CURVE",
"69 445 LINE",
"77 508 OFFCURVE",
"103 541 OFFCURVE",
"141 541 CURVE SMOOTH",
"180 541 OFFCURVE",
"194 505 OFFCURVE",
"185 426 CURVE",
"189 426 LINE",
"198 507 OFFCURVE",
"184 545 OFFCURVE",
"142 545 CURVE SMOOTH",
"101 545 OFFCURVE",
"74 510 OFFCURVE",
"65 445 CURVE SMOOTH",
"15 95 LINE SMOOTH",
"6 30 OFFCURVE",
"23 -5 OFFCURVE",
"64 -5 CURVE SMOOTH"
);
}
);
width = 183;
},
{
anchors = (
{
name = bottom;
position = "{187, 0}";
},
{
name = top;
position = "{263, 540}";
}
);
layerId = "46E74328-601B-43A9-9281-7B741E5F83E4";
paths = (
{
closed = 1;
nodes = (
"273 -7 OFFCURVE",
"337 49 OFFCURVE",
"361 152 CURVE",
"306 156 LINE",
"289 85 OFFCURVE",
"249 47 OFFCURVE",
"189 47 CURVE SMOOTH",
"126 47 OFFCURVE",
"95 89 OFFCURVE",
"104 159 CURVE",
"136 381 LINE",
"145 451 OFFCURVE",
"189 493 OFFCURVE",
"251 493 CURVE SMOOTH",
"311 493 OFFCURVE",
"341 455 OFFCURVE",
"338 384 CURVE",
"395 388 LINE",
"399 491 OFFCURVE",
"351 547 OFFCURVE",
"255 547 CURVE SMOOTH",
"157 547 OFFCURVE",
"90 484 OFFCURVE",
"75 377 CURVE SMOOTH",
"45 163 LINE SMOOTH",
"30 55 OFFCURVE",
"78 -7 OFFCURVE",
"177 -7 CURVE SMOOTH"
);
}
);
width = 423;
},
{
anchors = (
{
name = bottom;
position = "{280, -1}";
},
{
name = top;
position = "{356, 540}";
}
);
guideLines = (
{
angle = 186.818;
position = "{94, 305}";
},
{
angle = 44.881;
position = "{251, -5}";
},
{
angle = 173.182;
position = "{74, 235}";
}
);
layerId = "ECB9DAFA-B085-4474-A032-AB3BEA4F5B4C";
paths = (
{
closed = 1;
nodes = (
"396 -5 OFFCURVE",
"489 64 OFFCURVE",
"526 179 CURVE",
"522 180 LINE",
"486 67 OFFCURVE",
"395 -1 OFFCURVE",
"270 -1 CURVE SMOOTH",
"131 -1 OFFCURVE",
"59 89 OFFCURVE",
"79 235 CURVE SMOOTH",
"89 305 LINE SMOOTH",
"109 450 OFFCURVE",
"208 541 OFFCURVE",
"346 541 CURVE SMOOTH",
"471 541 OFFCURVE",
"544 473 OFFCURVE",
"548 360 CURVE",
"552 361 LINE",
"547 476 OFFCURVE",
"474 545 OFFCURVE",
"347 545 CURVE SMOOTH",
"207 545 OFFCURVE",
"106 452 OFFCURVE",
"85 305 CURVE SMOOTH",
"75 235 LINE SMOOTH",
"54 86 OFFCURVE",
"128 -5 OFFCURVE",
"269 -5 CURVE SMOOTH"
);
}
);
width = 599;
},
{
anchors = (
{
name = bottom;
position = "{279, 0}";
},
{
name = top;
position = "{355, 540}";
}
);
layerId = "287B816B-C6D9-4D62-948A-F2FEA8E41A5A";
paths = (
{
closed = 1;
nodes = (
"400 -7 OFFCURVE",
"502 65 OFFCURVE",
"530 178 CURVE",
"471 183 LINE",
"441 94 OFFCURVE",
"375 47 OFFCURVE",
"275 47 CURVE SMOOTH",
"164 47 OFFCURVE",
"107 109 OFFCURVE",
"122 215 CURVE SMOOTH",
"138 325 LINE",
"152 429 OFFCURVE",
"228 493 OFFCURVE",
"337 493 CURVE SMOOTH",
"439 493 OFFCURVE",
"491 448 OFFCURVE",
"495 357 CURVE",
"556 362 LINE",
"560 477 OFFCURVE",
"479 547 OFFCURVE",
"345 547 CURVE SMOOTH",
"200 547 OFFCURVE",
"97 461 OFFCURVE",
"78 325 CURVE SMOOTH",
"62 215 LINE SMOOTH",
"43 77 OFFCURVE",
"121 -7 OFFCURVE",
"267 -7 CURVE SMOOTH"
);
}
);
width = 595;
}
);
leftKerningGroup = public.kern2.o;
rightKerningGroup = public.kern1.c;
unicode = 0063;
},
{
glyphname = d;
layers = (
{
anchors = (
{
name = bottom;
position = "{268, 0}";
},
{
name = center;
position = "{552, 640}";
},
{
name = top;
position = "{343, 540}";
},
{
name = topright;
position = "{728, 540}";
}
);
layerId = "3C3B4AE3-80BB-44A4-A3CD-A752C08638B1";
paths = (
{
closed = 1;
nodes = (
"348 -15 OFFCURVE",
"444 82 OFFCURVE",
"468 256 CURVE SMOOTH",
"472 284 LINE SMOOTH",
"496 457 OFFCURVE",
"427 555 OFFCURVE",
"282 555 CURVE SMOOTH",
"139 555 OFFCURVE",
"42 458 OFFCURVE",
"18 284 CURVE SMOOTH",
"14 256 LINE SMOOTH",
"-10 82 OFFCURVE",
"59 -15 OFFCURVE",
"202 -15 CURVE SMOOTH"
);
},
{
closed = 1;
nodes = (
"310 195 OFFCURVE",
"306 202 OFFCURVE",
"309 219 CURVE SMOOTH",
"323 321 LINE SMOOTH",
"326 338 OFFCURVE",
"332 345 OFFCURVE",
"342 345 CURVE SMOOTH",
"354 345 OFFCURVE",
"359 333 OFFCURVE",
"356 311 CURVE SMOOTH",
"344 229 LINE SMOOTH",
"341 207 OFFCURVE",
"332 195 OFFCURVE",
"320 195 CURVE SMOOTH"
);
},
{
closed = 1;
nodes = (
"419 0 LINE",
"612 0 LINE",
"716 740 LINE",
"416 740 LINE",
"344 229 LINE"
);
}
);
width = 690;
},
{
anchors = (
{
name = bottom;
position = "{244, 0}";
},
{
name = center;
position = "{538, 640}";
},
{
name = top;
position = "{319, 540}";
},
{
name = topright;
position = "{684, 540}";
}
);
layerId = "463395A0-2DFC-45D4-87AF-EBCF54FF53ED";
paths = (
{
closed = 1;
nodes = (
"340 -12 OFFCURVE",
"439 83 OFFCURVE",
"461 244 CURVE SMOOTH",
"469 297 LINE SMOOTH",
"491 458 OFFCURVE",
"420 552 OFFCURVE",
"281 552 CURVE SMOOTH",
"147 552 OFFCURVE",
"57 465 OFFCURVE",
"36 310 CURVE",
"24 230 LINE SMOOTH",
"2 74 OFFCURVE",
"66 -12 OFFCURVE",
"199 -12 CURVE SMOOTH"
);
},
{
closed = 1;
nodes = (
"253 142 OFFCURVE",
"236 167 OFFCURVE",
"242 213 CURVE SMOOTH",
"258 326 LINE SMOOTH",
"264 372 OFFCURVE",
"289 397 OFFCURVE",
"326 397 CURVE SMOOTH",
"369 397 OFFCURVE",
"389 364 OFFCURVE",
"381 308 CURVE SMOOTH",
"371 232 LINE SMOOTH",
"363 176 OFFCURVE",
"333 142 OFFCURVE",
"290 142 CURVE SMOOTH"
);
},
{
closed = 1;
nodes = (
"417 0 LINE",
"558 0 LINE",
"662 740 LINE",
"442 740 LINE",
"365 194 LINE"
);
}
);
width = 646;
},
{
anchors = (
{
name = bottom;
position = "{288, 0}";
},
{
name = center;
position = "{681, 640}";
},
{
name = top;
position = "{364, 540}";
},
{
name = topright;
position = "{857, 540}";
}
);
layerId = "B66266A1-0CD1-42BF-9957-E58294B85305";
paths = (
{
closed = 1;
nodes = (
"438 -15 OFFCURVE",
"573 92 OFFCURVE",
"597 256 CURVE SMOOTH",
"601 284 LINE SMOOTH",
"623 448 OFFCURVE",
"521 555 OFFCURVE",
"344 555 CURVE SMOOTH",
"167 555 OFFCURVE",
"51 456 OFFCURVE",
"26 279 CURVE SMOOTH",
"24 261 LINE SMOOTH",
"-1 84 OFFCURVE",
"84 -15 OFFCURVE",
"254 -15 CURVE SMOOTH"
);
},
{
closed = 1;
nodes = (
"344 195 OFFCURVE",
"318 223 OFFCURVE",
"324 265 CURVE SMOOTH",
"325 271 LINE SMOOTH",
"331 313 OFFCURVE",
"365 341 OFFCURVE",
"410 341 CURVE SMOOTH",
"459 341 OFFCURVE",
"485 315 OFFCURVE",
"479 271 CURVE SMOOTH",
"478 265 LINE SMOOTH",
"472 221 OFFCURVE",
"439 195 OFFCURVE",
"389 195 CURVE SMOOTH"
);
},
{
closed = 1;
nodes = (
"548 0 LINE",
"741 0 LINE",
"845 740 LINE",
"545 740 LINE",
"459 129 LINE"
);
}
);
width = 819;
},
{
anchors = (
{
name = bottom;
position = "{287, 0}";
},
{
name = center;
position = "{668, 640}";
},
{
name = top;
position = "{363, 540}";
},
{
name = topright;
position = "{831, 540}";
}
);
layerId = "3B401755-81E4-40F3-BD5E-9424281583CA";
paths = (
{
closed = 1;
nodes = (
"434 -13 OFFCURVE",
"566 93 OFFCURVE",
"590 257 CURVE SMOOTH",
"594 284 LINE SMOOTH",
"616 448 OFFCURVE",
"516 553 OFFCURVE",
"342 553 CURVE SMOOTH",
"173 553 OFFCURVE",
"61 456 OFFCURVE",
"37 283 CURVE SMOOTH",
"33 257 LINE SMOOTH",
"9 84 OFFCURVE",
"90 -13 OFFCURVE",
"254 -13 CURVE SMOOTH"
);
},
{
closed = 1;
nodes = (
"308 162 OFFCURVE",
"275 200 OFFCURVE",
"284 260 CURVE SMOOTH",
"286 277 LINE SMOOTH",
"294 337 OFFCURVE",
"338 375 OFFCURVE",
"397 375 CURVE SMOOTH",
"465 375 OFFCURVE",
"500 337 OFFCURVE",
"491 273 CURVE SMOOTH",
"490 265 LINE SMOOTH",
"481 201 OFFCURVE",
"436 162 OFFCURVE",
"367 162 CURVE SMOOTH"
);
},
{
closed = 1;
nodes = (
"542 0 LINE",
"703 0 LINE",
"807 740 LINE",
"557 740 LINE",
"473 144 LINE"
);
}
);
width = 793;
},
{
anchors = (
{
name = bottom;
position = "{63, 0}";
},
{
name = center;
position = "{222, 640}";
},
{
name = top;
position = "{139, 540}";
},
{
name = topright;
position = "{260, 540}";
}
);
layerId = "3D671699-C126-4AA5-A66F-47C26817AED2";
paths = (
{
closed = 1;
nodes = (
"105 -5 OFFCURVE",
"142 61 OFFCURVE",
"157 169 CURVE SMOOTH",
"185 371 LINE SMOOTH",
"201 483 OFFCURVE",
"185 545 OFFCURVE",
"140 545 CURVE SMOOTH",
"98 545 OFFCURVE",
"74 513 OFFCURVE",
"65 445 CURVE",
"15 95 LINE",
"6 26 OFFCURVE",
"20 -5 OFFCURVE",
"62 -5 CURVE SMOOTH"
);
},
{
closed = 1;
nodes = (
"24 -1 OFFCURVE",
"10 28 OFFCURVE",
"19 95 CURVE SMOOTH",
"69 445 LINE SMOOTH",
"78 511 OFFCURVE",
"100 541 OFFCURVE",
"139 541 CURVE SMOOTH",
"182 541 OFFCURVE",
"198 481 OFFCURVE",
"182 371 CURVE SMOOTH",
"154 169 LINE SMOOTH",
"139 64 OFFCURVE",
"104 -1 OFFCURVE",
"63 -1 CURVE SMOOTH"
);
},
{
closed = 1;
nodes = (
"132 0 LINE",
"134 0 LINE",
"238 740 LINE",
"234 740 LINE",
"152 156 LINE"
);
}
);
width = 222;
},
{
anchors = (
{
name = bottom;
position = "{174, 0}";
},
{
name = center;
position = "{410, 640}";
},
{
name = top;
position = "{250, 540}";
},
{
name = topright;
position = "{501, 540}";
}
);
layerId = "46E74328-601B-43A9-9281-7B741E5F83E4";
paths = (
{
closed = 1;
nodes = (
"254 -7 OFFCURVE",
"327 76 OFFCURVE",
"346 211 CURVE SMOOTH",
"363 332 LINE SMOOTH",
"382 468 OFFCURVE",
"333 547 OFFCURVE",
"235 547 CURVE SMOOTH",
"147 547 OFFCURVE",
"90 487 OFFCURVE",
"75 377 CURVE SMOOTH",
"45 163 LINE SMOOTH",
"29 52 OFFCURVE",
"69 -7 OFFCURVE",
"156 -7 CURVE SMOOTH"
);
},
{
closed = 1;
nodes = (
"122 46 OFFCURVE",
"94 86 OFFCURVE",
"105 160 CURVE",
"135 379 LINE",
"146 453 OFFCURVE",
"184 493 OFFCURVE",
"245 493 CURVE SMOOTH",
"317 493 OFFCURVE",
"351 435 OFFCURVE",
"337 332 CURVE",
"319 209 LINE SMOOTH",
"305 108 OFFCURVE",
"254 46 OFFCURVE",
"183 46 CURVE SMOOTH"
);
},
{
closed = 1;
nodes = (
"315 0 LINE",
"350 0 LINE",
"454 740 LINE",
"394 740 LINE",
"315 178 LINE"
);
}
);
width = 463;
},
{
anchors = (
{
name = bottom;
position = "{278, 0}";
},
{
name = center;
position = "{600, 640}";
},
{
name = top;
position = "{354, 540}";
},
{
name = topright;
position = "{698, 540}";
}
);
guideLines = (
{
angle = 229.025;
position = "{279, 235}";
}
);
layerId = "ECB9DAFA-B085-4474-A032-AB3BEA4F5B4C";
paths = (
{
closed = 1;
nodes = (
"410 -5 OFFCURVE",
"526 96 OFFCURVE",
"549 264 CURVE SMOOTH",
"552 285 LINE SMOOTH",
"575 448 OFFCURVE",
"488 545 OFFCURVE",
"328 545 CURVE SMOOTH",
"195 545 OFFCURVE",
"106 455 OFFCURVE",
"85 305 CURVE SMOOTH",
"75 235 LINE SMOOTH",
"54 83 OFFCURVE",
"118 -5 OFFCURVE",
"250 -5 CURVE SMOOTH"
);
},
{
closed = 1;
nodes = (
"121 -1 OFFCURVE",
"58 85 OFFCURVE",
"79 235 CURVE SMOOTH",
"89 305 LINE SMOOTH",
"110 454 OFFCURVE",
"198 541 OFFCURVE",
"327 541 CURVE SMOOTH",
"486 541 OFFCURVE",
"570 444 OFFCURVE",
"548 285 CURVE SMOOTH",
"545 264 LINE SMOOTH",
"522 100 OFFCURVE",
"410 -1 OFFCURVE",
"251 -1 CURVE SMOOTH"
);
},
{
closed = 1;
nodes = (
"510 0 LINE",
"512 0 LINE",
"616 740 LINE",
"612 740 LINE",
"539 220 LINE"
);
}
);
width = 660;
},
{
anchors = (
{
name = bottom;
position = "{250, 0}";
},
{
name = center;
position = "{576, 640}";
},
{
name = top;
position = "{327, 540}";
},
{
name = topright;
position = "{682, 540}";
}
);
layerId = "287B816B-C6D9-4D62-948A-F2FEA8E41A5A";
paths = (
{
closed = 1;
nodes = (
"391 -7 OFFCURVE",
"501 92 OFFCURVE",
"522 244 CURVE SMOOTH",
"530 301 LINE SMOOTH",
"552 452 OFFCURVE",
"470 547 OFFCURVE",
"324 547 CURVE SMOOTH",
"187 547 OFFCURVE",
"98 466 OFFCURVE",
"78 325 CURVE SMOOTH",
"62 215 LINE SMOOTH",
"42 73 OFFCURVE",
"109 -7 OFFCURVE",
"246 -7 CURVE SMOOTH"
);
},
{
closed = 1;
nodes = (
"155 41 OFFCURVE",
"107 108 OFFCURVE",
"123 223 CURVE SMOOTH",
"136 315 LINE SMOOTH",
"153 432 OFFCURVE",
"218 498 OFFCURVE",
"317 498 CURVE SMOOTH",
"448 498 OFFCURVE",
"516 420 OFFCURVE",
"498 289 CURVE SMOOTH",
"493 254 LINE SMOOTH",
"474 122 OFFCURVE",
"383 41 OFFCURVE",
"253 41 CURVE SMOOTH"
);
},
{
closed = 1;
nodes = (
"482 0 LINE",
"517 0 LINE",
"621 740 LINE",
"561 740 LINE",
"481 172 LINE"
);
}
);
width = 645;
}
);
leftKerningGroup = public.kern2.o;
rightKerningGroup = public.kern1.l;
unicode = 0064;
},
{
glyphname = eth;
layers = (
{
guideLines = (
{
angle = 90;
position = "{395, 0}";
},
{
angle = 189.902;
position = "{298, 674}";
}
);
layerId = "3C3B4AE3-80BB-44A4-A3CD-A752C08638B1";
paths = (
{
closed = 1;
nodes = (
"486 -15 OFFCURVE",
"625 104 OFFCURVE",
"646 257 CURVE SMOOTH",
"650 283 LINE SMOOTH",
"674 455 OFFCURVE",
"655 628 OFFCURVE",
"623 800 CURVE",
"341 753 LINE",
"363 636 OFFCURVE",
"377 518 OFFCURVE",
"373 401 CURVE",
"598 383 LINE",
"611 479 OFFCURVE",
"526 555 OFFCURVE",
"371 555 CURVE SMOOTH",
"176 555 OFFCURVE",
"39 451 OFFCURVE",
"16 283 CURVE SMOOTH",
"12 257 LINE SMOOTH",
"-9 104 OFFCURVE",
"96 -15 OFFCURVE",
"291 -15 CURVE SMOOTH"
);
},
{
closed = 1;
nodes = (
"308 195 OFFCURVE",
"305 203 OFFCURVE",
"307 223 CURVE",
"321 317 LINE",
"323 337 OFFCURVE",
"330 345 OFFCURVE",
"342 345 CURVE SMOOTH",
"354 345 OFFCURVE",
"357 337 OFFCURVE",
"355 317 CURVE",
"341 223 LINE",
"339 203 OFFCURVE",
"332 195 OFFCURVE",
"320 195 CURVE SMOOTH"
);
},
{
closed = 1;
nodes = (
"249 587 LINE",
"724 668 LINE",
"737 758 LINE",
"261 677 LINE"
);
}
);
width = 672;
},
{
layerId = "463395A0-2DFC-45D4-87AF-EBCF54FF53ED";
paths = (
{
closed = 1;
nodes = (
"445 -12 OFFCURVE",
"566 80 OFFCURVE",
"587 230 CURVE SMOOTH",
"599 310 LINE SMOOTH",
"622 473 OFFCURVE",
"616 637 OFFCURVE",
"601 800 CURVE",
"367 761 LINE",
"377 664 OFFCURVE",
"384 586 OFFCURVE",
"379 469 CURVE",
"576 383 LINE",
"589 477 OFFCURVE",
"505 552 OFFCURVE",
"350 552 CURVE SMOOTH",
"174 552 OFFCURVE",
"53 461 OFFCURVE",
"32 310 CURVE SMOOTH",
"20 230 LINE SMOOTH",
"-1 79 OFFCURVE",
"94 -12 OFFCURVE",
"270 -12 CURVE SMOOTH"
);
},
{
closed = 1;
nodes = (
"252 143 OFFCURVE",
"232 169 OFFCURVE",
"238 215 CURVE SMOOTH",
"254 325 LINE SMOOTH",
"260 371 OFFCURVE",
"288 397 OFFCURVE",
"328 397 CURVE SMOOTH",
"368 397 OFFCURVE",
"387 371 OFFCURVE",
"381 325 CURVE SMOOTH",
"365 215 LINE SMOOTH",
"359 169 OFFCURVE",
"332 143 OFFCURVE",
"292 143 CURVE SMOOTH"
);
},
{
closed = 1;
nodes = (
"257 592 LINE",
"702 668 LINE",
"715 758 LINE",
"270 682 LINE"
);
}
);
width = 651;
},
{
guideLines = (
{
angle = 92.083;
position = "{845, 498}";
},
{
angle = 188.824;
position = "{766, 800}";
}
);
layerId = "B66266A1-0CD1-42BF-9957-E58294B85305";
paths = (
{
closed = 1;
nodes = (
"593 -15 OFFCURVE",
"754 103 OFFCURVE",
"776 262 CURVE SMOOTH",
"778 278 LINE SMOOTH",
"800 437 OFFCURVE",
"775 626 OFFCURVE",
"691 800 CURVE",
"409 756 LINE",
"466 633 OFFCURVE",
"506 510 OFFCURVE",
"507 387 CURVE",
"733 367 LINE",
"748 475 OFFCURVE",
"637 555 OFFCURVE",
"439 555 CURVE SMOOTH",
"205 555 OFFCURVE",
"44 437 OFFCURVE",
"22 278 CURVE SMOOTH",
"20 262 LINE SMOOTH",
"-2 103 OFFCURVE",
"125 -15 OFFCURVE",
"359 -15 CURVE SMOOTH"
);
},
{
closed = 1;
nodes = (
"343 200 OFFCURVE",
"315 227 OFFCURVE",
"321 267 CURVE",
"321 273 LINE",
"327 313 OFFCURVE",
"363 340 OFFCURVE",
"409 340 CURVE SMOOTH",
"455 340 OFFCURVE",
"483 313 OFFCURVE",
"477 273 CURVE",
"477 267 LINE",
"471 227 OFFCURVE",
"435 200 OFFCURVE",
"389 200 CURVE SMOOTH"
);
},
{
closed = 1;
nodes = (
"318 588 LINE",
"863 670 LINE",
"876 760 LINE",
"330 678 LINE"
);
}
);
width = 811;
},
{
guideLines = (
{
position = "{0, 222}";
},
{
angle = 189.086;
position = "{762, 800}";
}
);
layerId = "3B401755-81E4-40F3-BD5E-9424281583CA";
paths = (
{
closed = 1;
nodes = (
"564 -13 OFFCURVE",
"713 88 OFFCURVE",
"737 257 CURVE SMOOTH",
"741 283 LINE SMOOTH",
"764 450 OFFCURVE",
"748 628 OFFCURVE",
"687 800 CURVE",
"426 759 LINE",
"466 645 OFFCURVE",
"493 531 OFFCURVE",
"491 417 CURVE",
"675 340 LINE",
"692 463 OFFCURVE",
"598 553 OFFCURVE",
"424 553 CURVE SMOOTH",
"205 553 OFFCURVE",
"55 450 OFFCURVE",
"32 283 CURVE SMOOTH",
"28 257 LINE SMOOTH",
"5 89 OFFCURVE",
"125 -13 OFFCURVE",
"344 -13 CURVE SMOOTH"
);
},
{
closed = 1;
nodes = (
"307 166 OFFCURVE",
"271 204 OFFCURVE",
"279 262 CURVE SMOOTH",
"281 278 LINE SMOOTH",
"289 336 OFFCURVE",
"337 374 OFFCURVE",
"399 374 CURVE SMOOTH",
"462 374 OFFCURVE",
"498 336 OFFCURVE",
"490 278 CURVE SMOOTH",
"488 262 LINE SMOOTH",
"480 204 OFFCURVE",
"432 166 OFFCURVE",
"369 166 CURVE SMOOTH"
);
},
{
closed = 1;
nodes = (
"334 590 LINE",
"839 669 LINE",
"852 759 LINE",
"347 680 LINE"
);
}
);
width = 788;
},
{
layerId = "3D671699-C126-4AA5-A66F-47C26817AED2";
paths = (
{
closed = 1;
nodes = (
"105 -5 OFFCURVE",
"132 28 OFFCURVE",
"141 95 CURVE SMOOTH",
"187 420 LINE SMOOTH",
"202 527 OFFCURVE",
"207 633 OFFCURVE",
"204 740 CURVE",
"200 740 LINE",
"203 646 OFFCURVE",
"199 553 OFFCURVE",
"188 460 CURVE",
"190 459 LINE",
"187 501 OFFCURVE",
"169 520 OFFCURVE",
"135 520 CURVE SMOOTH",
"91 520 OFFCURVE",
"65 488 OFFCURVE",
"55 420 CURVE SMOOTH",
"9 95 LINE SMOOTH",
"0 28 OFFCURVE",
"17 -5 OFFCURVE",
"61 -5 CURVE SMOOTH"
);
},
{
closed = 1;
nodes = (
"21 -1 OFFCURVE",
"4 31 OFFCURVE",
"13 95 CURVE SMOOTH",
"59 420 LINE SMOOTH",
"68 485 OFFCURVE",
"93 516 OFFCURVE",
"135 516 CURVE SMOOTH",
"177 516 OFFCURVE",
"192 485 OFFCURVE",
"183 420 CURVE SMOOTH",
"137 95 LINE SMOOTH",
"128 31 OFFCURVE",
"103 -1 OFFCURVE",
"62 -1 CURVE SMOOTH"
);
},
{
closed = 1;
nodes = (
"125 622 LINE",
"248 667 LINE",
"248 671 LINE",
"126 626 LINE"
);
}
);
width = 207;
},
{
guideLines = (
{
angle = 93.201;
position = "{442, 380}";
},
{
angle = 284.036;
position = "{385, 740}";
},
{
angle = 20.623;
position = "{338, 705}";
},
{
angle = 96.71;
position = "{382, 507}";
}
);
layerId = "46E74328-601B-43A9-9281-7B741E5F83E4";
paths = (
{
closed = 1;
nodes = (
"280 -7 OFFCURVE",
"351 55 OFFCURVE",
"366 163 CURVE SMOOTH",
"389 327 LINE SMOOTH",
"408 464 OFFCURVE",
"393 629 OFFCURVE",
"375 740 CURVE",
"320 721 LINE",
"341 629 OFFCURVE",
"351 537 OFFCURVE",
"347 447 CURVE",
"355 453 LINE",
"340 482 OFFCURVE",
"299 497 OFFCURVE",
"248 497 CURVE SMOOTH",
"144 497 OFFCURVE",
"74 435 OFFCURVE",
"59 327 CURVE SMOOTH",
"36 163 LINE SMOOTH",
"21 55 OFFCURVE",
"73 -7 OFFCURVE",
"177 -7 CURVE SMOOTH"
);
},
{
closed = 1;
nodes = (
"118 47 OFFCURVE",
"85 88 OFFCURVE",
"96 161 CURVE",
"119 329 LINE",
"130 403 OFFCURVE",
"173 443 OFFCURVE",
"240 443 CURVE SMOOTH",
"306 443 OFFCURVE",
"340 403 OFFCURVE",
"329 329 CURVE",
"306 161 LINE",
"295 88 OFFCURVE",
"251 47 OFFCURVE",
"185 47 CURVE SMOOTH"
);
},
{
closed = 1;
nodes = (
"215 554 LINE",
"495 655 LINE",
"502 705 LINE",
"222 604 LINE"
);
}
);
width = 449;
},
{
guideLines = (
{
position = "{0, 317}";
}
);
layerId = "ECB9DAFA-B085-4474-A032-AB3BEA4F5B4C";
paths = (
{
closed = 1;
nodes = (
"413 -5 OFFCURVE",
"516 86 OFFCURVE",
"537 235 CURVE SMOOTH",
"543 280 LINE SMOOTH",
"565 433 OFFCURVE",
"556 587 OFFCURVE",
"518 740 CURVE",
"514 740 LINE",
"548 600 OFFCURVE",
"559 460 OFFCURVE",
"545 320 CURVE",
"547 317 LINE",
"550 444 OFFCURVE",
"475 520 OFFCURVE",
"341 520 CURVE SMOOTH",
"195 520 OFFCURVE",
"90 427 OFFCURVE",
"69 280 CURVE SMOOTH",
"63 235 LINE SMOOTH",
"42 86 OFFCURVE",
"120 -5 OFFCURVE",
"267 -5 CURVE SMOOTH"
);
},
{
closed = 1;
nodes = (
"123 -1 OFFCURVE",
"47 89 OFFCURVE",
"67 235 CURVE SMOOTH",
"73 280 LINE SMOOTH",
"94 425 OFFCURVE",
"197 516 OFFCURVE",
"341 516 CURVE SMOOTH",
"485 516 OFFCURVE",
"560 426 OFFCURVE",
"539 280 CURVE SMOOTH",
"533 235 LINE SMOOTH",
"513 89 OFFCURVE",
"412 -1 OFFCURVE",
"268 -1 CURVE SMOOTH"
);
},
{
closed = 1;
nodes = (
"419 591 LINE",
"656 667 LINE",
"656 671 LINE",
"420 595 LINE"
);
}
);
width = 611;
},
{
guideLines = (
{
angle = 93.201;
position = "{570, 217}";
},
{
angle = 200.556;
position = "{606, 740}";
}
);
layerId = "287B816B-C6D9-4D62-948A-F2FEA8E41A5A";
paths = (
{
closed = 1;
nodes = (
"416 -7 OFFCURVE",
"519 76 OFFCURVE",
"538 215 CURVE SMOOTH",
"547 275 LINE",
"568 430 OFFCURVE",
"566 585 OFFCURVE",
"540 740 CURVE",
"484 721 LINE",
"501 617 OFFCURVE",
"507 511 OFFCURVE",
"502 408 CURVE",
"511 412 LINE",
"483 466 OFFCURVE",
"421 497 OFFCURVE",
"335 497 CURVE SMOOTH",
"185 497 OFFCURVE",
"80 412 OFFCURVE",
"61 275 CURVE SMOOTH",
"52 215 LINE SMOOTH",
"33 76 OFFCURVE",
"112 -7 OFFCURVE",
"264 -7 CURVE SMOOTH"
);
},
{
closed = 1;
nodes = (
"160 47 OFFCURVE",
"98 112 OFFCURVE",
"112 215 CURVE SMOOTH",
"121 275 LINE SMOOTH",
"135 378 OFFCURVE",
"215 443 OFFCURVE",
"327 443 CURVE SMOOTH",
"440 443 OFFCURVE",
"501 379 OFFCURVE",
"487 275 CURVE",
"478 215 LINE",
"464 111 OFFCURVE",
"385 47 OFFCURVE",
"272 47 CURVE SMOOTH"
);
},
{
closed = 1;
nodes = (
"359 547 LINE",
"671 658 LINE",
"678 708 LINE",
"366 597 LINE"
);
}
);
width = 625;
}
);
leftKerningGroup = public.kern2.eth;
rightKerningGroup = public.kern1.eth;
unicode = 00F0;
},
